<svg id="Layer_1" data-name="Layer 1" xmlns="http://www.w3.org/2000/svg" viewBox="0 0 288.08 71.99">
  <defs>
    <style>
      .cls-1 {
        fill: #f2f2f2;
      }

      .cls-2 {
        fill: #fff;
      }

      .cls-3 {
        fill: #ffc95f;
      }

      .cls-4 {
        fill: #ffe592;
      }

      .cls-5 {
        fill: #134767;
      }

      .cls-6 {
        fill: #e2f7f7;
      }

      .cls-7 {
        fill: #edf9f8;
      }
    </style>
  </defs>
  <title>sD-Artboard 1</title>
  <g id="boids">
    <g>
      <path class="cls-1" d="M61.13,23.92s-4.8-13.81-5.92-16.67-2.52-4.69-6.92-2.91S47,22.56,47,22.56Z"/>
      <path class="cls-2" d="M57.24,14.85c.34-.83-.59-3.08-2.46-7.54-.64-1.54-1-2.43-2-2.92a4.55,4.55,0,0,0-3.82.24C46.41,6,45.57,10.34,46.82,15.5A6.58,6.58,0,0,0,51.52,18C54,18.09,56.45,16.76,57.24,14.85Z"/>
      <path class="cls-3" d="M54.52,10.33a3.57,3.57,0,0,0-3.6-1.93c-2.18.32-3.26,1.82-3.23,3l3.73,1.34Z"/>
      <path class="cls-4" d="M54.39,10.41a5,5,0,0,0-.66-.9,3.25,3.25,0,0,0-1.21-1,2.88,2.88,0,0,0-1.76-.1l.66,4.33Z"/>
      <g>
        <path class="cls-5" d="M53.57,8.48a.67.67,0,0,0,.63.73A.69.69,0,0,0,55,8.62.53.53,0,0,0,54.43,8C54.05,7.94,53.61,8.12,53.57,8.48Z"/>
        <path class="cls-2" d="M54.39,8.59a.26.26,0,0,0,.29-.2.24.24,0,0,0-.21-.27c-.14,0-.23,0-.25.16S54.26,8.57,54.39,8.59Z"/>
      </g>
      <g>
        <path class="cls-5" d="M47.73,10.08a.65.65,0,0,0,.3-.89.69.69,0,0,0-.92-.28.5.5,0,0,0-.27.76A.73.73,0,0,0,47.73,10.08Z"/>
        <path class="cls-2" d="M47.21,9.59a.25.25,0,0,0,.28-.19.24.24,0,0,0-.21-.27.18.18,0,0,0-.24.16A.24.24,0,0,0,47.21,9.59Z"/>
      </g>
    </g>
    <g>
      <path class="cls-1" d="M23.85,59s-4.79-13.81-5.92-16.67S15.41,37.59,11,39.37,9.76,57.59,9.76,57.59Z"/>
      <path class="cls-2" d="M20,49.88c.35-.83-.58-3.08-2.45-7.54-.64-1.54-1-2.43-2-2.92a4.53,4.53,0,0,0-3.81.24C9.14,41,8.29,45.37,9.55,50.53A6.55,6.55,0,0,0,14.24,53C16.69,53.12,19.17,51.79,20,49.88Z"/>
      <path class="cls-3" d="M17.25,45.36a3.57,3.57,0,0,0-3.6-1.93c-2.19.32-3.26,1.82-3.24,3l3.74,1.34Z"/>
      <path class="cls-4" d="M17.12,45.44a5.51,5.51,0,0,0-.66-.9,3.37,3.37,0,0,0-1.22-1,2.85,2.85,0,0,0-1.75-.1l.66,4.33Z"/>
      <g>
        <path class="cls-5" d="M16.3,43.51a.67.67,0,0,0,.62.73.68.68,0,0,0,.76-.59.52.52,0,0,0-.52-.64C16.77,43,16.34,43.15,16.3,43.51Z"/>
        <path class="cls-2" d="M17.12,43.62a.25.25,0,0,0,.28-.2.24.24,0,0,0-.2-.27c-.14,0-.23,0-.25.16A.24.24,0,0,0,17.12,43.62Z"/>
      </g>
      <g>
        <path class="cls-5" d="M10.46,45.1a.64.64,0,0,0,.3-.88.7.7,0,0,0-.93-.28.51.51,0,0,0-.27.76A.73.73,0,0,0,10.46,45.1Z"/>
        <path class="cls-2" d="M9.93,44.62a.24.24,0,0,0,.28-.19.23.23,0,0,0-.2-.27.18.18,0,0,0-.24.16A.24.24,0,0,0,9.93,44.62Z"/>
      </g>
    </g>
    <g>
      <path class="cls-1" d="M63,29.14S45.64,10.89,41.82,7.19,34.53,1.58,29,7.24s11.2,29.1,11.2,29.1Z"/>
      <path class="cls-2" d="M50.46,17.65c-.06-1.52-3.13-4.4-9.25-10.09-2.11-2-3.36-3.08-5.26-3.18-2.61-.14-4.83,1.73-5.76,2.89-3,3.73-1.1,11.08,4.58,18.26a11.45,11.45,0,0,0,9.06.74C47.72,24.84,50.61,21.13,50.46,17.65Z"/>
      <path class="cls-3" d="M43,12.42s-3.41-2.83-7-.62c-3.15,1.95-3.75,5-2.86,6.78l6.77-.38Z"/>
      <path class="cls-4" d="M42.84,12.64a8.72,8.72,0,0,0-1.68-1A5.9,5.9,0,0,0,38.59,11a4.88,4.88,0,0,0-2.8,1l4.15,6.29Q41.4,15.46,42.84,12.64Z"/>
      <g>
        <path class="cls-5" d="M40.18,10.18a1.18,1.18,0,0,0,1.49.72,1.11,1.11,0,0,0,.75-1.43.93.93,0,0,0-1.28-.64C40.52,9,40,9.59,40.18,10.18Z"/>
        <path class="cls-2" d="M41.52,9.8a.39.39,0,0,0,.3-.49A.42.42,0,0,0,41.31,9a.32.32,0,0,0-.27.43C41.1,9.66,41.3,9.86,41.52,9.8Z"/>
      </g>
      <g>
        <path class="cls-5" d="M32.27,16.51a1.09,1.09,0,0,0-.18-1.57,1.21,1.21,0,0,0-1.64.17.86.86,0,0,0,.13,1.36A1.26,1.26,0,0,0,32.27,16.51Z"/>
        <path class="cls-2" d="M31.1,16.11a.4.4,0,1,0-.21-.77.3.3,0,0,0-.27.41A.44.44,0,0,0,31.1,16.11Z"/>
      </g>
    </g>
  </g>
  <path id="cloud2" class="cls-6" d="M52.17,72a12.6,12.6,0,0,1-.09-1.37c0-9.47,11.28-17.15,25.19-17.15l1.38,0,34-15.31a81.41,81.41,0,0,1,80.06-12.91A77.49,77.49,0,0,1,231.2,27a72.89,72.89,0,0,1,30,18c1.65.05,13.42.54,21.15,9.81A24.67,24.67,0,0,1,288,72Z"/>
  <path class="cls-6" d="M.08,72c0-.53-.08-1.06-.08-1.6,0-11,10-20,22.32-20,.41,0,.81,0,1.22,0,5-10.47,16.6-17.81,30.14-17.81.66,0,1.31,0,2,.05C61.7,13.83,81.14,0,104.22,0c23.91,0,43.94,14.86,49.18,34.81,12.1,3.39,21.09,13.07,22.16,24.76a32.34,32.34,0,0,1,8.13-1c10.95,0,20.48,5.44,25.39,13.46Z"/>
  <path class="cls-7" d="M44,45.76h1.85C48.17,35.68,59.25,28,72.59,28a33.89,33.89,0,0,1,4.06.27C83,19.55,95,13.64,108.82,13.64c20.4,0,36.94,12.89,36.94,28.8a22.73,22.73,0,0,1-.48,4.6h0a12.91,12.91,0,0,1,1.54.75l.16.09c.42.25.82.51,1.2.79l.2.14a12.14,12.14,0,0,1,2.18,2.11l.2.27a9.52,9.52,0,0,1,.68,1l.12.2a9.89,9.89,0,0,1,.59,1.28l.09.29a9.35,9.35,0,0,1,.29,1.07c0,.13.05.25.07.38a8.19,8.19,0,0,1,.13,1.4c0,6.12-6.24,11.08-13.94,11.08H44c-7.7,0-13.94-5-13.94-11.08S36.32,45.76,44,45.76Z"/>
  <path class="cls-7" d="M128.65,53.08h2.24c2.78-7.55,16.17-13.28,32.3-13.28,1.68,0,3.31.08,4.91.2,7.66-6.55,22.21-11,38.9-11,24.66,0,44.66,9.67,44.66,21.58a10.68,10.68,0,0,1-.58,3.45h0c.65.17,1.27.36,1.86.56l.19.07c.51.19,1,.38,1.46.59l.24.11A13.86,13.86,0,0,1,257.47,57l.24.2a8.65,8.65,0,0,1,.82.77l.15.15a6.82,6.82,0,0,1,.7,1l.12.22a5.05,5.05,0,0,1,.34.8,1.61,1.61,0,0,1,.09.29,4.1,4.1,0,0,1,.15,1.05c0,4.58-7.54,8.3-16.85,8.3H128.65c-9.31,0-16.85-3.72-16.85-8.3S119.34,53.08,128.65,53.08Z"/>
  <ellipse class="cls-7" cx="161.58" cy="43.51" rx="28.5" ry="17.5"/>
  <path class="cls-7" d="M237.07,70.51h40a10.91,10.91,0,0,0,4-8c0-8-10.74-14.5-24-14.5s-24,6.5-24,14.5A10.89,10.89,0,0,0,237.07,70.51Z"/>
  <path class="cls-7" d="M30.08,54c-13.25,0-24,6.5-24,14.5a9,9,0,0,0,.52,3h47a9,9,0,0,0,.52-3C54.08,60.51,43.34,54,30.08,54Z"/>
  <path class="cls-2" d="M258.18,72a4.91,4.91,0,0,0,1.55-3.36,4.16,4.16,0,0,0-.18-1.11,2.83,2.83,0,0,0-.11-.31,5.49,5.49,0,0,0-.42-.84,1.71,1.71,0,0,0-.13-.23,7.12,7.12,0,0,0-.85-1l-.18-.16a9,9,0,0,0-1-.81l-.29-.21a16.87,16.87,0,0,0-3.15-1.66l-.29-.12c-.56-.22-1.14-.43-1.75-.62l-.23-.07c-.71-.22-1.45-.42-2.23-.6h0a10.17,10.17,0,0,0,.69-3.63c0-12.57-23.95-22.76-53.49-22.76-20,0-37.43,4.67-46.61,11.59-1.92-.13-3.87-.21-5.88-.21-19.32,0-35.36,6-38.7,14h-2.68c-11.15,0-20.19,3.92-20.19,8.76A4.91,4.91,0,0,0,83.63,72Z"/>
  <path class="cls-2" d="M164,72a8,8,0,0,0,1.64-6.46c0-.12,0-.25-.08-.37a7,7,0,0,0-.29-1,2.31,2.31,0,0,0-.1-.28,7.26,7.26,0,0,0-.6-1.22,2.12,2.12,0,0,0-.12-.2,9.25,9.25,0,0,0-.7-1l-.2-.25a12,12,0,0,0-2.23-2l-.21-.14a11.66,11.66,0,0,0-1.24-.75l-.16-.09a13.21,13.21,0,0,0-1.57-.72h0a20.27,20.27,0,0,0,.49-4.41c0-15.24-16.94-27.59-37.84-27.59-14.15,0-26.47,5.66-33,14.05a37.76,37.76,0,0,0-4.16-.26c-13.67,0-25,7.33-27.37,17h-1.9c-7.89,0-14.28,4.75-14.28,10.61A8.58,8.58,0,0,0,41.85,72Z"/>
  <ellipse class="cls-2" cx="87.73" cy="13.14" rx="6.81" ry="4.15"/>
</svg>
