<svg id="Layer_1" data-name="Layer 1" xmlns="http://www.w3.org/2000/svg" viewBox="0 0 228.19 255.22">
  <defs>
    <style>
      .cls-1 {
        fill: #3d6d84;
      }

      .cls-2 {
        fill: none;
        stroke: #3d6d84;
        stroke-miterlimit: 10;
        stroke-width: 5.22px;
      }
    </style>
  </defs>
  <title>starArtboard 1</title>
  <g>
    <g>
      <ellipse class="cls-1" cx="112.38" cy="93.19" rx="4.77" ry="3.86"/>
      <ellipse class="cls-1" cx="128.61" cy="158.19" rx="5.21" ry="5.08"/>
      <ellipse class="cls-1" cx="91.99" cy="163.27" rx="5.21" ry="5.08"/>
      <ellipse class="cls-1" cx="102.41" cy="142.49" rx="5.21" ry="5.08"/>
      <ellipse class="cls-1" cx="123.41" cy="137.4" rx="5.21" ry="5.08"/>
      <ellipse class="cls-1" cx="112.38" cy="120.04" rx="5.21" ry="5.08"/>
      <ellipse class="cls-1" cx="112.38" cy="59.11" rx="3.3" ry="3.53"/>
      <path class="cls-1" d="M108.71,76a3.67,3.67,0,1,0,6.17-2.71,3.65,3.65,0,0,0-5,0A3.71,3.71,0,0,0,108.71,76Z"/>
      <ellipse class="cls-1" cx="112.38" cy="43.22" rx="2.93" ry="3.69"/>
      <ellipse class="cls-1" cx="147.04" cy="129.63" rx="4.15" ry="4.43" transform="translate(-14.92 240.05) rotate(-75.69)"/>
      <ellipse class="cls-1" cx="165.79" cy="126.71" rx="4.02" ry="2.91" transform="translate(-13.93 20.68) rotate(-6.85)"/>
      <ellipse class="cls-1" cx="198.14" cy="120.98" rx="2.18" ry="2.6" transform="translate(-29.44 75.15) rotate(-20.02)"/>
      <ellipse class="cls-1" cx="183.58" cy="123.55" rx="4.2" ry="2.58" transform="matrix(0.99, -0.14, 0.14, 0.99, -15.86, 27.69)"/>
      <path class="cls-1" d="M74.73,178c1.32-1.79,4.18-2.23,6.39-1s2.95,3.72,1.63,5.51a4.3,4.3,0,0,1-2.64,1.6,5.49,5.49,0,0,1-3.75-.62C74.15,182.28,73.42,179.81,74.73,178Z"/>
      <ellipse class="cls-1" cx="54.9" cy="210" rx="3.75" ry="3.1" transform="translate(-115.65 75.74) rotate(-37.14)"/>
      <ellipse class="cls-1" cx="67.95" cy="196.04" rx="3.96" ry="3.42" transform="translate(-87.92 59.1) rotate(-29.58)"/>
      <ellipse class="cls-1" cx="35.84" cy="230.94" rx="1.98" ry="2.85" transform="translate(-191 174.68) rotate(-67.25)"/>
      <ellipse class="cls-1" cx="43.87" cy="220.01" rx="3.88" ry="2.79" transform="translate(-145.01 98.97) rotate(-46.07)"/>
      <ellipse class="cls-1" cx="142.62" cy="175.21" rx="4.61" ry="3.99" transform="translate(-43.89 47.72) rotate(-16.5)"/>
      <path class="cls-1" d="M155.42,182.74c-1.66-1.31-4-1.4-5.2-.21a2.33,2.33,0,0,0-.72,1.62A3.57,3.57,0,0,0,151,187c1.65,1.31,4,1.4,5.2.21a2.58,2.58,0,0,0,.38-3.1A4.2,4.2,0,0,0,155.42,182.74Z"/>
      <ellipse class="cls-1" cx="177.79" cy="204.18" rx="2.77" ry="2.04" transform="translate(-84.81 138.29) rotate(-34.87)"/>
      <ellipse class="cls-1" cx="165.79" cy="196.13" rx="2.69" ry="4.02" transform="translate(-88.26 233.68) rotate(-58.2)"/>
      <ellipse class="cls-1" cx="78.95" cy="137.4" rx="4.49" ry="4.1" transform="translate(-39.72 32.38) rotate(-18.61)"/>
      <path class="cls-1" d="M58.57,131.38a4.59,4.59,0,0,0,4.19-.41,2.51,2.51,0,0,0,.79-.95,2.61,2.61,0,0,0-.79-3A4.87,4.87,0,0,0,61,126c-2.06-.73-4.29-.12-5,1.36S56.5,130.65,58.57,131.38Z"/>
      <ellipse class="cls-1" cx="28.25" cy="115.15" rx="2.65" ry="2.14" transform="translate(-82.39 72.54) rotate(-55.15)"/>
      <ellipse class="cls-1" cx="42.02" cy="121.97" rx="2.61" ry="4.16" transform="translate(-86.82 128.46) rotate(-73.88)"/>
      <ellipse class="cls-1" cx="112.38" cy="31.92" rx="2.93" ry="2.19"/>
    </g>
    <path class="cls-2" d="M104.68,12.38c5.08-14,13.81-12.76,19.44,2.34L143.63,65l1.85,4.79c3.69,9.14,13.07,18.34,24.09,24.6a62,62,0,0,0,18.93,7.16l19.25,3.4c18,3,23.26,13.5,11.7,23.75l-16.3,15c-11.63,11.1-16.94,31.11-11.76,44l1,2.47,7.17,17.35c5.22,12.36-3.41,18.41-19.18,13.32l-10.83-3.92L139,205.88c-15.67-6.28-41.08-3.37-56.53,7.05L58.09,230.37,36.2,246c-15.56,11.73-23.17,7.43-16.89-9.62l14.22-38a42.64,42.64,0,0,0,2.19-8.17c2.61-15.34-1.64-33.86-10.89-44.88L8.06,124.6C-2.85,110.66,3.14,97.47,21.34,95.68l22.8-2.13a49.38,49.38,0,0,0,14-3.43C70.59,85.13,81.65,75.51,86,65c.21-.52.41-1,.59-1.57Z"/>
  </g>
</svg>
