<svg xmlns="http://www.w3.org/2000/svg" xmlns:xlink="http://www.w3.org/1999/xlink" viewBox="0 0 450 144">
  <defs>
    <clipPath id="clip-path">
      <path d="M0,83.5V25.63a304,304,0,0,0,36.39-2.87c16.28-2.29,24.68-3.52,31.16-8C75,9.71,77.15,4.53,82.88,4.79c6.21.28,6.61,6.51,16.75,9.67,5.39,1.68,11.26,1.78,14.53,1.84,4.87.08,6-.43,8.67-.33,8.25.28,13.6,5.57,18.64,9.2,9.58,6.91,19.37,8.6,39,12,7.81,1.35,9.28.95,25.76,2.15,37.71,2.76,59.84,7,76.07,3,10.75-2.69,16.4-4.37,16.4-4.37,9.81-2.91,9.73-3.42,12.51-3.58,7.64-.44,9.6,3.38,21.72,6.85A60.43,60.43,0,0,0,350.33,44c7.88,0,14.67-1.76,20.7-3.33,8.41-2.19,9.71-3.49,14.47-3.48,5.52,0,8.42,1.78,14.69,4.15a134.52,134.52,0,0,0,30.39,7,105.44,105.44,0,0,0,19.42.33V83.5Z" fill="#53c8e9"/>
    </clipPath>
    <symbol id="ahhSound" data-name="ahhSound" viewBox="0 0 450 84">
      <g id="ahhSound-3" data-name="ahhSound">
        <path d="M0,83.5V25.63a304,304,0,0,0,36.39-2.87c16.28-2.29,24.68-3.52,31.16-8C75,9.71,77.15,4.53,82.88,4.79c6.21.28,6.61,6.51,16.75,9.67,5.39,1.68,11.26,1.78,14.53,1.84,4.87.08,6-.43,8.67-.33,8.25.28,13.6,5.57,18.64,9.2,9.58,6.91,19.37,8.6,39,12,7.81,1.35,9.28.95,25.76,2.15,37.71,2.76,59.84,7,76.07,3,10.75-2.69,16.4-4.37,16.4-4.37,9.81-2.91,9.73-3.42,12.51-3.58,7.64-.44,9.6,3.38,21.72,6.85A60.43,60.43,0,0,0,350.33,44c7.88,0,14.67-1.76,20.7-3.33,8.41-2.19,9.71-3.49,14.47-3.48,5.52,0,8.42,1.78,14.69,4.15a134.52,134.52,0,0,0,30.39,7,105.44,105.44,0,0,0,19.42.33V83.5Z" fill="#53c8e9"/>
        <g clip-path="url(#clip-path)">
          <line x1="81.5" y1="0.5" x2="81.5" y2="83.5" fill="none" stroke="#2095b6" stroke-linecap="round" stroke-miterlimit="10"/>
          <line x1="126.5" y1="11.5" x2="126.5" y2="83.5" fill="none" stroke="#2095b6" stroke-linecap="round" stroke-miterlimit="10"/>
          <line x1="311.5" y1="26.5" x2="311.5" y2="83.5" fill="none" stroke="#2095b6" stroke-linecap="round" stroke-miterlimit="10"/>
        </g>
      </g>
    </symbol>
  </defs>
  <title>waveOnly</title>
  <g id="ahhSound-04">
    <use width="450" height="84" transform="translate(0 60.5)" xlink:href="#ahhSound"/>
  </g>
</svg>
