<svg xmlns="http://www.w3.org/2000/svg" xmlns:xlink="http://www.w3.org/1999/xlink" viewBox="0 0 450 144">
  <defs>
    <clipPath id="clip-path">
      <path d="M0,63.5V13.27a28,28,0,0,0,14.07-3.12c6.59-3.57,8.25-8.34,12.56-8.25,3.69.07,5,3.61,10.44,8.87,6.14,5.89,12.16,8.65,19.51,12a74.81,74.81,0,0,0,20.71,6.5C115,36,156,37.81,156,37.81c43.09,1.91,51.37,1.93,60.68,1.67,0,0,34.27-1,54.85-10A112.8,112.8,0,0,0,285,22.71c6.48-4.16,7.77-6.52,11.67-7.07,4.41-.61,6.92,2.62,14.56,6.23,6.56,3.1,12,3.73,18.9,4.52,3.45.4,19,2.19,32-3.23.61-.25,2.22-.95,4.87-2,8.6-3.54,11.67-4.5,15.06-5.12a22.92,22.92,0,0,1,3.94-.53c5.53,0,8.15,2.87,14,5a33.67,33.67,0,0,0,9.61,2c4.41.3,10.66.73,16.5-2.12a12.16,12.16,0,0,1,6.63-1.75,8.89,8.89,0,0,1,3.63,1.13c5.85,2.82,12.63,6.16,13.63,7.13V63.5Z" fill="#53c8e9"/>
    </clipPath>
    <symbol id="eeeWave" data-name="eeeWave" viewBox="0 0 450 63.5">
      <g id="eeeWave-3" data-name="eeeWave">
        <path d="M0,63.5V13.27a28,28,0,0,0,14.07-3.12c6.59-3.57,8.25-8.34,12.56-8.25,3.69.07,5,3.61,10.44,8.87,6.14,5.89,12.16,8.65,19.51,12a74.81,74.81,0,0,0,20.71,6.5C115,36,156,37.81,156,37.81c43.09,1.91,51.37,1.93,60.68,1.67,0,0,34.27-1,54.85-10A112.8,112.8,0,0,0,285,22.71c6.48-4.16,7.77-6.52,11.67-7.07,4.41-.61,6.92,2.62,14.56,6.23,6.56,3.1,12,3.73,18.9,4.52,3.45.4,19,2.19,32-3.23.61-.25,2.22-.95,4.87-2,8.6-3.54,11.67-4.5,15.06-5.12a22.92,22.92,0,0,1,3.94-.53c5.53,0,8.15,2.87,14,5a33.67,33.67,0,0,0,9.61,2c4.41.3,10.66.73,16.5-2.12a12.16,12.16,0,0,1,6.63-1.75,8.89,8.89,0,0,1,3.63,1.13c5.85,2.82,12.63,6.16,13.63,7.13V63.5Z" fill="#53c8e9"/>
        <g clip-path="url(#clip-path)">
          <line x1="26.5" y1="0.5" x2="26.5" y2="62.5" fill="none" stroke="#2095b6" stroke-linecap="round" stroke-miterlimit="10"/>
          <line x1="297.5" y1="7.5" x2="297.5" y2="62.5" fill="none" stroke="#2095b6" stroke-linecap="round" stroke-miterlimit="10"/>
          <line x1="384.5" y1="12.5" x2="384.5" y2="62.5" fill="none" stroke="#2095b6" stroke-linecap="round" stroke-miterlimit="10"/>
        </g>
      </g>
    </symbol>
  </defs>
  <title>waveOnly</title>
  <g id="eeeSound-01">
    <use width="450" height="63.5" transform="translate(0 80.5)" xlink:href="#eeeWave"/>
  </g>
</svg>
