<svg xmlns="http://www.w3.org/2000/svg" xmlns:xlink="http://www.w3.org/1999/xlink" viewBox="0 0 450 144">
  <defs>
    <clipPath id="clip-path">
      <path d="M0,78V14.4a97.53,97.53,0,0,0,23.41,2.28,90.61,90.61,0,0,0,21-3.11C53.09,11.16,52.6,9.84,57,9.06c13.72-2.4,18.67,10.4,37,13.16,4.29.64,16.24,2.44,25.63-4.16,8.81-6.19,9-15.32,14.72-15.67,6.87-.42,8.8,12.77,18.3,14,7.52,1,10.74-6.74,18.27-5.5,5.8,1,7.37,6.09,13.06,12.17,12,12.81,29.05,15.61,37.57,17,12.37,2,11.93-1.36,31.12-.18,15.42.95,16.72,3.2,31.63,4.5,15.51,1.36,16-.91,39.65-1,23.06-.07,22,2.08,41.22,1.48,21.88-.69,22.47-3.47,36.54-2C412,44,417.41,46.1,431.06,46.73A145.62,145.62,0,0,0,450,46.4V78Z" fill="#53c8e9"/>
    </clipPath>
    <symbol id="goodR" data-name="goodR" viewBox="0 0 450 78">
      <g id="goodR-3" data-name="goodR">
        <path d="M0,78V14.4a97.53,97.53,0,0,0,23.41,2.28,90.61,90.61,0,0,0,21-3.11C53.09,11.16,52.6,9.84,57,9.06c13.72-2.4,18.67,10.4,37,13.16,4.29.64,16.24,2.44,25.63-4.16,8.81-6.19,9-15.32,14.72-15.67,6.87-.42,8.8,12.77,18.3,14,7.52,1,10.74-6.74,18.27-5.5,5.8,1,7.37,6.09,13.06,12.17,12,12.81,29.05,15.61,37.57,17,12.37,2,11.93-1.36,31.12-.18,15.42.95,16.72,3.2,31.63,4.5,15.51,1.36,16-.91,39.65-1,23.06-.07,22,2.08,41.22,1.48,21.88-.69,22.47-3.47,36.54-2C412,44,417.41,46.1,431.06,46.73A145.62,145.62,0,0,0,450,46.4V78Z" fill="#53c8e9"/>
        <g clip-path="url(#clip-path)">
          <line x1="58.5" y1="6" x2="58.5" y2="78" fill="none" stroke="#2095b6" stroke-miterlimit="10"/>
          <line x1="133.5" x2="133.5" y2="78" fill="none" stroke="#2095b6" stroke-miterlimit="10"/>
          <line x1="170.5" x2="170.5" y2="78" fill="none" stroke="#2095b6" stroke-miterlimit="10"/>
          <line x1="322.5" y1="41" x2="322.5" y2="78" fill="none" stroke="#2095b6" stroke-miterlimit="10"/>
          <line x1="401.5" y1="41" x2="401.5" y2="78" fill="none" stroke="#2095b6" stroke-miterlimit="10"/>
        </g>
      </g>
    </symbol>
  </defs>
  <title>waveOnly</title>
  <g id="goodR-10">
    <use width="450" height="78" transform="translate(0 66)" xlink:href="#goodR"/>
  </g>
</svg>
