<svg xmlns="http://www.w3.org/2000/svg" xmlns:xlink="http://www.w3.org/1999/xlink" viewBox="0 0 450 144">
  <defs>
    <clipPath id="clip-path">
      <path d="M0,144V78c4,.65,12.86,1.59,21.57-2A25.43,25.43,0,0,0,31,69.89c2.79-3,3.11-4.9,4.81-5.22,3.39-.62,6.2,6.38,11.11,12.4,9,11,21.82,14.59,26.66,15.93a58.27,58.27,0,0,0,25.87,1.21C107,92.81,107.72,91,113.37,91c7.62,0,10.86,3.37,21.63,7.75a133.11,133.11,0,0,0,20,6c11.1,2.37,15.81,1.26,30,1.76,19.15.68,17.91,3,35.7,3.75,17.59.78,20.24-1.4,38.74-1.25,14.58.12,16.78,1.5,37.31,3.25a523.63,523.63,0,0,0,66.75,1.5c23.67-1,35.51-1.55,42-4,0,0,17.14-6.47,27.72-5.75l8.7.65c3.41.26,6.08.48,8.08.65v38.8Z" fill="none"/>
    </clipPath>
  </defs>
  <title>waveOnly</title>
  <g id="oooNYC-09">
    <g id="oooNYC">
      <g clip-path="url(#clip-path)">
        <path d="M0,144V78c4,.65,12.86,1.59,21.57-2A25.43,25.43,0,0,0,31,69.89c2.79-3,3.11-4.9,4.81-5.22,3.39-.62,6.2,6.38,11.11,12.4,9,11,21.82,14.59,26.66,15.93a58.27,58.27,0,0,0,25.87,1.21C107,92.81,107.72,91,113.37,91c7.62,0,10.86,3.37,21.63,7.75a133.11,133.11,0,0,0,20,6c11.1,2.37,15.81,1.26,30,1.76,19.15.68,17.91,3,35.7,3.75,17.59.78,20.24-1.4,38.74-1.25,14.58.12,16.78,1.5,37.31,3.25a523.63,523.63,0,0,0,66.75,1.5c23.67-1,35.51-1.55,42-4,0,0,17.14-6.47,27.72-5.75l8.7.65c3.41.26,6.08.48,8.08.65v38.8Z" fill="#53c8e9"/>
        <line x1="36.5" y1="144.1" x2="36.5" y2="58.6" fill="none" stroke="#2095b6" stroke-miterlimit="10"/>
        <line x1="113.33" y1="144.1" x2="113.33" y2="86.37" fill="none" stroke="#2095b6" stroke-miterlimit="10"/>
        <line x1="260" y1="144.1" x2="260" y2="104.47" fill="none" stroke="#2095b6" stroke-miterlimit="10"/>
        <line x1="433" y1="144.1" x2="433" y2="100.31" fill="none" stroke="#2095b6" stroke-miterlimit="10"/>
      </g>
    </g>
  </g>
</svg>
