<svg xmlns="http://www.w3.org/2000/svg" xmlns:xlink="http://www.w3.org/1999/xlink" viewBox="0 0 450 144">
  <defs>
    <clipPath id="clip-path">
      <path d="M0,83V23a28.22,28.22,0,0,0,15-2c9.72-4.42,11.8-13.22,19.08-13.6,3.14-.16,4.6,1.39,11.3,5.6.93.58,7.9,4.23,21.79,11.54,12.81,6.74,19.24,10.1,26,12.36a95.17,95.17,0,0,0,32.63,4.6c16.74-.27,29.3-.47,38.09-9.12C169.77,26.63,171,20.07,175.67,20c4.28-.06,5.85,5.37,11.18,11,10.65,11.26,26.5,13,38.45,14.27,11.39,1.23,11.29-1,25.85-.07,13.28.83,20.06,3.08,30.53,5.13,22.05,4.32,39.85,3.7,55,3.17,22.12-.78,33.18-1.16,46.55-5.17,5.38-1.61,13.19-4.39,24.42-4.69,3.54-.1,6.72.07,19.37,1.36,9.43,1,17.29,1.84,23,2.5.09,11.87-.08,23.75,0,35.62Z" fill="#53c8e9"/>
    </clipPath>
    <symbol id="oooCali" data-name="oooCali" viewBox="0 0 451 83.12">
      <g id="oooWave">
        <path d="M0,83V23a28.22,28.22,0,0,0,15-2c9.72-4.42,11.8-13.22,19.08-13.6,3.14-.16,4.6,1.39,11.3,5.6.93.58,7.9,4.23,21.79,11.54,12.81,6.74,19.24,10.1,26,12.36a95.17,95.17,0,0,0,32.63,4.6c16.74-.27,29.3-.47,38.09-9.12C169.77,26.63,171,20.07,175.67,20c4.28-.06,5.85,5.37,11.18,11,10.65,11.26,26.5,13,38.45,14.27,11.39,1.23,11.29-1,25.85-.07,13.28.83,20.06,3.08,30.53,5.13,22.05,4.32,39.85,3.7,55,3.17,22.12-.78,33.18-1.16,46.55-5.17,5.38-1.61,13.19-4.39,24.42-4.69,3.54-.1,6.72.07,19.37,1.36,9.43,1,17.29,1.84,23,2.5.09,11.87-.08,23.75,0,35.62Z" fill="#53c8e9"/>
        <g clip-path="url(#clip-path)">
          <line x1="34.5" x2="34.5" y2="83" fill="#53c8e9" stroke="#2095b6" stroke-miterlimit="10"/>
          <line x1="175.5" y1="14" x2="175.5" y2="83" fill="#53c8e9" stroke="#2095b6" stroke-miterlimit="10"/>
          <line x1="249.5" y1="37" x2="249.5" y2="83" fill="#53c8e9" stroke="#2095b6" stroke-miterlimit="10"/>
          <line x1="406.5" y1="37" x2="406.5" y2="83" fill="#53c8e9" stroke="#2095b6" stroke-miterlimit="10"/>
        </g>
      </g>
    </symbol>
  </defs>
  <title>waveOnly</title>
  <g id="oooCali-08">
    <use width="451" height="83.12" transform="translate(0 61)" xlink:href="#oooCali"/>
  </g>
</svg>
