<svg xmlns="http://www.w3.org/2000/svg" xmlns:xlink="http://www.w3.org/1999/xlink" viewBox="0 0 450 144">
  <defs>
    <clipPath id="clip-path">
      <path d="M0,83V19a31.62,31.62,0,0,0,11.66-2.34C20,13.21,20.9,8.36,26.18,7.5c7-1.13,8.69,8.29,19.95,10.19a41.94,41.94,0,0,0,10.93,0C64.64,16.94,66,15.23,70,16c4.33.84,5.34,3.32,11.06,7.25,0,0,4.05,2.79,14.13,6.78,25.66,10.18,86.87,13.7,86.87,13.7,36.44,2.09,62.64,3.55,93.88,3.29,4.88,0,10.39-.13,18.65,0,26.53.57,32.4,2.83,59.36,4.51,28,1.75,42,2.62,53.62.56a111.35,111.35,0,0,1,24.61-2.07,106.44,106.44,0,0,1,17.82,2V83Z" fill="#53c8e9"/>
    </clipPath>
    <symbol id="oooWave" data-name="oooWave" viewBox="0 0 450 83">
      <g>
        <path d="M0,83V19a31.62,31.62,0,0,0,11.66-2.34C20,13.21,20.9,8.36,26.18,7.5c7-1.13,8.69,8.29,19.95,10.19a41.94,41.94,0,0,0,10.93,0C64.64,16.94,66,15.23,70,16c4.33.84,5.34,3.32,11.06,7.25,0,0,4.05,2.79,14.13,6.78,25.66,10.18,86.87,13.7,86.87,13.7,36.44,2.09,62.64,3.55,93.88,3.29,4.88,0,10.39-.13,18.65,0,26.53.57,32.4,2.83,59.36,4.51,28,1.75,42,2.62,53.62.56a111.35,111.35,0,0,1,24.61-2.07,106.44,106.44,0,0,1,17.82,2V83Z" fill="#53c8e9"/>
        <g clip-path="url(#clip-path)">
          <line x1="25.5" x2="25.5" y2="83" fill="none" stroke="#2095b6" stroke-miterlimit="10"/>
          <line x1="69.5" y1="8" x2="69.5" y2="83" fill="none" stroke="#2095b6" stroke-miterlimit="10"/>
          <line x1="431.5" y1="45" x2="431.5" y2="83" fill="none" stroke="#2095b6" stroke-miterlimit="10"/>
        </g>
      </g>
    </symbol>
  </defs>
  <title>waveOnly</title>
  <g id="oooSound-07">
    <use width="450" height="83" transform="translate(0 61)" xlink:href="#oooWave"/>
  </g>
</svg>
