<svg id="Layer_1" data-name="Layer 1" xmlns="http://www.w3.org/2000/svg" xmlns:xlink="http://www.w3.org/1999/xlink" viewBox="0 0 480 150">
  <defs>
    <clipPath id="clip-path">
      <path d="M0,150.46V96.53a29.85,29.85,0,0,0,15-3.33c7-3.81,8.8-8.89,13.4-8.8,3.93.08,5.28,3.85,11.13,9.47,6.55,6.28,13,9.23,20.81,12.84a79.8,79.8,0,0,0,22.09,6.94c40.25,7.12,83.94,9.06,83.94,9.06,46,2,54.8,2.05,64.72,1.78,0,0,36.56-1,58.51-10.72C299.94,109.2,304,106.6,304,106.6c6.91-4.43,8.29-7,12.45-7.54,4.7-.65,7.38,2.79,15.53,6.64,7,3.3,12.82,4,20.16,4.82,3.68.42,20.29,2.34,34.13-3.44.65-.27,2.37-1,5.2-2.17,9.18-3.78,12.45-4.8,16.07-5.46a24.45,24.45,0,0,1,4.2-.56c5.9,0,8.7,3.07,14.95,5.38a35.92,35.92,0,0,0,10.25,2.13c4.7.32,11.38.77,17.6-2.27a13,13,0,0,1,7.07-1.87,9.48,9.48,0,0,1,3.87,1.2c6.24,3,13.47,6.58,14.53,7.6v39.4Z" fill="#55c8e9"/>
    </clipPath>
    <symbol id="_1" data-name="1" viewBox="0 0 18.67 18">
      <ellipse cx="9.33" cy="9" rx="9.33" ry="9" fill="#fff"/>
      <text transform="translate(6.83 12.97)" font-size="12" fill="#4e4e4e" font-family="Quicksand-Bold, Quicksand" font-weight="700">1</text>
    </symbol>
    <symbol id="_2" data-name="2" viewBox="0 0 18.67 18">
      <ellipse cx="9.33" cy="9" rx="9.33" ry="9" fill="#098b9e"/>
      <text transform="translate(5.67 12.7)" font-size="12" fill="#fff" font-family="Quicksand-Bold, Quicksand" font-weight="700">2</text>
    </symbol>
    <symbol id="_3" data-name="3" viewBox="0 0 18.67 18">
      <ellipse cx="9.33" cy="9" rx="9.33" ry="9" fill="#ffca61"/>
      <text transform="translate(5.67 12.7)" font-size="12" fill="#fff" font-family="Quicksand-Bold, Quicksand" font-weight="700">3</text>
    </symbol>
  </defs>
  <title>Artboard 1</title>
  <g id="eeeWave_2" data-name="eeeWave 2">
    <g id="eeeWave">
      <path d="M0,150.46V96.53a29.85,29.85,0,0,0,15-3.33c7-3.81,8.8-8.89,13.4-8.8,3.93.08,5.28,3.85,11.13,9.47,6.55,6.28,13,9.23,20.81,12.84a79.8,79.8,0,0,0,22.09,6.94c40.25,7.12,83.94,9.06,83.94,9.06,46,2,54.8,2.05,64.72,1.78,0,0,36.56-1,58.51-10.72C299.94,109.2,304,106.6,304,106.6c6.91-4.43,8.29-7,12.45-7.54,4.7-.65,7.38,2.79,15.53,6.64,7,3.3,12.82,4,20.16,4.82,3.68.42,20.29,2.34,34.13-3.44.65-.27,2.37-1,5.2-2.17,9.18-3.78,12.45-4.8,16.07-5.46a24.45,24.45,0,0,1,4.2-.56c5.9,0,8.7,3.07,14.95,5.38a35.92,35.92,0,0,0,10.25,2.13c4.7.32,11.38.77,17.6-2.27a13,13,0,0,1,7.07-1.87,9.48,9.48,0,0,1,3.87,1.2c6.24,3,13.47,6.58,14.53,7.6v39.4Z" fill="#55c8e9"/>
      <g clip-path="url(#clip-path)">
        <line x1="28.5" y1="83.46" x2="28.5" y2="149.46" fill="none" stroke="#2296b7" stroke-linecap="round" stroke-miterlimit="10"/>
        <line x1="317.5" y1="90.46" x2="317.5" y2="149.46" fill="none" stroke="#2296b7" stroke-linecap="round" stroke-miterlimit="10"/>
        <line x1="410.5" y1="96.46" x2="410.5" y2="149.46" fill="none" stroke="#2296b7" stroke-linecap="round" stroke-miterlimit="10"/>
      </g>
    </g>
  </g>
  <use width="18.67" height="18" transform="translate(15.84 48.67) scale(1.34)" xlink:href="#_1"/>
  <use id="_2-3" data-name="2" width="18.67" height="18" transform="translate(305.49 63.39) scale(1.34)" xlink:href="#_2"/>
  <use width="18.67" height="18" transform="translate(397.98 63.39) scale(1.34)" xlink:href="#_3"/>
</svg>
