<?xml version="1.0" encoding="utf-8"?>
<svg version="1.1"
	xmlns="http://www.w3.org/2000/svg"
	xmlns:xlink="http://www.w3.org/1999/xlink"
	x="0px" y="0px"
	viewBox="0 0 64 64">

<g>
	<path class="" d="M56.8,6c-2.3,2.2-4.7,4.4-7.9,7.8c-3.8,3.9-7.4,8-10.8,12.2c-3.3,4.5-6.2,9.2-8.7,14.2
		c-2.6,5.3-5.3,11.3-7.9,17.3"/>
	<path class="" d="M56.8,6c-2.2,2.3-4.5,4.6-7.6,8.1c-3.7,4.1-7.2,8.3-10.4,12.8c-3.3,4.8-6.2,9.8-8.7,15.1
		c-2.8,5.7-5.8,12.4-8.8,19"/>
	<path class="" d="M23.1,53.9c-0.3-0.4-0.6-0.9-0.9-1.4c-0.3-0.5-0.5-1.1-0.8-1.6c-0.3-0.5-0.7-0.9-1.1-1.3
		c-0.3-0.2-0.6-0.4-0.9-0.5"/>
	<path class="" d="M19.4,49.1c0.5,0.1,1,0.3,1.5,0.6c0.4,0.3,0.7,0.6,1,1c0.3,0.4,0.5,0.7,0.8,1.1"/>
	<path class="" d="M22.6,51.8c-0.2-0.7-0.3-1.5-0.5-2.2s-0.6-1.5-0.9-2.2c-0.2-0.6-0.4-1.3-0.4-2c0-0.8,0.1-1.8,0.2-2.8"/>
	<path class="" d="M21.1,42.7c0.2,0.7,0.3,1.5,0.5,2.1c0.2,0.6,0.4,1.2,0.8,1.7c0.3,0.3,0.6,0.6,0.9,0.9c0.2,0.2,0.4,0.4,0.5,0.6
		"/>
	<path class="" d="M23.9,47.9c-0.1-0.4-0.1-0.9-0.2-1.2s-0.1-0.6-0.2-1s-0.2-1-0.3-1.8c-0.2-2.3,0-4.6,0.5-6.8
		c0.3-0.9,0.6-1.8,1-2.6c0.2-0.3,0.4-0.7,0.6-1"/>
	<path class="" d="M25.4,33.5c0,0.8-0.1,1.5-0.1,2.2c0,0.7,0,1.5,0,2.2c0,0.8,0.2,1.8,0.3,2.7"/>
	<path class="" d="M25.6,40.8c0-0.8,0.1-1.7,0.1-2.4s0.1-1.3,0.1-2.2c0-1,0.2-2,0.4-3c0.2-1,0.6-2,1-2.9c0.2-0.4,0.5-0.8,0.8-1.2
		"/>
	<path class="" d="M28.1,29c1-1.2,1.9-2.4,2.9-3.6s1.8-2.5,2.7-3.4c0.7-0.7,1.5-1.4,2.4-2c0.8-0.6,1.5-1.3,2.2-2.1
		c0.8-0.9,1.6-2,2.4-3c0.7-0.9,1.5-1.7,2.3-2.6c0.4-0.4,0.9-0.8,1.5-1.1"/>
	<path class="" d="M44.3,11.2c0,0.8-0.1,1.5-0.1,2.3c0,0.8,0.1,1.6,0.1,2.3"/>
	<path class="" d="M44.3,15.9c0.1-0.3,0.1-0.5,0.1-0.8c0.1-0.5,0.1-1.3,0.2-2.1s0.2-1.5,0.3-2.3"/>
	<path class="" d="M45,10.7c1.1-1.1,2.2-2.2,3.2-3s1.7-1.4,2.4-2.1c0.8-0.8,1.6-1.5,2.6-2.2c1.1-0.6,2.3-1,3.5-1.2
		c1-0.2,2-0.2,3,0.1c0.7,0.3,0.9,1,1,2.2C60.7,6,60.5,7.6,60,9.1c-0.7,1.8-1.7,3.4-3,4.8c-1.5,1.6-3.1,3.1-4.7,4.5"/>
	<path class="" d="M52.2,18.4c-0.4,0.2-0.7,0.3-1.1,0.3c-0.6,0-1.5,0-2.4-0.1"/>
	<path class="" d="M48.6,18.5L50,19c0.5,0.2,1,0.3,1.3,0.4c0.2,0.1,0.4,0.2,0.6,0.3"/>
	<path class="" d="M51.9,19.7c-0.5,1.8-1.3,3.5-2.2,5.1c-1.1,1.7-2.6,3.5-3.7,5.2c-1,1.6-1.9,3.4-2.7,5.1c-0.9,2-1.9,3.9-3,5.8
		c-0.6,1.1-1.6,2.1-2.7,2.7c-0.8,0.4-1.7,0.7-2.6,0.9"/>
	<path class="" d="M24.3,54.5c0.6,0.1,1.2,0.1,1.8,0.1c0.6,0,1.2-0.1,1.8-0.1c0.6,0,1.1,0.1,1.7,0.3c0.3,0.1,0.6,0.3,0.9,0.5"/>
	<path class="" d="M30.5,55.2c-0.4-0.4-0.8-0.7-1.3-0.9c-0.4-0.2-0.9-0.3-1.4-0.3c-0.5,0-0.9-0.1-1.3-0.1"/>
	<path class="" d="M26.5,53.8c0.7-0.3,1.4-0.5,2.1-0.7c0.8-0.2,1.6-0.3,2.3-0.4c0.7-0.1,1.3-0.4,1.9-0.7c0.7-0.4,1.4-1,2.2-1.6"
		/>
	<path class="" d="M35.1,50.3c-0.7,0.2-1.4,0.5-2.1,0.6c-0.6,0.2-1.2,0.2-1.9,0.2c-0.4-0.1-0.8-0.2-1.2-0.3
		c-0.3-0.1-0.5-0.1-0.8-0.2"/>
	<path class="" d="M29.1,50.7c0.4-0.2,0.8-0.3,1.1-0.5l0.9-0.4c0.6-0.2,1.1-0.5,1.6-0.7c0.9-0.4,1.8-1,2.6-1.5
		c1-0.7,2-1.6,2.9-2.5c0.6-0.7,1.2-1.4,1.7-2.2c0.2-0.3,0.4-0.6,0.5-1"/>
	<path class="" d="M40.6,41.9c-0.5,0.4-1.1,0.9-1.7,1.3c-0.6,0.5-1.2,0.8-1.9,1.1c-0.7,0.2-1.4,0.2-2.2,0.2"/>
	<path class="" d="M21.5,57.5c0.1,0.2,0.1,0.3,0.2,0.5c0.1,0.2,0.1,0.4,0.1,0.6c0,0.2,0,0.5,0,0.7c0,0.3-0.1,0.5-0.1,0.8
		c0,0.3-0.1,0.6-0.2,1"/>
	<path class="" d="M21.5,57.5c0,0.2-0.1,0.4-0.1,0.7c0,0.2-0.1,0.5-0.1,0.7c0,0.2,0,0.5,0,0.8c0,0.4,0.1,0.9,0.1,1.4"/>
	<path class="" d="M36,20c0,0.9,0.1,1.8,0.2,2.6c0.1,0.7,0.2,1.4,0.4,2.1"/>
	<path class="" d="M54.4,2.8c0,0.5-0.1,1-0.1,1.5s0,1,0,1.4"/>
	<path class="" d="M59.1,11c-0.5,0.2-1.1,0.4-1.6,0.5c-0.7,0.1-1.4,0.2-2.1,0.2"/>
	<path class="" d="M45.3,31c-0.8,0.1-1.6,0.3-2.3,0.4c-0.7,0.1-1.3,0.1-2,0.1"/>
</g>
<line class="st1" x1="16.5" y1="60.5" x2="2.5" y2="60.5"/>
</svg>
