<?xml version="1.0" encoding="utf-8"?>
<svg version="1.1" id="autoSVG" xmlns="http://www.w3.org/2000/svg" xmlns:xlink="http://www.w3.org/1999/xlink" x="0px" y="0px"
	 viewBox="0 0 62 61" style="enable-background:new 0 0 62 61;" xml:space="preserve">
<path fill="#53c8e9" d="M31,3.6c-14.9,0-27,12-27,26.9s12.1,26.9,27,26.9s27-12,27-26.9S45.9,3.6,31,3.6z M30.9,54
	c-13,0-23.5-10.5-23.5-23.5S17.9,7,30.9,7c13,0,23.5,10.5,23.5,23.5S43.9,54,30.9,54z M30.9,8C18.5,8,8.4,18.1,8.4,30.5
	C8.4,42.9,18.5,53,30.9,53s22.5-10.1,22.5-22.5C53.4,18.1,43.3,8,30.9,8z M30.8,9.5l3.6,11.7c-1.1-0.2-2.3-0.4-3.5-0.4
	c-1.3,0-2.5,0.1-3.7,0.4L30.8,9.5z M24.8,23c-0.6,0.5-1.1,1-1.5,1.5l-2.7-4.2L24.8,23z M9.9,30.6L21.6,27c-0.2,1.1-0.4,2.3-0.4,3.5
	c0,1.3,0.1,2.5,0.4,3.7L9.9,30.6z M19.5,40.7l7.6-10.9c-0.2,1.2,0.1,2.4,1,3.3c0.9,0.9,2.2,1.3,3.3,1l-10.9,7.6
	C18.6,43.2,18.1,42.7,19.5,40.7z M31,51.5l-3.6-11.7c1.1,0.2,2.3,0.4,3.5,0.4c1.3,0,2.5-0.1,3.7-0.4L31,51.5z M33.6,27.7
	c-0.9-0.9-2.1-1.3-3.3-1l10.9-7.6c2.1-1.5,2.6-1,1.1,1.1l-7.6,10.9C34.9,29.9,34.6,28.7,33.6,27.7z M37,38c0.6-0.5,1.1-1,1.5-1.5
	l2.7,4.2L37,38z M40.2,34c0.2-1.1,0.4-2.3,0.4-3.5c0-1.3-0.1-2.5-0.4-3.7l11.7,3.6L40.2,34z"/>
</svg>
