<?xml version="1.0" encoding="utf-8"?>
<svg version="1.1" id="Layer_1" xmlns="http://www.w3.org/2000/svg" xmlns:xlink="http://www.w3.org/1999/xlink" x="0px" y="0px"
	 viewBox="0 0 53.4 60.7" style="enable-background:new 0 0 53.4 60.7;" xml:space="preserve">
<path fill="#53c8e9" d="M46.4,24.8l-4.1-0.7c-3.8-0.7-7.9-3.9-9.1-7L28.7,5c-1.2-3.3-3-3.6-4.1-0.5l-3.9,11.2c-1.1,3.3-5.1,6.3-9,6.6
	l-4.8,0.5c-3.9,0.4-5.1,3.3-2.8,6.4l3.6,4.5c2.3,2.9,3.2,8.1,1.8,11.7l-3,8.4c-1.3,3.8,0.3,4.7,3.6,2.1l9.8-7.3
	c3.3-2.3,8.7-2.9,12-1.6l8.8,3.3c3.3,1.1,5.2-0.2,4.1-2.9L43.1,43c-1.1-2.8,0-7.2,2.5-9.7l3.5-3.3C51.3,27.8,50.2,25.5,46.4,24.8z
	 M6.3,27c-0.2,0.2-0.6,0.1-0.8-0.2c-0.2-0.3-0.3-0.7,0-0.9s0.6-0.1,0.8,0.2S6.6,26.9,6.3,27z M9.3,54c-0.2,0.4-0.7,0.6-1,0.5
	c-0.3-0.2-0.4-0.7-0.2-1.1c0.2-0.4,0.7-0.6,1-0.5C9.5,53.1,9.5,53.6,9.3,54z M9.2,28.9c-0.6-0.1-1-0.5-0.9-0.9
	c0.1-0.4,0.6-0.6,1.2-0.5c0.6,0.1,1,0.5,0.9,0.9C10.3,28.8,9.8,29,9.2,28.9z M11.4,50.9c-0.5,0-0.9-0.4-0.9-0.8
	c0-0.4,0.4-0.8,0.9-0.8c0.5,0,0.9,0.4,0.9,0.8C12.3,50.5,11.9,50.9,11.4,50.9z M12.4,29.9c0-0.4,0.4-0.7,1-0.7c0.6,0,1,0.3,1,0.7
	s-0.4,0.7-1,0.7C12.8,30.6,12.4,30.3,12.4,29.9z M15,47.1c-0.3,0.5-0.8,0.6-1.2,0.4c-0.4-0.2-0.4-0.8-0.1-1.3
	c0.3-0.5,0.8-0.6,1.2-0.4C15.2,46.1,15.3,46.6,15,47.1z M18.7,43.2c-0.3,0.5-0.9,0.7-1.3,0.5c-0.4-0.2-0.4-0.8-0.1-1.4
	c0.3-0.5,0.9-0.7,1.3-0.5C19,42,19,42.6,18.7,43.2z M18.1,33c-0.6,0-1-0.4-1-1c0-0.6,0.4-1,1-1c0.6,0,1,0.4,1,1
	C19.1,32.6,18.7,33,18.1,33z M26.2,7.6c0.4,0,0.7,0.4,0.7,0.9c0,0.5-0.3,0.9-0.7,0.9c-0.4,0-0.7-0.4-0.7-0.9
	C25.5,8,25.8,7.6,26.2,7.6z M26.2,11.7c0.4,0,0.8,0.4,0.8,0.8s-0.4,0.8-0.8,0.8s-0.8-0.4-0.8-0.8S25.8,11.7,26.2,11.7z M26.2,15.6
	c0.5,0,0.9,0.4,0.9,0.9s-0.4,0.9-0.9,0.9s-0.9-0.4-0.9-0.9S25.7,15.6,26.2,15.6z M26.2,20.2c0.6,0,1.1,0.4,1.1,1s-0.5,1-1.1,1
	c-0.6,0-1.1-0.4-1.1-1S25.6,20.2,26.2,20.2z M21.3,39.7c-0.7,0-1.3-0.6-1.3-1.3s0.6-1.3,1.3-1.3s1.3,0.6,1.3,1.3S22,39.7,21.3,39.7z
	 M23.4,33.7c-0.6,0-1-0.5-1-1.2c0-0.7,0.4-1.2,1-1.2c0.6,0,1,0.5,1,1.2C24.4,33.2,24,33.7,23.4,33.7z M25.4,27.8
	c-0.7,0-1.2-0.4-1.2-1c0-0.6,0.5-1,1.2-1c0.7,0,1.2,0.4,1.2,1C26.6,27.4,26.1,27.8,25.4,27.8z M27.9,31.2c0-0.6,0.7-1.1,1.5-1.1
	s1.5,0.5,1.5,1.1c0,0.6-0.7,1.1-1.5,1.1S27.9,31.8,27.9,31.2z M31.2,38.3c-0.4,0.4-1.2,0.3-1.8-0.2s-0.6-1.4-0.2-1.8
	c0.4-0.4,1.2-0.3,1.8,0.2C31.6,37.1,31.6,37.9,31.2,38.3z M33.7,41.7c-0.4,0.4-1.1,0.3-1.6-0.2c-0.5-0.5-0.5-1.2-0.1-1.6
	c0.4-0.4,1.1-0.3,1.6,0.2C34.1,40.6,34.1,41.3,33.7,41.7z M34.4,31.1c-0.6,0-1-0.4-1-1c0-0.6,0.4-1,1-1c0.6,0,1,0.4,1,1
	C35.4,30.7,35,31.1,34.4,31.1z M36.7,44.8c-0.2,0.3-0.7,0.2-1-0.1c-0.3-0.3-0.4-0.7-0.2-1c0.2-0.3,0.7-0.2,1,0.1
	C36.8,44.1,36.9,44.6,36.7,44.8z M39.6,47.3c-0.2,0.2-0.6,0.2-0.9,0s-0.3-0.7-0.1-0.9c0.2-0.2,0.6-0.2,0.9,0
	C39.8,46.6,39.9,47,39.6,47.3z M38.9,30.3c-0.6,0-1.1-0.3-1.1-0.7s0.5-0.7,1.1-0.7c0.6,0,1.1,0.3,1.1,0.7S39.5,30.3,38.9,30.3z
	 M42.4,48.9c-0.2,0.3-0.6,0.4-0.9,0.2s-0.3-0.6,0-0.9c0.2-0.3,0.6-0.4,0.9-0.2C42.6,48.2,42.6,48.6,42.4,48.9z M43.3,29.2
	c-0.6,0.2-1.1,0-1.2-0.3C42,28.6,42.4,28.2,43,28s1.1,0,1.2,0.3C44.3,28.6,43.9,29,43.3,29.2z M46.5,27.6c-0.3,0.2-0.6,0.1-0.8-0.1
	c-0.1-0.2,0-0.6,0.3-0.7c0.3-0.2,0.6-0.1,0.8,0.1C46.9,27.2,46.8,27.5,46.5,27.6z"/>
</svg>
