<?xml version="1.0" encoding="utf-8"?>
<!-- Generator: Adobe Illustrator 19.0.0, SVG Export Plug-In . SVG Version: 6.00 Build 0)  -->
<svg version="1.1" id="Layer_1" xmlns="http://www.w3.org/2000/svg" xmlns:xlink="http://www.w3.org/1999/xlink" x="0px" y="0px"
	 viewBox="580 -954.3 2120.7 2468.3" style="enable-background:new 580 -954.3 2120.7 2468.3;" xml:space="preserve">
<style type="text/css">
	.dots{fill:#FFFFFF;}
	.star{fill:#FFC95F;}
</style>
<g id="Layer_1_2_">
	<path class="dots" d="M2528.8,52.3l-184-31.1C2174.6-9.9,1990.6-153.3,1937-292.4l-202.2-542.7c-53.6-147.7-134.8-161.6-184-22.5
		l-174.5,502c-49.2,147.7-229,282.5-403.5,296.4L757.7-36.7C583.2-18.6,528.7,111,632.4,250.1l161.5,202.2
		c102.8,130.5,143.4,362.9,80.4,524.4l-134.8,376.7c-57.9,170.2,13.8,210.8,161.6,94.2l439.8-327.5
		c147.7-102.8,390.5-130.5,538.3-71.7l394.8,147.7c147.7,49.2,233.3-8.6,184-130.5l-76-197c-49.2-125.3,0-323.1,112.3-434.6
		l155.5-148.6C2749.1,187,2699.9,84.2,2528.8,52.3z"/>
	<path class="star" d="M2528.8,52.3l-184-31.1C2174.6-9.9,1990.6-153.3,1937-292.4l-202.2-542.7c-53.6-147.7-134.8-161.6-184-22.5
		l-174.5,502c-49.2,147.7-229,282.5-403.5,296.4L757.7-36.7C583.2-18.6,528.7,111,632.4,250.1l161.5,202.2
		c102.8,130.5,143.4,362.9,80.4,524.4l-134.8,376.7c-57.9,170.2,13.8,210.8,161.6,94.2l439.8-327.5
		c147.7-102.8,390.5-130.5,538.3-71.7l394.8,147.7c147.7,49.2,233.3-8.6,184-130.5l-76-197c-49.2-125.3,0-323.1,112.3-434.6
		l155.5-148.6C2749.1,187,2699.9,84.2,2528.8,52.3z M735.2,133.5c-4.3,13.8-18.1,22.5-31.1,18.1c-13.8-4.3-18.1-18.1-8.6-36.3
		c4.3-13.8,22.5-22.5,36.3-18.1C744.7,102.4,744.7,119.7,735.2,133.5z M865.6,1357.8c-13.8,18.1-36.3,26.8-49.2,18.1
		c-13.8-8.6-13.8-31.1,0-49.2s36.3-26.8,49.2-18.1C878.6,1317.2,878.6,1339.6,865.6,1357.8z M905.4,219
		c-4.3,13.8-31.1,18.1-53.6,8.6c-22.5-8.6-36.3-26.8-31.1-40.6c4.3-13.8,31.1-18.1,53.6-8.6C896.7,182.7,910.5,200.9,905.4,219z
		 M986.6,1204.8c-13.8,18.1-36.3,22.5-53.6,13.8c-18.1-8.6-18.1-31.1-4.3-49.2s36.3-26.8,53.6-18.1
		C999.5,1165.1,999.5,1187.6,986.6,1204.8z M1013.4,263.1c8.6-18.1,31.1-22.5,53.6-13.8s36.3,26.8,26.8,44.9
		c-8.6,18.1-31.1,22.5-53.6,13.8C1017.7,299.4,1009,276.9,1013.4,263.1z M1130,1048.5c-13.8,18.1-40.6,26.8-57.9,13.8
		c-18.1-8.6-22.5-36.3-8.6-53.6c13.8-18.1,40.6-26.8,57.9-13.8C1143,1007.8,1143,1030.3,1130,1048.5z M1304.5,878.2
		c-13.8,18.1-44.9,26.8-67.4,8.6c-22.5-13.8-31.1-40.6-18.1-63.1c13.8-18.1,44.9-26.8,67.4-8.6
		C1309.7,833.3,1318.4,860.1,1304.5,878.2z M1304.5,389.2c-8.6,26.8-36.3,36.3-63.1,26.8c-22.5-8.6-36.3-36.3-26.8-57.9
		c9.5-21.6,40.6-36.3,63.1-26.8C1304.5,340,1318.4,366.8,1304.5,389.2z M1623.3-722.7c18.1,0,31.1,18.1,31.1,40.6
		s-13.8,40.6-31.1,40.6c-18.1,0-31.1-18.1-31.1-40.6S1605.2-722.7,1623.3-722.7z M1623.3-543.9c18.1,0,36.3,18.1,36.3,40.6
		s-18.1,40.6-36.3,40.6s-36.3-18.1-36.3-40.6C1587.1-525.8,1605.2-543.9,1623.3-543.9z M1623.3-355.5c22.5,0,40.6,18.1,40.6,40.6
		s-18.1,40.6-40.6,40.6s-40.6-18.1-40.6-40.6S1600.9-355.5,1623.3-355.5z M1623.3-162.9c26.8,0,49.2,18.1,49.2,44.9
		c0,22.5-22.5,44.9-49.2,44.9c-26.8,0-49.2-18.1-49.2-44.9C1574.1-144.7,1596.6-162.9,1623.3-162.9z M1403.9,721
		c-31.1,0-57.9-26.8-57.9-57.9s26.8-57.9,57.9-57.9c31.1,0,57.9,26.8,57.9,57.9C1457.5,694.2,1435,721,1403.9,721z M1515.3,487.7
		c-31.1,0-57.9-26.8-57.9-57.9c0-31.1,26.8-57.9,57.9-57.9c31.1,0,57.9,26.8,57.9,57.9C1574.1,460.9,1547.3,487.7,1515.3,487.7z
		 M1623.3,236.3c-31.1,0-57.9-26.8-57.9-57.9c0-31.1,26.8-57.9,57.9-57.9c31.1,0,57.9,26.8,57.9,57.9
		C1681.2,209.5,1654.5,236.3,1623.3,236.3z M1685.6,375.4c0-31.1,26.8-57.9,57.9-57.9c31.1,0,57.9,26.8,57.9,57.9
		c0,31.1-26.8,57.9-57.9,57.9C1713.2,429,1685.6,407.4,1685.6,375.4z M1797.9,662.2c-31.1,0-57.9-26.8-57.9-57.9
		s26.8-57.9,57.9-57.9c31.1,0,57.9,26.8,57.9,57.9C1856.6,635.5,1829.8,662.2,1797.9,662.2z M1986.2,823.8
		c-18.1,18.1-49.2,22.5-71.7,4.3c-18.1-18.1-18.1-44.9,0-63.1s49.2-22.5,71.7-4.3S2004.4,805.7,1986.2,823.8z M1950.8,295
		c-4.3-26.8,8.6-49.2,36.3-53.6c26.8-4.3,49.2,13.8,57.9,36.3c4.3,26.8-8.6,49.2-36.3,53.6C1981.9,340,1955.1,321.8,1950.8,295z
		 M2098.5,931.8c-13.8,13.8-40.6,13.8-57.9-4.3c-18.1-13.8-22.5-36.3-8.6-49.2c13.8-13.8,40.6-13.8,57.9,4.3
		C2107.2,895.5,2107.2,918,2098.5,931.8z M2233.3,1057.1c-13.8,13.8-36.3,8.6-53.6-4.3c-18.1-13.8-22.5-36.3-13.8-49.2
		c13.8-13.8,36.3-8.6,53.6,4.3C2237.7,1021.7,2246.3,1048.5,2233.3,1057.1z M2206.5,285.5c-22.5,4.3-44.9-4.3-49.2-22.5
		c-4.3-18.1,13.8-36.3,36.3-40.6s44.9,4.3,49.2,22.5C2246.3,263.1,2229,281.2,2206.5,285.5z M2344.8,1138.3
		c-13.8,13.8-26.8,13.8-40.6,8.6c-8.6-8.6-8.6-22.5,4.3-36.3c13.8-13.8,26.8-13.8,40.6-8.6
		C2358.6,1106.3,2358.6,1124.5,2344.8,1138.3z M2399.2,245.8c-22.5,4.3-49.2-4.3-49.2-18.1s13.8-31.1,40.6-36.3
		c22.5-4.3,49.2,4.3,49.2,18.1C2439,227.7,2421.7,240.6,2399.2,245.8z M2555.6,219c-13.8,4.3-26.8-8.6-31.1-22.5
		c-4.3-13.8,4.3-31.1,18.1-31.1c13.8-4.3,26.8,8.6,31.1,22.5C2573.7,200.9,2569.4,213.8,2555.6,219z"/>
</g>
</svg>
