<?xml version="1.0" encoding="utf-8"?>
<svg version="1.1" id="tutSVG" xmlns="http://www.w3.org/2000/svg" xmlns:xlink="http://www.w3.org/1999/xlink" x="0px" y="0px"
	 viewBox="0 0 80.2 70.4" style="enable-background:new 0 0 80.2 70.4;" xml:space="preserve">
<path fill="white" d="M71.7,32.6h-6.5c-0.5-5-2.5-9.6-5.5-13.3l4.6-4.7c1-1,1-2.7,0-3.7s-2.7-1-3.7,0L56,15.6c-3.7-3-8.2-5-13.2-5.5V3.6
	c0-1.4-1.2-2.6-2.6-2.6c-1.4,0-2.6,1.2-2.6,2.6v6.6c-5,0.5-9.5,2.5-13.2,5.5L19.6,11c-1-1-2.7-1-3.7,0s-1,2.7,0,3.7l4.6,4.7
	c-3,3.7-5,8.3-5.5,13.3H8.5c-1.4,0-2.6,1.2-2.6,2.6c0,1.4,1.2,2.6,2.6,2.6H15c0.5,5,2.5,9.6,5.5,13.3l-4.6,4.7c-1,1-1,2.7,0,3.7
	s2.7,1,3.7,0l4.6-4.7c3.7,3,8.2,5,13.2,5.5V67c0,1.4,1.2,2.6,2.6,2.6s2.6-1.2,2.6-2.6v-6.6c5-0.5,9.5-2.5,13.2-5.5l4.6,4.7
	c1,1,2.7,1,3.7,0s1-2.7,0-3.7l-4.6-4.7c3-3.7,5-8.3,5.5-13.3h6.5c1.4,0,2.6-1.2,2.6-2.6C74.3,33.8,73.1,32.6,71.7,32.6z M40,55
	c-10.9,0-19.6-8.8-19.6-19.8c0-10.9,8.8-19.8,19.6-19.8c10.9,0,19.7,8.8,19.7,19.8C59.7,46.2,50.9,55,40,55z M38.5,55l0-39.5l3,0
	l0,39.5L38.5,55z M44.8,35.2c0,2.7-2.2,4.9-4.9,4.9S35,37.9,35,35.2s2.2-4.9,4.9-4.9S44.8,32.5,44.8,35.2z M20.3,36.8l0-3l39.5,0
	l0,3L20.3,36.8z M27.2,50.3l-2.1-2.1L53,20.3l2.1,2.1L27.2,50.3z M53,50.4L25,22.4l2.1-2.1l27.9,27.9L53,50.4z"/>
</svg>
