<svg id="badR-11" xmlns="http://www.w3.org/2000/svg" xmlns:xlink="http://www.w3.org/1999/xlink" viewBox="0 0 450 144">
  <defs>
    <clipPath id="clip-path">
      <path d="M0,69V15A198.59,198.59,0,0,0,40,9.58C54.35,6.08,59.27,3.1,68.88,4.5c11.45,1.66,12,6.95,27.78,11.47,6.89,2,16.67,4.78,28.06,2.53,12.71-2.51,12.8-8.4,22.27-9,11.48-.73,15.92,7.66,32.42,14.72C190.53,29,199.62,29.91,210,31c27.53,2.83,35.77-5.74,63-5.48,17,.17,11.74,3.5,40.09,6.59,30.18,3.29,65.61,7.16,79-8.79,1.88-2.23,6-8.06,12.14-8.3,5.21-.2,8.83,3.78,11.33,5.93,5.83,5,16.42,10,34.42,9.82V69Z" fill="#53c8e9"/>
    </clipPath>
    <symbol id="badR" data-name="badR" viewBox="0 0 450 69">
      <g id="badR-3" data-name="badR">
        <path d="M0,69V15A198.59,198.59,0,0,0,40,9.58C54.35,6.08,59.27,3.1,68.88,4.5c11.45,1.66,12,6.95,27.78,11.47,6.89,2,16.67,4.78,28.06,2.53,12.71-2.51,12.8-8.4,22.27-9,11.48-.73,15.92,7.66,32.42,14.72C190.53,29,199.62,29.91,210,31c27.53,2.83,35.77-5.74,63-5.48,17,.17,11.74,3.5,40.09,6.59,30.18,3.29,65.61,7.16,79-8.79,1.88-2.23,6-8.06,12.14-8.3,5.21-.2,8.83,3.78,11.33,5.93,5.83,5,16.42,10,34.42,9.82V69Z" fill="#53c8e9"/>
        <g clip-path="url(#clip-path)">
          <line x1="64.5" x2="64.5" y2="69" fill="none" stroke="#2095b6" stroke-miterlimit="10"/>
          <line x1="146.5" y1="5" x2="146.5" y2="69" fill="none" stroke="#2095b6" stroke-miterlimit="10"/>
          <line x1="272.5" y1="21" x2="272.5" y2="69" fill="none" stroke="#2095b6" stroke-miterlimit="10"/>
          <line x1="403.5" y1="9" x2="403.5" y2="69" fill="none" stroke="#2095b6" stroke-miterlimit="10"/>
        </g>
      </g>
    </symbol>
  </defs>
  <title>waveOnly</title>
  <use width="450" height="69" transform="translate(0 75)" xlink:href="#badR"/>
</svg>
