<svg id="Layer_1" data-name="Layer 1" xmlns="http://www.w3.org/2000/svg" xmlns:xlink="http://www.w3.org/1999/xlink" viewBox="0 0 480 150">
  <defs>
    <clipPath id="clip-path">
      <path d="M0,78V14.4a97.53,97.53,0,0,0,23.41,2.28,90.61,90.61,0,0,0,21-3.11C53.09,11.16,52.6,9.84,57,9.06c13.72-2.4,18.67,10.4,37,13.16,4.29.64,16.24,2.44,25.63-4.16,8.81-6.19,9-15.32,14.72-15.67,6.87-.42,8.8,12.77,18.3,14,7.52,1,10.74-6.74,18.27-5.5,5.8,1,7.37,6.09,13.06,12.17,12,12.81,29.05,15.61,37.57,17,12.37,2,11.93-1.36,31.12-.18,15.42.95,16.72,3.2,31.63,4.5,15.51,1.36,16-.91,39.65-1,23.06-.07,22,2.08,41.22,1.48,21.88-.69,22.47-3.47,36.54-2C412,44,417.41,46.1,431.06,46.73A145.62,145.62,0,0,0,450,46.4V78Z" fill="#55c8e9"/>
    </clipPath>
    <symbol id="goodR_3" data-name="goodR 3" viewBox="0 0 450 78">
      <g id="goodR">
        <path d="M0,78V14.4a97.53,97.53,0,0,0,23.41,2.28,90.61,90.61,0,0,0,21-3.11C53.09,11.16,52.6,9.84,57,9.06c13.72-2.4,18.67,10.4,37,13.16,4.29.64,16.24,2.44,25.63-4.16,8.81-6.19,9-15.32,14.72-15.67,6.87-.42,8.8,12.77,18.3,14,7.52,1,10.74-6.74,18.27-5.5,5.8,1,7.37,6.09,13.06,12.17,12,12.81,29.05,15.61,37.57,17,12.37,2,11.93-1.36,31.12-.18,15.42.95,16.72,3.2,31.63,4.5,15.51,1.36,16-.91,39.65-1,23.06-.07,22,2.08,41.22,1.48,21.88-.69,22.47-3.47,36.54-2C412,44,417.41,46.1,431.06,46.73A145.62,145.62,0,0,0,450,46.4V78Z" fill="#55c8e9"/>
        <g clip-path="url(#clip-path)">
          <line x1="58.5" y1="6" x2="58.5" y2="78" fill="none" stroke="#2296b7" stroke-miterlimit="10"/>
          <line x1="133.5" x2="133.5" y2="78" fill="none" stroke="#2296b7" stroke-miterlimit="10"/>
          <line x1="170.5" x2="170.5" y2="78" fill="none" stroke="#2296b7" stroke-miterlimit="10"/>
          <line x1="322.5" y1="41" x2="322.5" y2="78" fill="none" stroke="#2296b7" stroke-miterlimit="10"/>
          <line x1="401.5" y1="41" x2="401.5" y2="78" fill="none" stroke="#2296b7" stroke-miterlimit="10"/>
        </g>
      </g>
    </symbol>
    <symbol id="_1" data-name="1" viewBox="0 0 18.67 18">
      <ellipse cx="9.33" cy="9" rx="9.33" ry="9" fill="#fff"/>
      <text transform="translate(6.83 12.97)" font-size="12" fill="#4e4e4e" font-family="Quicksand-Bold, Quicksand" font-weight="700">1</text>
    </symbol>
    <symbol id="_2" data-name="2" viewBox="0 0 18.67 18">
      <ellipse cx="9.33" cy="9" rx="9.33" ry="9" fill="#098b9e"/>
      <text transform="translate(5.67 12.7)" font-size="12" fill="#fff" font-family="Quicksand-Bold, Quicksand" font-weight="700">2</text>
    </symbol>
    <symbol id="_3" data-name="3" viewBox="0 0 18.67 18">
      <ellipse cx="9.33" cy="9" rx="9.33" ry="9" fill="#ffca61"/>
      <text transform="translate(5.67 12.7)" font-size="12" fill="#fff" font-family="Quicksand-Bold, Quicksand" font-weight="700">3</text>
    </symbol>
  </defs>
  <title>Artboard 1</title>
  <rect width="480" height="150" fill="#c7e9f6"/>
  <use id="goodR_3-3" data-name="goodR 3" width="450" height="78" transform="translate(0 67.28) scale(1.07)" xlink:href="#goodR_3"/>
  <use width="18.67" height="18" transform="translate(46.49 41.34) scale(1.34)" xlink:href="#_1"/>
  <use id="_2-3" data-name="2" width="18.67" height="18" transform="translate(124.03 34.56) scale(1.34)" xlink:href="#_2"/>
  <use width="18.67" height="18" transform="translate(166.35 43.43) scale(1.34)" xlink:href="#_3"/>
</svg>
