<svg id="Layer_1" data-name="Layer 1" xmlns="http://www.w3.org/2000/svg" xmlns:xlink="http://www.w3.org/1999/xlink" viewBox="0 0 480 150">
  <defs>
    <clipPath id="clip-path">
      <path d="M0,150.46V92.63a211.94,211.94,0,0,0,42.71-5.78C58,83.11,63.25,79.94,73.5,81.42c12.22,1.77,12.86,7.42,29.65,12.24,7.36,2.11,17.79,5.1,30,2.7,13.57-2.68,13.66-9,23.76-9.6,12.25-.78,17,8.17,34.6,15.71,11.87,5.08,21.57,6.07,32.67,7.21,29.38,3,38.18-6.13,67.21-5.84,18.15.18,12.53,3.73,42.79,7,32.21,3.51,70,7.64,84.33-9.38,2-2.38,6.43-8.6,13-8.85,5.56-.21,9.3,4,12,6.32,6.22,5.33,17.53,10.69,36.61,10.48v41Z" fill="#55c8e9"/>
    </clipPath>
    <symbol id="_1" data-name="1" viewBox="0 0 18.67 18">
      <ellipse cx="9.33" cy="9" rx="9.33" ry="9" fill="#fff"/>
      <text transform="translate(6.83 12.97)" font-size="12" fill="#4e4e4e" font-family="Quicksand-Bold, Quicksand" font-weight="700">1</text>
    </symbol>
    <symbol id="_2" data-name="2" viewBox="0 0 18.67 18">
      <ellipse cx="9.33" cy="9" rx="9.33" ry="9" fill="#098b9e"/>
      <text transform="translate(5.67 12.7)" font-size="12" fill="#fff" font-family="Quicksand-Bold, Quicksand" font-weight="700">2</text>
    </symbol>
    <symbol id="_3" data-name="3" viewBox="0 0 18.67 18">
      <ellipse cx="9.33" cy="9" rx="9.33" ry="9" fill="#ffca61"/>
      <text transform="translate(5.67 12.7)" font-size="12" fill="#fff" font-family="Quicksand-Bold, Quicksand" font-weight="700">3</text>
    </symbol>
  </defs>
  <title>Artboard 1</title>
  <rect width="480" height="150" fill="#c7e9f6"/>
  <g id="badR">
    <path d="M0,150.46V92.63a211.94,211.94,0,0,0,42.71-5.78C58,83.11,63.25,79.94,73.5,81.42c12.22,1.77,12.86,7.42,29.65,12.24,7.36,2.11,17.79,5.1,30,2.7,13.57-2.68,13.66-9,23.76-9.6,12.25-.78,17,8.17,34.6,15.71,11.87,5.08,21.57,6.07,32.67,7.21,29.38,3,38.18-6.13,67.21-5.84,18.15.18,12.53,3.73,42.79,7,32.21,3.51,70,7.64,84.33-9.38,2-2.38,6.43-8.6,13-8.85,5.56-.21,9.3,4,12,6.32,6.22,5.33,17.53,10.69,36.61,10.48v41Z" fill="#55c8e9"/>
    <g clip-path="url(#clip-path)">
      <line x1="68.5" y1="77.46" x2="68.5" y2="150.46" fill="none" stroke="#2296b7" stroke-miterlimit="10"/>
      <line x1="156.5" y1="82.46" x2="156.5" y2="150.46" fill="none" stroke="#2296b7" stroke-miterlimit="10"/>
      <line x1="290.5" y1="99.46" x2="290.5" y2="150.46" fill="none" stroke="#2296b7" stroke-miterlimit="10"/>
      <line x1="430.5" y1="86.46" x2="430.5" y2="150.46" fill="none" stroke="#2296b7" stroke-miterlimit="10"/>
    </g>
  </g>
  <use width="18.67" height="18" transform="translate(56.65 46.01) scale(1.34)" xlink:href="#_1"/>
  <use id="_2-3" data-name="2" width="18.67" height="18" transform="translate(145.72 51.95) scale(1.34)" xlink:href="#_2"/>
  <use width="18.67" height="18" transform="translate(277.87 69.05) scale(1.34)" xlink:href="#_3"/>
</svg>
