<?xml version="1.0" encoding="utf-8"?>
<!-- Generator: Adobe Illustrator 19.2.1, SVG Export Plug-In . SVG Version: 6.00 Build 0)  -->
<svg version="1.1" id="Layer_1" xmlns="http://www.w3.org/2000/svg" xmlns:xlink="http://www.w3.org/1999/xlink" x="0px" y="0px"
	 viewBox="0 0 250 250" style="enable-background:new 0 0 250 250;" xml:space="preserve">
<style type="text/css">
	.st0{fill:#FFFFFF;stroke:#E5C68E;stroke-width:0.2854;stroke-miterlimit:10;}
	.st1{fill:#F2F2F2;}
	.st2{fill:#E6E6E6;}
	.st3{fill:#FFECCB;stroke:#E5C68E;stroke-width:0.2854;stroke-miterlimit:10;}
</style>
<path class="st0" d="M33.9,103.6c9-13,17.1-24.9,33.6-35.4C80,60.2,91.2,56.9,94.2,56c13.5-3.8,25.2-3.9,32.4-3.4
	c21.8-4.8,36.6,0.1,42.2,2.3c12.9,5.1,21,13.7,31.2,24.6c6.1,6.5,10.6,11.2,14.9,18.6c0,0,16.2,27.7,7,64.3
	c-1.9,7.5-5.1,13.8-5.1,13.8s-2.5,5-5.9,9.7c-11.6,16.1-96.2,61-112.8,42.3c-3.6-4-3.4-10.4-9.3-12.3c-6.1-2-9.8,3.7-17.2,4
	c-6.9,0.3-10.7-4.4-36.6-39.9c-5.8-7.9-9.5-13.1-7.7-19c2.2-7.5,11.7-11,10.4-14.8c-1.1-3.1-7.8-1.4-11.9-5.7
	c-3.4-3.6-2.8-8.9-2.2-13.4C25.1,117.1,29.8,109.4,33.9,103.6z"/>
<g>
	<path class="st1" d="M107.6,160.4c4.5-6,11.6-15.3,14.1-14.3c2.9,1.1-0.3,15.3-7,27.1c-8.9,15.6-24.4,28.1-27.5,26.2
		C83.5,197.1,96.7,174.8,107.6,160.4z"/>
	<path class="st2" d="M107.3,160.3c0,0,0.3-0.4,0.9-1.2c0.6-0.8,1.4-2,2.4-3.5c1-1.6,2.2-3.4,3.7-5.6c0.7-1.1,1.5-2.2,2.6-3.4
		c0.5-0.6,1.1-1.2,1.9-1.8c0.4-0.3,0.9-0.6,1.6-0.8c0.2-0.1,0.4-0.1,0.6-0.1c0.2,0,0.5,0,0.8,0c0.1,0,0.3,0,0.4,0.1l0.2,0.1l0.1,0
		c-0.2-0.1,0.4,0.2,0.4,0.2c0.1,0.1,0.1,0.1,0.3,0.1c0.3,0.2,0.6,0.5,0.9,0.7c0.1,0.2,0.3,0.4,0.4,0.6c0.2,0.3,0.4,0.7,0.4,1
		c0.2,0.6,0.3,1.2,0.4,1.7c0.1,1,0.1,2,0,2.9c-0.2,1.9-0.6,3.7-1.1,5.5c-1.1,3.6-2.8,7.1-4.8,10.6c-2,3.5-4.2,6.9-6.4,10.4
		c-2.3,3.5-4.7,7-7.2,10.4c-2.6,3.4-5.4,6.7-8.7,9.5c-1.7,1.4-3.4,2.7-5.5,3.8c-0.5,0.3-1.2,0.5-1.8,0.7c-0.2,0.1-0.4,0.1-0.6,0.1
		l-0.3,0.1l-0.4,0c-0.5,0-1.1,0-1.8-0.2c-0.2-0.1-0.4-0.2-0.6-0.2l-0.1-0.1c-0.2-0.2,0.3,0.3-0.6-0.4l-0.1-0.1l-0.1-0.1l-0.1-0.1
		c0,0,0,0-0.1-0.1l-0.1-0.2c-0.3-0.4-0.6-0.9-0.8-1.4c-0.1-0.3-0.1-0.5-0.2-0.8c-0.1-0.3-0.1-0.5-0.1-0.7c0-0.2,0-0.4,0-0.6
		c0-0.3,0-0.7,0.1-1.1c0.2-1.3,0.5-2.3,0.8-3.4c0.3-1,0.7-2,1.1-2.9c0.8-1.8,1.7-3.5,2.6-5.1c1.8-3.2,3.7-6.1,5.6-8.6
		c1.9-2.5,3.9-4.7,5.6-6.7c1.7-1.9,3.2-3.6,4.4-5c1.2-1.4,2.1-2.5,2.7-3.3C107,160.7,107.3,160.3,107.3,160.3z M107.8,160.6
		c0,0-0.3,0.4-0.9,1.2c-0.6,0.8-1.4,2-2.3,3.5c-0.9,1.6-2,3.5-3.1,5.8c-1.1,2.3-2.3,4.9-3.6,7.8c-1.3,2.8-2.9,5.8-4.4,8.9
		c-0.8,1.6-1.5,3.2-2.2,4.8c-0.7,1.6-1.4,3.3-1.7,4.7l-0.1,0.4c0,0,0,0.1,0,0.1c0,0,0,0.1,0,0c0,0,0-0.1,0-0.1
		c-0.1-0.2-0.2-0.5-0.5-0.7l-0.1-0.1c0,0-0.1,0,0,0l0.1,0.1l0.1,0.1l0.1,0.1l-0.5-0.4l-0.1,0c-0.1,0-0.2-0.1-0.2-0.1
		c-0.6-0.1-0.4,0-0.2-0.1c0.3-0.1,0.6-0.2,1-0.3c1.5-0.6,3.2-1.7,4.7-2.8c1.6-1.1,3.2-2.3,4.8-3.6c1.6-1.3,3.2-2.6,4.7-4
		c3-2.8,5.8-5.9,8.1-9.2c0.6-0.8,1.1-1.7,1.6-2.6l0.7-1.3l0.7-1.3c0.8-1.8,1.5-3.6,2.1-5.5c1.2-3.7,2-7.3,2.7-10.6
		c0.4-1.7,0.7-3.3,0.9-4.8c0.1-0.7,0.2-1.5,0.2-2c0-0.3,0-0.6,0-0.7c0-0.1,0-0.1,0-0.1c0,0,0,0.1,0.1,0.1c0.1,0.1,0.3,0.3,0.4,0.3
		c0,0-0.1-0.1-0.2-0.1c-0.1,0,0.5,0.3,0.3,0.1l0,0l0.1,0c0.1,0,0.1,0,0.2,0c0.1,0,0.1,0,0.2,0c0,0,0,0,0,0c0,0-0.3,0-0.5,0.1
		c-0.5,0.2-1.1,0.5-1.6,0.9c-1.1,0.7-2.1,1.6-3.1,2.4c-1.9,1.6-3.5,3.2-4.7,4.6c-1.2,1.4-2.1,2.5-2.7,3.2
		C108.1,160.2,107.8,160.6,107.8,160.6z"/>
</g>
<g>
	<path class="st1" d="M167.6,181.3c-13.8-8-20.8-12.2-27.6-19.6c-4.6-5.1-11-12.2-9.1-14.5c3.2-3.8,29,4.8,43.6,22.8
		c5.3,6.6,10.5,16.1,8.2,17.9C182,188.4,180.4,188.7,167.6,181.3z"/>
	<path class="st2" d="M167.5,181.5c0,0-0.5-0.3-1.4-0.8c-0.9-0.5-2.2-1.2-3.9-2.1c-1.7-0.9-3.9-1.8-6.3-2.9
		c-2.5-1.1-5.3-2.4-8.2-4.2c-2.9-1.8-5.8-4.1-8.4-7.1c-0.3-0.4-0.6-0.7-1-1.1c-0.3-0.4-0.6-0.8-0.9-1.1c-0.6-0.8-1.2-1.6-1.8-2.4
		c-1.2-1.6-2.4-3.3-3.5-5.2c-0.5-0.9-1.1-1.9-1.6-2.9c-0.4-1-1-2.1-0.9-3.6c0-0.4,0.1-0.8,0.3-1.2c0-0.1,0.1-0.2,0.2-0.3l0.1-0.1
		c-0.1,0.1,0.2-0.2,0.1-0.2l0,0l0.3-0.3c0.3-0.2,0.8-0.5,1.1-0.5l0.5-0.1l0.5-0.1c1.2-0.1,2.3,0,3.5,0.1c4.4,0.6,8.7,1.9,12.9,3.4
		c4.2,1.5,8.4,3.3,12.2,5.7c3.8,2.4,7.3,5,10.5,7.9c3.2,2.9,5.9,6.2,8,9.4c2.1,3.3,3.9,6.6,4.9,10.1c0.2,0.9,0.5,1.8,0.5,2.8
		c0,0.5,0.1,1,0,1.6c-0.1,0.6-0.2,1.3-0.7,2c-0.2,0.4-0.6,0.7-1,0.9l-0.1,0l-0.2,0.1c-0.1,0.1-0.3,0.1-0.4,0.2
		c-0.2,0-0.5,0.1-0.6,0.1c-0.8,0-1.1-0.2-1.6-0.3c-0.8-0.3-1.4-0.7-2-1c-2.4-1.4-4.3-2.8-5.9-3.8c-1.6-1-2.9-1.8-3.8-2.4
		C167.9,181.8,167.5,181.5,167.5,181.5z M167.8,181c0,0,0.5,0.3,1.4,0.8c0.9,0.5,2.2,1.2,4,2c1.7,0.8,3.9,1.7,6.4,2.4
		c0.6,0.2,1.3,0.3,1.8,0.4c0.3,0,0.6,0,0.6-0.1c0,0-0.1,0-0.1,0c0,0-0.1,0-0.2,0.1c0,0-0.1,0-0.1,0.1c0,0,0,0,0,0
		c-0.1,0-0.2,0.1-0.2,0.1c-0.1,0.1-0.1,0-0.1-0.2c0-0.2-0.1-0.4-0.2-0.7c-0.2-0.6-0.5-1.2-0.8-1.8c-1.4-2.6-3.2-5.5-5.4-8.4
		c-2.1-2.9-4.5-5.8-7.2-8.6c-2.7-2.8-5.8-5.5-9.2-8c-1.7-1.2-3.4-2.5-5.2-3.6c-1.8-1.2-3.6-2.4-5.4-3.4c-3.7-2.1-7.8-3.9-11.9-4.5
		c-1-0.1-2.1-0.2-3-0.1c-0.5,0-0.9,0.3-1,0.3l-0.3,0.3l0,0c0,0,0.2-0.2,0.1-0.1l0,0c0,0,0,0,0,0.1c0,0.1,0,0.2,0,0.4
		c0.1,0.7,0.5,1.6,1.1,2.3c0.6,0.8,1.2,1.6,1.9,2.3c1.3,1.5,2.8,2.8,4.2,4.2c0.7,0.7,1.4,1.3,2.1,2c0.7,0.7,1.3,1.3,2,2
		c2.6,2.5,5.1,4.8,7.5,6.9c2.4,2.1,4.7,4.1,6.8,5.8c2.1,1.7,3.9,3.1,5.5,4.2c1.6,1.1,2.9,1.9,3.7,2.4
		C167.3,180.7,167.8,181,167.8,181z"/>
</g>
<g>
	<path class="st1" d="M160.3,130.7c-10.2,5-24.7,9.1-26.8,5.9c-1.9-2.9,5.9-11.8,15.1-16.4c4.7-2.3,6.1-1.7,16.6-4.7
		c14-4.1,18.5-7.2,19.4-6C186.1,111.3,175.3,123.3,160.3,130.7z"/>
	<path class="st2" d="M160.4,130.9c0,0-0.4,0.2-1.2,0.6c-0.8,0.4-2,1-3.5,1.8c-1.5,0.8-3.4,1.7-5.5,2.8c-2.1,1.1-4.6,2.3-7.5,3.2
		c-1.5,0.4-3,0.8-4.8,0.9c-0.9,0.1-1.8,0.1-2.9-0.1c-0.6-0.1-1.2-0.3-1.8-0.6c-0.6-0.3-1.5-1-2-1.9l-0.1-0.2
		c-0.1-0.1-0.1-0.3-0.2-0.5c0-0.2-0.1-0.3-0.1-0.5c0-0.1,0-0.2,0-0.3c-0.1-0.5,0-0.8,0-1.2c0.1-0.7,0.3-1.3,0.5-1.8
		c0.5-1,1-1.8,1.6-2.6c1.2-1.5,2.6-2.8,4.1-3.9c3-2.3,6.1-4.4,9.5-6.3c0.8-0.5,1.7-1,2.6-1.4c0.9-0.5,1.8-0.9,2.8-1.2
		c0.9-0.4,1.9-0.7,2.8-1l2.7-0.9c3.6-1.2,7.1-2.7,10.6-3.9c3.5-1.3,6.9-2.6,10.1-4c0.8-0.3,1.6-0.7,2.5-1c0.5-0.2,0.9-0.3,1.5-0.5
		c0.3-0.1,0.6-0.2,1-0.2c0.4,0,1-0.2,2.1,0.2c0.2,0.1,0.5,0.2,0.8,0.4c0.3,0.2,0.6,0.4,0.8,0.7c0,0,0.7,1,0.4,0.6l0,0l0,0.1l0,0.1
		c0,0.1,0.1,0.3,0.2,0.4c0.1,0.3,0.2,0.7,0.2,1l0,0.2l0,0.1l0,0.2c0,0.3-0.1,0.6-0.1,0.8c-0.2,0.9-0.5,1.4-0.8,1.9
		c-0.6,1-1.1,1.7-1.7,2.5c-2.4,2.8-4.8,4.9-7.3,6.6c-2.5,1.7-4.9,2.9-7.1,4c-2.1,1-4,1.9-5.6,2.7
		C162.1,130.1,160.4,130.9,160.4,130.9z M160.2,130.4c0,0,0.4-0.2,1.2-0.6c0.8-0.4,1.9-1.1,3.3-2.1c1.4-1,3-2.2,4.6-3.9
		c1.7-1.6,3.5-3.5,5.4-5.6c1.9-2.1,4-4.2,5.7-6.6c0.4-0.6,0.8-1.2,1.1-1.7c0.1-0.2,0.2-0.5,0.2-0.4c0,0,0,0.1,0,0.2l0,0.3
		c0,0.2,0.1,0.5,0.2,0.7c0,0.1,0.1,0.3,0.1,0.3l0-0.1l0-0.1l0,0c-0.3-0.4,0.4,0.5,0.3,0.5c0.1,0.2,0.4,0.4,0.5,0.5
		c0.2,0.1,0.4,0.2,0.5,0.3c0.7,0.2,0.7,0.1,0.8,0.1c0,0-0.1,0-0.3,0.1c-0.3,0.1-0.6,0.2-1,0.3c-0.8,0.3-1.6,0.6-2.5,0.9
		c-3.4,1.2-7.1,2.3-10.8,3.3c-1.9,0.5-3.7,0.9-5.7,1.3c-1.9,0.3-3.9,0.6-5.8,0.9c-1.9,0.3-3.9,0.5-5.6,0.8c-0.9,0.2-1.8,0.5-2.6,0.8
		c-0.9,0.4-1.7,0.8-2.5,1.2c-3.2,1.8-6,4.3-8.2,7c-1.1,1.4-2,2.8-2.7,4.1c-0.3,0.7-0.6,1.4-0.8,1.9c-0.1,0.3-0.1,0.5-0.1,0.6
		c0,0,0,0.1,0,0c0,0,0,0,0,0c0-0.1,0-0.1,0-0.2c0-0.1,0-0.1-0.1-0.2l0.1,0.1c-0.1-0.2-0.3-0.3-0.2-0.3c0,0,0.1,0,0.2,0
		c0.1,0,0.2,0,0.3,0.1c0.5,0.1,1.1,0.1,1.8,0.1c1.3,0,2.7-0.2,4.1-0.3c2.7-0.3,5.3-0.6,7.6-1c2.3-0.4,4.3-0.9,5.9-1.4
		c1.6-0.5,2.8-1,3.6-1.4C159.7,130.6,160.2,130.4,160.2,130.4z"/>
</g>
<g>
	<path class="st1" d="M130.1,117.8c-1.5,7.2-6.2,15-9.3,14.6c-4.8-0.6-6.2-19.9-6.3-21.3c-0.2-2.3-0.1-2.6-0.1-9.1
		c-0.1-18.2-0.9-20.2,0.1-20.6C117.8,80.2,134.1,99,130.1,117.8z"/>
	<path class="st2" d="M130.4,117.9c0,0-0.1,0.4-0.3,1.2c-0.1,0.4-0.3,0.9-0.4,1.5c-0.2,0.6-0.4,1.2-0.7,2c-0.5,1.5-1.3,3.2-2.3,5.2
		c-0.5,1-1.1,2-1.9,3c-0.2,0.3-0.4,0.5-0.6,0.7c-0.2,0.3-0.5,0.5-0.7,0.7c-0.5,0.5-1.2,0.9-2.1,1.1l-0.4,0l-0.2,0l-0.1,0l0,0
		c0.1,0-0.2,0-0.1,0c-0.2,0-0.3,0-0.5-0.1c-0.6-0.2-0.9-0.5-1.3-0.7c-0.7-0.6-1.1-1.2-1.5-1.9c-0.8-1.4-1.3-2.8-1.8-4.3
		c-0.9-3-1.5-6.2-2.1-9.5c-0.3-1.7-0.5-3.4-0.7-5.1c-0.1-0.9-0.2-1.8-0.2-2.7c0-0.9,0-1.7-0.1-2.6c-0.1-3.5-0.2-7-0.4-10.5
		c-0.2-3.5-0.4-7-0.7-10.5c-0.1-0.9-0.1-1.7-0.1-2.9c0-0.3,0-0.7,0.2-1.3c0.1-0.2,0.1-0.4,0.2-0.6c0.1-0.2,0.3-0.5,0.5-0.7
		c0.2-0.3,0.5-0.4,0.7-0.6c0.1-0.1,0.3-0.2,0.4-0.2c0,0,1-0.3,0.6-0.2l0,0l0.2,0l0.1,0l0,0l0.2,0c0.4,0,0.8,0,1.3,0.1
		c0.3,0,0.3,0.1,0.4,0.1l0.3,0.1c0.2,0.1,0.4,0.1,0.5,0.2c1.3,0.6,2.1,1.2,2.8,1.8c0.8,0.6,1.4,1.3,2.1,1.9c2.5,2.7,4.4,5.5,5.8,8.4
		c1.5,2.9,2.4,5.8,3,8.5c0.6,2.7,0.8,5.3,0.8,7.5c0.1,2.2-0.1,4.2-0.3,5.7c-0.2,1.6-0.4,2.8-0.6,3.6
		C130.5,117.4,130.4,117.9,130.4,117.9L130.4,117.9z M129.9,117.7c0,0,0.1-0.4,0.2-1.2c0.1-0.4,0.1-0.9,0.1-1.5c0.1-0.6,0.1-1.3,0-2
		c0-1.5-0.3-3.4-0.8-5.4c-0.5-2-1.4-4.3-2.5-6.6c-1.1-2.3-2.5-4.7-4-7.1c-1.5-2.4-3.3-4.9-5.3-7.1c-0.5-0.5-1-1.1-1.5-1.5
		c-0.5-0.5-1.1-0.9-1.4-1c-0.1,0,0,0,0,0c0,0,0,0,0,0c0,0,0,0,0.1,0c0.2,0,0.4,0,0.6,0l0.1,0l0,0l-0.1,0l-0.2,0l0,0
		c-0.5,0.1,0.6-0.2,0.5-0.2c0.1,0,0.2-0.1,0.3-0.1c0.2-0.1,0.3-0.2,0.5-0.4c0.1-0.1,0.1-0.2,0.2-0.3c0.1-0.1,0.1-0.2,0.1-0.2
		c0.1-0.1,0.1-0.2,0.1-0.3c0.1-0.2,0-0.2,0-0.1c-0.1,0.5-0.1,1.5-0.1,2.3c0,3.5-0.1,7-0.1,10.6c0,3.6-0.1,7.1-0.2,10.6
		c0,0.9,0,1.7-0.1,2.6c0,0.8,0,1.6,0,2.5c0.1,1.7,0.2,3.3,0.3,5c0.3,3.3,0.7,6.4,1.3,9.3c0.3,1.4,0.7,2.8,1.2,4
		c0.3,0.6,0.6,1.1,0.9,1.5c0.1,0.1,0.2,0.2,0.3,0.3c0.1,0.1,0.1,0.1,0.2,0.2c0.1,0.1,0.3,0.1,0.4,0.2c0,0-0.2,0-0.1,0l0,0l0,0l0.1,0
		l0.1,0c0.4,0,0.9-0.2,1.4-0.5c0.2-0.1,0.5-0.3,0.7-0.5c0.2-0.2,0.4-0.4,0.6-0.6c0.8-0.8,1.5-1.7,2.1-2.6c1.2-1.8,2-3.5,2.5-4.9
		c0.6-1.4,0.9-2.6,1.1-3.4C129.8,118.2,129.9,117.7,129.9,117.7L129.9,117.7z"/>
</g>
<g>
	<path class="st1" d="M84.6,136.3c15.6-4,31.3-0.4,31.2,3c-0.1,3.8-20.4,8.8-31.3,10.3c-3.2,0.4-1.7,0-17.6,1.5
		c-6.6,0.6-8.1,0.8-8.3,0.1C58.1,149,70.7,139.8,84.6,136.3z"/>
	<path class="st2" d="M84.5,136c0,0,0.5-0.1,1.3-0.3c0.9-0.2,2.2-0.5,3.8-0.9c1.7-0.4,3.7-0.9,6-1.4c2.4-0.5,5.1-0.9,8.1-0.9
		c3,0,6.3,0.4,9.8,1.9c0.9,0.4,1.8,0.9,2.8,1.7c0.5,0.5,1.1,1,1.4,2.2c0.1,0.3,0.1,0.6,0.1,0.9c0-0.3,0,0.5,0,0.4l0,0l0,0.1l0,0.2
		c0,0.3-0.6,1.3-0.7,1.4c-0.1,0.1-0.3,0.3-0.4,0.4l-0.4,0.3c-0.3,0.2-0.5,0.3-0.7,0.5c-0.5,0.3-0.9,0.5-1.4,0.7
		c-0.9,0.4-1.8,0.7-2.7,1c-1.8,0.6-3.6,1-5.5,1.4c-1.8,0.4-3.7,0.9-5.5,1.4c-3.7,1-7.4,2.1-11.1,3.2c-1.9,0.5-3.8,1-5.7,1.5
		c-2.1,0.4-3.9,0.6-5.8,0.8c-3.7,0.5-7.4,0.9-11,1.4c-1.8,0.2-3.5,0.4-5.4,0.6c-0.5,0-0.9,0.1-1.5,0.1c-0.3,0-0.6,0-0.9,0
		c-0.2,0-0.3,0-0.6-0.1c-0.1,0-0.3-0.1-0.4-0.1c-0.2-0.1-0.4-0.1-0.6-0.2c-0.2-0.1-0.6-0.3-0.9-0.6c-0.3-0.3-0.6-0.7-0.8-1.1
		c-0.1-0.2-0.2-0.4-0.2-0.6c0,0.4-0.1-0.9-0.1-0.7l0,0l0-0.2c0-0.2,0-0.5,0.1-0.8c0-0.1,0.1-0.3,0.1-0.4l0.1-0.2l0-0.1
		c0.1-0.2,0.2-0.5,0.3-0.7c0.4-0.7,0.8-1.1,1.2-1.5c0.7-0.8,1.4-1.3,2.1-1.9c0.7-0.5,1.4-1,2.1-1.5c1.4-0.9,2.8-1.6,4.2-2.3
		c2.7-1.3,5.4-2.1,7.7-2.8c2.3-0.7,4.3-1.2,6-1.6C82.6,136.5,84.5,136,84.5,136z M84.6,136.6c0,0-0.5,0.1-1.3,0.4
		c-0.9,0.3-2.1,0.7-3.6,1.4c-1.5,0.7-3.3,1.7-5.3,3c-1.9,1.3-4,2.9-6.2,4.6c-1.1,0.9-2.2,1.8-3.4,2.7c-1.1,0.9-2.3,1.9-3.1,2.9
		c-0.2,0.2-0.3,0.4-0.4,0.5c0,0,0-0.1,0.1-0.1l0.1-0.2c0-0.1,0.1-0.2,0.1-0.3c0-0.2,0-0.4,0-0.5l0,0.2l0,0c0,0.2-0.1-1-0.1-0.7
		c0-0.2-0.1-0.3-0.2-0.5c-0.1-0.3-0.4-0.6-0.6-0.8c-0.2-0.2-0.4-0.3-0.6-0.4c-0.1-0.1-0.2-0.1-0.3-0.1c0,0-0.1,0-0.1,0
		c-0.1,0,0,0,0,0c0.1,0,0.2,0,0.4,0c0.3,0,0.7,0,1.1-0.1c1.6-0.1,3.4-0.3,5.2-0.4c3.6-0.2,7.3-0.4,11.2-0.5c1,0,1.9,0,2.9,0
		c1,0,1.9,0,2.8,0c1.8,0,3.8-0.2,5.7-0.3c3.8-0.3,7.6-0.9,11.3-1.8c3.6-0.9,7.2-2.3,10.2-4c0.8-0.4,1.5-0.9,2.1-1.4
		c0.6-0.4,1.2-1,1.3-1.3l0,0c0,0-0.1,0.1-0.1,0.1c0,0.1,0,0.1-0.1,0.2c0,0,0,0.1,0,0.1c0,0,0,0,0-0.1l0-0.2l0-0.1l0,0
		c0-0.1-0.1,0.6,0,0.4c0,0.1,0,0.2,0,0.3c0.1,0.4,0.1,0.2-0.1,0.2c-0.3-0.2-1-0.5-1.6-0.7c-2.7-0.9-5.6-1.4-8.3-2
		c-2.7-0.5-5.3-1-7.6-1.2c-2.3-0.2-4.4-0.3-6-0.1c-1.7,0.1-3,0.4-3.8,0.5C85.1,136.5,84.6,136.6,84.6,136.6z"/>
</g>
<ellipse transform="matrix(0.9793 -0.2024 0.2024 0.9793 -33.7627 19.582)" class="st3" cx="78.9" cy="174.9" rx="11.2" ry="2.6"/>
<path class="st3" d="M106.8,67.4c-2-4.1-2.1-8-0.3-8.9c1.9-0.8,5.1,1.8,7.1,5.8c2,4.1,2.1,8,0.3,8.9C112,74,108.8,71.4,106.8,67.4z"
	/>
</svg>
