<?xml version="1.0" encoding="utf-8"?>
<!-- Generator: Adobe Illustrator 19.2.1, SVG Export Plug-In . SVG Version: 6.00 Build 0)  -->
<svg version="1.1" id="Layer_1" xmlns="http://www.w3.org/2000/svg" xmlns:xlink="http://www.w3.org/1999/xlink" x="0px" y="0px"
	 viewBox="0 0 250 250" style="enable-background:new 0 0 250 250;" xml:space="preserve">
<style type="text/css">
	.st0{fill:#FFFFFF;stroke:#E5C68E;stroke-width:0.3;stroke-miterlimit:10;}
	.st1{fill:#F2F2F2;}
	.st2{fill:#E6E6E6;}
	.st3{fill:#FFECCB;stroke:#E5C68E;stroke-width:0.3;stroke-miterlimit:10;}
</style>
<path class="st0" d="M218.1,85.3c4.8,15.9,9.3,30.4,6.9,50.1c-1.8,15-6.6,25.6-8,28.5c-6,12.7-13.9,21.4-19.2,26.4
	c-10.8,19.5-25,27-30.6,29.6c-13.1,5.9-25.8,5.8-41.9,5.6c-9.6-0.1-16.6-0.2-25.7-2.2c0,0-34.3-7.8-58.7-40.7
	c-5-6.7-8.2-13.6-8.2-13.6s-2.5-5.4-4.1-11.3C22.9,137.6,42.8,43,69.8,44.1c5.8,0.2,11,4.9,16.6,1.9c5.8-3.1,3.6-9.9,8.3-15.6
	c4.4-5.3,11-4.7,58.4,1.4c10.5,1.4,17.4,2.3,21.2,7.8c4.8,7,1.3,16.5,5.4,18.2c3.3,1.4,6.4-4.8,12.9-4.7c5.4,0,9.4,4.3,12.7,8
	C212.7,69.3,215.9,78.2,218.1,85.3z"/>
<g>
	<path class="st1" d="M120.3,99.3c1.9,7.6,5,19.5,2.4,20.6c-2.9,1.3-12.6-11.1-17.9-24.5c-7-17.7-7-38.1-3.3-39
		C105.8,55.4,115.6,81,120.3,99.3z"/>
	<path class="st2" d="M120.6,99.3c0,0,0.1,0.5,0.4,1.5c0.3,1,0.7,2.5,1.3,4.3c0.6,1.9,1.3,4.1,2.2,6.7c0.4,1.3,0.8,2.7,1.1,4.4
		c0.1,0.8,0.2,1.7,0.1,2.8c-0.1,0.6-0.2,1.2-0.8,2.1c-0.2,0.2-0.4,0.4-0.6,0.6c-0.1,0.1-0.3,0.2-0.4,0.3l-0.2,0.1l-0.4,0.1l-0.1,0.1
		l-0.1,0l-0.3,0.1c-0.2,0-0.4,0.1-0.6,0.1c-0.2,0-0.4,0-0.5,0c-1-0.1-1.5-0.4-2.1-0.6c-0.5-0.3-1-0.6-1.4-0.9
		c-0.8-0.6-1.6-1.3-2.3-2c-1.4-1.4-2.6-2.9-3.7-4.5c-2.2-3.2-4-7-5.5-10.9c-1.6-3.9-3-8-4.4-12.1c-1.4-4.2-2.7-8.4-3.9-12.8
		c-1.1-4.4-2-8.8-2.1-13.4c0-1.1,0-2.3,0.1-3.5c0.1-1.2,0.2-2.4,0.6-3.7c0.2-0.7,0.4-1.3,0.8-2.1c0.2-0.4,0.5-0.9,1-1.3
		c0.3-0.2,0.5-0.5,0.9-0.7c0.2-0.1,0.4-0.2,0.6-0.3l0.3-0.1c0,0,1.1-0.2,0.6-0.1l0,0l0.2,0l0.1,0l0.1,0l0.2,0c0.5,0,1.1,0.1,1.5,0.3
		c0.3,0.1,0.5,0.2,0.8,0.4l0.4,0.2l0.3,0.2c0.4,0.3,0.7,0.5,0.9,0.8c0.3,0.3,0.5,0.5,0.7,0.8c0.9,1,1.5,1.9,2.1,2.9
		c0.6,0.9,1.1,1.9,1.6,2.8c1,1.9,1.8,3.7,2.5,5.5c1.5,3.6,2.6,7,3.4,10.3c0.8,3.3,1.3,6.3,1.8,9c0.5,2.7,0.9,5,1.3,6.9
		c0.4,1.9,0.7,3.4,1,4.4C120.5,98.7,120.6,99.3,120.6,99.3z M120,99.4c0,0-0.1-0.5-0.4-1.5c-0.3-1-0.7-2.4-1.4-4.2
		c-0.7-1.8-1.6-4-2.8-6.4c-1.2-2.4-2.6-5.1-4-8.1c-1.5-2.9-2.9-6.2-4.4-9.5c-0.8-1.7-1.6-3.4-2.5-5c-0.4-0.8-0.9-1.7-1.3-2.4
		c-0.5-0.8-0.9-1.6-1.4-2.2c-0.1-0.2-0.2-0.3-0.3-0.4c-0.1-0.1-0.2-0.2-0.2-0.3l0-0.1c0,0,0,0,0,0c0,0,0,0,0.1,0
		c0.2,0.1,0.5,0.1,0.8,0.1l0.1,0l0,0l-0.1,0l-0.2,0l0,0c-0.5,0.1,0.6-0.1,0.5-0.1c0,0,0.1,0,0.1,0c0.1,0,0.2-0.1,0.3-0.1
		c0.2-0.1,0.2-0.1,0.3-0.2c0.1-0.1,0.1-0.1,0-0.1c-0.1,0.1-0.2,0.4-0.4,0.8c-0.3,0.7-0.5,1.7-0.6,2.6c-0.1,1-0.3,2-0.3,3
		c-0.1,2-0.2,4.1-0.2,6.3c0,2.1,0,4.3,0.2,6.5c0.3,4.3,1,8.7,2.4,12.7c0.7,2,1.4,4,2.4,5.9c0.9,1.9,2,3.7,3.1,5.3
		c2.3,3.4,4.7,6.4,7,9.3c1.1,1.4,2.2,2.8,3.3,3.9c0.5,0.6,1.1,1.2,1.6,1.6c0.3,0.2,0.5,0.4,0.7,0.6c0.2,0.1,0.4,0.2,0.2,0.2
		c0,0-0.1,0-0.2,0c-0.1,0-0.2,0-0.3,0.1c0,0-0.1,0-0.1,0.1l0.1,0l0.2,0l0,0c-0.1,0.1,0.3-0.1-0.3,0.1c0,0-0.1,0-0.1,0
		c-0.1,0-0.1,0.1-0.2,0.1c-0.1,0.1-0.1,0.1-0.2,0.2c-0.1,0.2,0.1,0.1,0.1-0.1c0.2-0.4,0.3-1.1,0.4-1.8c0.1-1.4,0.1-2.8,0.1-4.1
		c-0.1-2.7-0.3-5-0.6-6.9c-0.3-1.9-0.6-3.4-0.9-4.4C120.1,99.9,120,99.4,120,99.4z"/>
</g>
<g>
	<path class="st1" d="M62,128.9c16.1-4.5,24.4-6.7,35.2-6.4c7.5,0.2,17.7,0.5,18.4,3.6c1,5.1-23.8,18-48.8,15.9
		c-9.1-0.8-20.6-3.7-20.6-6.7C46.2,134.4,47.1,133,62,128.9z"/>
	<path class="st2" d="M61.9,128.6c0,0,0.6-0.2,1.6-0.5c1-0.3,2.6-0.8,4.5-1.4c1.9-0.7,4.2-1.6,6.9-2.6c2.7-1,5.7-2.2,9.2-3.1
		c3.5-0.9,7.5-1.3,11.6-1.2c4.1,0.2,8.3,0.8,12.7,1.7c1.1,0.3,2.2,0.5,3.3,0.9c1.1,0.4,2.3,0.7,3.4,1.6c0.5,0.5,1.2,1,1.3,2.2
		c0,0.2,0,0.3,0,0.4c0,0.2-0.1,0.5-0.1,0.7c-0.1,0.2-0.1,0.3-0.2,0.5c-0.1,0.2-0.2,0.3-0.3,0.5c-0.7,1.1-1.6,1.9-2.5,2.7
		c-1.9,1.5-3.8,2.8-5.9,4c-2,1.2-4.1,2.3-6.3,3.4c-4.3,2.1-8.8,3.8-13.4,4.9c-4.6,1.1-9.2,1.8-13.8,2c-4.5,0.2-9-0.1-13.1-0.8
		c-4.1-0.8-7.9-1.8-11.3-3.4c-0.9-0.4-1.7-0.9-2.5-1.5c-0.8-0.6-1.7-1.2-2.4-2.5c-0.2-0.3-0.3-0.7-0.4-1.2c0-0.1,0-0.2,0-0.4l0-0.2
		c0-0.1,0,0.1,0-0.2l0,0l0-0.2c0-0.2,0.1-0.4,0.2-0.6c0.1-0.3,0.3-0.5,0.4-0.6c0.1-0.1,0.3-0.3,0.4-0.4c0.2-0.2,0.5-0.4,0.7-0.5
		c0.9-0.4,1.6-0.7,2.3-0.9c2.9-0.8,5.3-1.2,7.3-1.7c2-0.5,3.5-0.8,4.6-1.1C61.3,128.7,61.9,128.6,61.9,128.6z M62.1,129.2
		c0,0-0.6,0.2-1.6,0.5c-1,0.3-2.6,0.8-4.4,1.5c-1.9,0.7-4.2,1.7-6.5,3.1c-0.6,0.3-1.2,0.7-1.5,1.1c-0.2,0.2-0.3,0.5,0,0.1
		c0-0.1,0.1-0.2,0.1-0.3c0-0.1,0,0,0,0l0,0.1l0,0c0-0.3,0-0.1,0-0.2l0,0c0,0,0,0,0-0.1c0-0.1,0-0.1,0-0.1c0.1,0,0.7,0.4,1.3,0.6
		c0.6,0.2,1.4,0.5,2.1,0.7c3.1,0.8,6.7,1.5,10.5,2c3.8,0.5,7.8,0.8,11.9,0.8c2.1,0,4.2-0.1,6.4-0.2c2.2-0.2,4.3-0.4,6.5-0.8
		c2.2-0.4,4.4-0.7,6.6-1.2c2.2-0.4,4.4-1,6.6-1.6c4.4-1.3,8.7-3,12.2-5.7c0.8-0.7,1.6-1.5,2.1-2.3c0.1-0.2,0.2-0.4,0.2-0.5
		c0,0,0-0.1,0-0.1c0-0.1,0-0.3,0-0.4c0,0-0.2-0.3-0.6-0.5c-0.7-0.4-1.8-0.7-2.8-0.8c-1-0.1-2.1-0.2-3.1-0.2c-2.1,0-4.2,0.1-6.3,0.2
		c-1,0-2.1,0.1-3.1,0.1c-1,0-2,0.1-3,0.1c-3.8,0.1-7.4,0.4-10.8,0.6c-3.4,0.3-6.6,0.5-9.4,0.9c-2.8,0.3-5.3,0.7-7.3,1.1
		c-2,0.4-3.5,0.8-4.6,1.1C62.6,129,62.1,129.2,62.1,129.2z"/>
</g>
<g>
	<path class="st1" d="M109.4,159.5c2.7-11.1,9.1-24.7,13.2-24c3.7,0.7,5.9,12.8,3.5,22.9c-1.2,5.1-2.7,5.7-7.3,15.6
		c-6.1,13.2-6.6,18.8-8.1,18.6C108.1,192.4,105.4,175.9,109.4,159.5z"/>
	<path class="st2" d="M109.1,159.4c0,0,0.5-1.9,1.3-5.2c0.4-1.7,0.9-3.8,1.4-6.1c0.6-2.4,1.3-5.1,2.6-7.9c0.7-1.4,1.4-2.9,2.6-4.3
		c0.6-0.7,1.3-1.4,2.3-2.1c0.5-0.3,1.2-0.7,2-0.8c0.5-0.1,0.9-0.1,1.4-0.1l0.2,0l0.1,0c-0.2,0,0.4,0.1,0.3,0.1l0.1,0l0.1,0
		c0.1,0,0.3,0.1,0.4,0.1c0.1,0.1,0.3,0.1,0.4,0.2l0.2,0.1l0.1,0.1c0.2,0.1,0.3,0.2,0.5,0.4c0.3,0.2,0.6,0.5,0.7,0.8
		c0.4,0.5,0.7,1,1,1.5c0.5,1,0.8,2,1,2.9c0.4,1.9,0.5,3.9,0.5,5.8c0,3.8-0.4,7.7-1,11.6c-0.2,0.9-0.4,2-0.6,2.9
		c-0.2,1-0.5,2-0.9,2.9c-0.3,1-0.7,1.9-1.1,2.8l-1.1,2.7c-0.7,1.8-1.4,3.6-2.1,5.4c-0.7,1.8-1.3,3.6-2,5.4c-1.3,3.5-2.5,7-3.6,10.5
		c-0.3,0.9-0.5,1.7-0.9,2.7c-0.2,0.5-0.4,1-0.7,1.6c-0.2,0.4-0.4,0.7-0.9,1.3c-0.3,0.3-0.7,0.6-1.3,0.9c-0.3,0.1-0.7,0.2-1,0.3
		c-0.2,0-0.3,0-0.5,0l-0.3,0c0,0-1.1-0.2-0.7-0.1l-0.2,0l-0.1,0c-0.1,0-0.3-0.1-0.4-0.2c-0.3-0.1-0.6-0.3-0.8-0.5l-0.2-0.1l-0.1-0.1
		l-0.2-0.2c-0.5-0.4-0.7-0.8-0.9-1.1c-0.4-0.6-0.6-1.2-0.8-1.7c-0.4-1-0.6-2-0.8-2.9c-0.7-3.6-0.8-7-0.5-10c0.3-3,0.8-5.8,1.4-8.2
		c0.6-2.4,1.1-4.4,1.5-6.1C108.6,161.3,109.1,159.4,109.1,159.4z M109.7,159.6c0,0-0.1,0.5-0.3,1.4c-0.2,0.9-0.4,2.2-0.5,3.9
		c-0.1,1.7-0.1,3.8,0.1,6.1c0.2,2.4,0.6,5,1,7.8c0.5,2.8,0.8,5.8,1.6,8.7c0.2,0.7,0.4,1.4,0.6,2c0.1,0.3,0.2,0.5,0.3,0.6
		c0,0,0,0-0.1-0.1l0,0l0,0l-0.1-0.1c-0.2-0.1-0.3-0.2-0.5-0.3c-0.1,0-0.2-0.1-0.3-0.1c-0.1,0,0,0,0,0l0,0l0.2,0
		c0.5,0.1-0.6-0.1-0.6-0.1l-0.2,0c-0.1,0-0.2,0-0.3,0c-0.2,0-0.5,0.1-0.7,0.2c-0.2,0.1-0.4,0.2-0.5,0.3c-0.1,0.1-0.2,0.2-0.3,0.2
		c-0.2,0.3-0.2,0.2-0.2,0.2c0.1-0.1,0.2-0.5,0.4-0.8c0.3-0.8,0.6-1.6,1-2.4c1.3-3.4,2.9-7,4.6-10.5c0.9-1.8,1.8-3.5,2.8-5.2
		c1-1.7,2.1-3.4,3.2-5c1.1-1.6,2.3-3.2,3.1-4.8c0.4-0.8,0.8-1.7,1-2.5c0.3-0.9,0.5-1.8,0.7-2.7c0.7-3.7,0.5-7.5-0.3-10.9
		c-0.4-1.7-1-3.3-1.6-4.8c-0.3-0.7-0.7-1.4-1-1.9c-0.2-0.2-0.4-0.5-0.5-0.6c-0.1-0.1-0.1-0.1-0.2-0.1c0,0,0,0,0,0l0,0l0.1,0
		c0,0,0.1,0,0.1,0.1c0,0,0.1,0,0.1,0l-0.2,0l-0.2,0c-0.1,0,0.4,0.1,0.2,0.1l0,0l0,0c0.1,0,0.2,0,0.2,0c0,0,0,0-0.2,0.1
		c-0.3,0.2-0.8,0.6-1.2,1.1c-0.9,1-1.7,2.1-2.5,3.2c-1.6,2.2-3.1,4.4-4.3,6.5c-1.2,2-2.2,3.9-2.8,5.5c-0.6,1.6-1.1,2.8-1.3,3.7
		C109.8,159.1,109.7,159.6,109.7,159.6z"/>
</g>
<g>
	<path class="st1" d="M140.7,146.4c-5-6.3-8.4-15.3-5.9-17.3c3.8-3.1,20.9,9.6,22.1,10.5c2,1.5,2.2,1.8,7.7,6.4
		c15.4,12.9,17.6,13.8,17.2,14.8C180.7,164,153.8,162.8,140.7,146.4z"/>
	<path class="st2" d="M140.5,146.6c0,0-0.3-0.4-0.8-1.1c-0.5-0.7-1.3-1.8-2.2-3.3c-0.9-1.5-1.9-3.3-2.8-5.5
		c-0.5-1.1-0.9-2.3-1.2-3.7c-0.1-0.7-0.3-1.4-0.2-2.2c0.1-0.8,0.1-1.7,1.1-2.5l0.2-0.2l0.1-0.1l0.2-0.1c0.3-0.1,0.6-0.2,0.8-0.3
		c0.5-0.1,0.9-0.1,1.4-0.1c0.9,0,1.7,0.2,2.5,0.4c1.6,0.4,3.2,1.1,4.7,1.8c3.1,1.4,6.1,3.3,9.2,5.2c1.6,1,3.1,2,4.7,3.1
		c0.8,0.5,1.6,1.1,2.3,1.7c0.7,0.6,1.5,1.2,2.2,1.8c2.9,2.4,6,4.8,9,7.1c3,2.4,6.1,4.6,9.2,6.9c0.8,0.6,1.5,1.1,2.5,2
		c0.1,0.1,0.2,0.2,0.4,0.4l0.2,0.3c0,0.1,0.1,0.1,0.1,0.2l0.2,0.3c0.1,0.2,0.2,0.4,0.3,0.6c0.1,0.3,0.2,0.7,0.2,1.1
		c0,0.4,0,0.7-0.1,1.1l-0.1,0.3c-0.5,1.1-0.2,0.3-0.3,0.6l0,0.1l-0.1,0.2l0,0l-0.1,0.1c-0.1,0.1-0.2,0.2-0.2,0.3
		c-0.2,0.2-0.4,0.4-0.5,0.5c-0.2,0.2-0.4,0.3-0.5,0.4c-0.4,0.2-0.9,0.5-1.2,0.6c-1.4,0.5-2.4,0.6-3.5,0.7c-1.1,0.1-2.1,0.1-3,0.1
		c-3.9-0.1-7.6-0.8-10.9-1.8c-3.4-1-6.4-2.4-9-3.9c-2.6-1.5-4.8-3.2-6.7-4.7c-1.9-1.5-3.3-3-4.5-4.3c-1.2-1.2-2-2.3-2.6-3
		C140.8,147,140.5,146.6,140.5,146.6z M140.9,146.2c0,0,0.3,0.4,0.9,1c0.3,0.3,0.7,0.7,1.2,1.2c0.5,0.5,1,0.9,1.7,1.5
		c1.3,1,3,2.2,5,3.2c2.1,1,4.5,2,7.1,2.8c2.7,0.8,5.6,1.5,8.7,2.1c3.1,0.6,6.4,1.1,9.7,1.2c0.8,0,1.6,0,2.4,0c0.8,0,1.5-0.2,1.9-0.3
		c0.1,0,0.1,0,0.1,0c0.1,0-0.1,0.1-0.2,0.2c-0.1,0.1-0.2,0.2-0.3,0.3c0,0.1-0.1,0.1-0.1,0.2l0,0.1l0,0l0.1-0.1l0-0.1
		c-0.1,0.2,0.3-0.6-0.2,0.5c0,0.1,0,0.1-0.1,0.2c-0.1,0.2-0.1,0.5-0.1,0.8c0,0.2,0.1,0.5,0.2,0.7c0,0.1,0.1,0.2,0.1,0.3
		c0,0,0.1,0.1,0.1,0.1c0,0,0,0,0,0l0,0c0,0,0-0.1-0.1-0.1c-0.4-0.4-1.2-1.1-1.9-1.7c-2.9-2.5-5.8-5-8.7-7.6
		c-2.9-2.5-5.8-5.1-8.7-7.6c-0.7-0.6-1.4-1.3-2.1-1.9c-0.7-0.6-1.3-1.2-2.1-1.7c-1.4-1.1-2.9-2.2-4.3-3.3c-2.9-2.1-5.8-4-8.6-5.6
		c-1.4-0.8-2.8-1.5-4.1-2.1c-1.3-0.5-2.7-0.9-3.5-0.4l0,0c-0.1,0.1,0.1-0.1,0.1-0.1l0,0l-0.1,0c0,0-0.1,0.1-0.1,0.1
		c-0.1,0.1-0.1,0.2-0.2,0.3c-0.1,0.2-0.2,0.5-0.2,0.8c-0.1,0.6-0.1,1.2,0,1.9c0.1,1.2,0.4,2.5,0.8,3.6c0.7,2.2,1.6,4,2.5,5.5
		c0.8,1.4,1.6,2.5,2.2,3.2C140.6,145.8,140.9,146.2,140.9,146.2z"/>
</g>
<g>
	<path class="st1" d="M156.2,99.5c-7.3,14.4-20.9,23.4-23.7,20.9c-3.1-2.8,6.5-21.4,12.6-30.5c1.8-2.7,1.1-1.3,10.7-14.1
		c4-5.3,4.9-6.6,5.5-6.2C163.5,70.9,162.6,86.8,156.2,99.5z"/>
	<path class="st2" d="M156.5,99.7c0,0-0.2,0.4-0.6,1.2c-0.4,0.8-1.1,2-1.9,3.5c-0.8,1.5-1.8,3.4-3.1,5.5c-1.3,2.1-2.8,4.4-4.9,6.7
		c-1.1,1.1-2.2,2.2-3.6,3.2c-1.4,1-2.9,2-4.7,2.7c-0.9,0.4-1.9,0.7-3.2,0.8c-0.6,0-1.4,0-2.4-0.4c-0.2-0.1-0.5-0.2-0.7-0.4
		c-0.1-0.1-0.2-0.2-0.3-0.3l-0.1-0.1c-0.5-0.5-0.1-0.2-0.3-0.3l0-0.1l-0.2-0.4c-0.2-0.3-0.3-0.6-0.4-0.9c-0.3-0.9-0.2-1.5-0.2-2.1
		c0.1-0.6,0.2-1.1,0.3-1.6c0.3-1,0.6-1.9,1-2.8c0.8-1.8,1.6-3.5,2.5-5.2c0.9-1.7,1.7-3.4,2.5-5.1c1.7-3.5,3.3-7,5-10.6
		c0.8-1.8,1.7-3.6,2.7-5.3c1.1-1.9,2.2-3.3,3.3-4.9c2.2-3.1,4.3-6.2,6.4-9.2c1.1-1.5,2.1-2.9,3.2-4.4c0.3-0.4,0.6-0.7,1-1.2
		c0.2-0.2,0.4-0.4,0.8-0.7c0.1-0.1,0.4-0.3,0.7-0.5c0.2-0.1,0.4-0.2,0.6-0.3c0.2-0.1,0.7-0.2,1-0.2c0.4,0,0.9,0,1.3,0.1
		c0.2,0.1,0.4,0.1,0.5,0.2l0.3,0.1c0,0,0.9,0.6,0.5,0.4l0.1,0.1l0.1,0.1c0.1,0.1,0.2,0.2,0.3,0.3c0.2,0.2,0.3,0.4,0.5,0.6l0.1,0.2
		l0,0.1l0.1,0.2c0.1,0.2,0.2,0.5,0.3,0.6l0.2,0.5l0.1,0.5c0.1,0.3,0.1,0.6,0.2,0.9c0.1,1.1,0.1,2,0.1,2.9c0,0.9-0.1,1.8-0.2,2.6
		c-0.2,1.7-0.5,3.2-0.9,4.7c-0.8,3-1.9,5.5-2.9,7.8c-1,2.2-1.9,4.1-2.7,5.7C157.4,97.9,156.5,99.7,156.5,99.7z M155.9,99.4
		c0,0,0.2-0.4,0.6-1.3c0.4-0.8,0.9-2.1,1.3-3.7c0.5-1.6,0.9-3.6,1.1-6c0.3-2.3,0.4-5,0.4-7.8c0-1.4,0-2.9,0-4.3c0-1.4-0.1-3-0.3-4.2
		c0-0.1-0.1-0.3-0.1-0.4l0-0.1c0,0,0,0,0-0.1c0,0,0,0,0,0l0,0l0,0l0.1,0.1c0.1,0.1,0.2,0.3,0.3,0.4c0.1,0.1,0.1,0.1,0.2,0.2
		c0,0,0,0,0,0l0,0l-0.1-0.1c-0.4-0.3,0.5,0.3,0.5,0.3c0.1,0,0.1,0.1,0.2,0.1c0.1,0.1,0.3,0.1,0.4,0.1c0.3,0.1,0.7,0.1,1,0.1
		c0.2,0,0.6-0.1,0.7-0.2c0.1,0,0.2-0.1,0.4-0.2c0.1,0,0.2-0.1,0.2-0.1l-0.2,0.2c-0.2,0.2-0.4,0.5-0.7,0.8c-1.1,1.4-2.2,2.7-3.3,4.1
		c-2.3,2.8-4.7,5.7-7.2,8.7c-0.6,0.7-1.3,1.5-1.9,2.2c-0.7,0.7-1.3,1.4-1.9,2c-1.2,1.4-2.4,2.9-3.6,4.5c-2.3,3.1-4.5,6.3-6.2,9.7
		c-1.7,3.4-3,7-3.6,10.4c-0.1,0.9-0.2,1.7-0.3,2.5c0,0.4,0,0.7,0.1,1c0,0.3,0.2,0.5,0.2,0.5c0-0.1-0.1-0.2-0.1-0.3c-0.1-0.1,0,0,0,0
		l0.1,0.1l0.1,0.1c-0.1-0.1,0.2,0.3-0.2-0.2l0,0c0,0,0-0.1-0.1-0.1c-0.1,0-0.1-0.1-0.1-0.1c-0.2-0.1-0.1-0.1,0.2-0.1
		c0.4-0.1,1-0.4,1.6-0.7c2.5-1.3,5-3.1,7.2-4.6c2.2-1.6,4.4-3.2,6.1-4.8c1.8-1.5,3.2-3.1,4.2-4.4c1-1.3,1.7-2.5,2.2-3.3
		C155.7,99.8,155.9,99.4,155.9,99.4z"/>
</g>
<ellipse transform="matrix(0.9118 -0.4107 0.4107 0.9118 -59.8768 33.9791)" class="st3" cx="49.1" cy="156.3" rx="11.2" ry="2.9"/>
<ellipse transform="matrix(0.279 -0.9603 0.9603 0.279 -19.3308 311.631)" class="st3" cx="197.9" cy="168.7" rx="3.8" ry="9"/>
</svg>
