<?xml version="1.0" encoding="utf-8"?>
<!-- Generator: Adobe Illustrator 19.2.1, SVG Export Plug-In . SVG Version: 6.00 Build 0)  -->
<svg version="1.1" id="Layer_1" xmlns="http://www.w3.org/2000/svg" xmlns:xlink="http://www.w3.org/1999/xlink" x="0px" y="0px"
	 viewBox="0 0 250 250" style="enable-background:new 0 0 250 250;" xml:space="preserve">
<style type="text/css">
	.st0{fill:#FFFFFF;stroke:#E5C68E;stroke-width:0.2537;stroke-miterlimit:10;}
	.st1{fill:#F2F2F2;}
	.st2{fill:#E6E6E6;}
	.st3{fill:#FFECCB;stroke:#E5C68E;stroke-width:0.2537;stroke-miterlimit:10;}
</style>
<path class="st0" d="M35.1,135.8C37,149,38.7,161,47.8,174.2c6.9,10.1,14.7,15.9,16.9,17.4c9.5,6.9,19,10.2,25.2,11.8
	c15.9,10,30.1,10.1,35.6,9.9c12.7-0.6,23-5.4,36-11.5c7.8-3.6,13.4-6.3,20-11.1c0,0,25-18.2,32.8-50.8c1.6-6.6,1.7-12.8,1.7-12.8
	s0.1-4.8-0.8-9.6c-2.8-16.4-53.4-76.8-74.9-66.1c-4.6,2.3-7.2,7.6-12.8,7.5c-5.8-0.1-6.5-5.8-12.4-8.1c-5.5-2.2-10.6,0.7-46.8,22.5
	c-8,4.9-13.3,8.1-14.3,13.4c-1.3,6.7,5,12.3,2.3,15c-2.2,2.2-7-1-12.2,1.4c-4.4,2-6,6.5-7.4,10.4C33.6,122.3,34.2,129.9,35.1,135.8z
	"/>
<g>
	<path class="st1" d="M119.5,109.8c1.2,6.1,3.1,15.8,5.6,15.7c2.8-0.1,6.2-12.6,5.6-24.2c-0.7-15.2-8.3-29.8-11.6-29.1
		C115.1,73,116.6,95,119.5,109.8z"/>
	<path class="st2" d="M119.7,109.7c0,0,0.1,0.4,0.3,1.3c0.2,0.8,0.4,2,0.9,3.5c0.4,1.5,1.1,3.3,2,5.2c0.4,1,1,2,1.6,2.9
		c0.3,0.4,0.6,0.9,0.9,1c0.1,0.1,0.2,0,0-0.1c-0.1,0-0.1,0-0.2-0.1l-0.1,0l0,0c-0.5,0.1-0.1,0-0.2,0l0.1,0c0,0,0.1,0,0.1,0
		c-0.1,0-0.1,0-0.2,0c-0.1,0-0.2,0.1-0.2,0.1c0,0,0.3-0.4,0.5-0.9c0.2-0.5,0.5-1.1,0.7-1.7c0.4-1.2,0.8-2.6,1.2-3.9
		c0.8-2.8,1.6-5.8,2.2-9.1c0.6-3.2,0.8-6.7,0.4-10.1c-0.4-3.4-1.4-6.8-2.7-10.1c-1.3-3.2-2.9-6.3-4.6-9.1c-0.8-1.4-1.8-2.7-2.7-3.6
		c-0.2-0.2-0.4-0.4-0.5-0.4c-0.1,0,0,0,0,0c0.1,0,0.1,0.1,0.2,0c0.1,0,0.2,0,0.3,0l0,0c0.8-0.2,0.2-0.1,0.4-0.1l-0.1,0l-0.1,0.1
		c-0.2,0.1,0.1,0,0.2-0.1c0.2-0.1,0.3-0.3,0.3-0.2c0,0,0,0,0,0c0,0,0,0.1-0.1,0.2l-0.1,0.3c-0.3,1.1-0.5,2.7-0.6,4.2
		c-0.1,1.5-0.2,3-0.2,4.5c-0.1,3,0,5.8-0.1,8.4c-0.1,2.6-0.2,5.1-0.3,7.3c-0.1,2.2,0,4.1,0.1,5.6c0.1,1.6,0.3,2.8,0.4,3.6
		C119.6,109.3,119.7,109.7,119.7,109.7z M119.2,109.8c0,0-0.1-0.4-0.3-1.3c-0.2-0.8-0.4-2-0.8-3.5c-0.4-1.5-0.9-3.4-1.5-5.5
		c-0.6-2.1-1.2-4.5-1.8-7.2c-0.5-2.7-0.8-5.6-0.9-8.8c0-1.6-0.1-3.2,0.1-4.9c0.1-1.7,0.3-3.4,1-5.5c0.1-0.3,0.2-0.5,0.3-0.8
		c0.2-0.3,0.3-0.6,0.5-0.9c0.1-0.2,0.3-0.3,0.4-0.5c0.1-0.1,0.4-0.4,0.7-0.6c0.3-0.2,0.8-0.4,0.8-0.4l0.1-0.1l0.1,0l0.4-0.1l0.1,0
		c0.3,0,0.7-0.1,1,0c0.3,0,0.6,0.1,0.8,0.2c0.4,0.2,0.9,0.3,1.1,0.5c0.6,0.4,1,0.8,1.4,1.2c0.8,0.8,1.3,1.6,1.8,2.4
		c0.5,0.8,1,1.6,1.4,2.5c1.7,3.3,2.6,6.9,3.3,10.5c0.7,3.6,1.2,7.2,1.6,10.7c0.4,3.5,0.7,7,0.8,10.4c0.1,3.4,0,6.8-0.6,9.9
		c-0.3,1.6-0.7,3.1-1.4,4.6c-0.3,0.7-0.7,1.5-1.1,2.2c-0.5,0.7-0.9,1.5-2.1,2.2c-0.1,0.1-0.4,0.2-0.7,0.3c-0.1,0-0.3,0.1-0.4,0.1
		l-0.1,0l-0.1,0l-0.3,0l-0.1,0l-0.2,0c-0.2,0-0.5-0.1-0.7-0.1c-0.9-0.3-1.3-0.8-1.6-1.2c-0.6-0.8-0.8-1.5-1.1-2.1
		c-0.4-1.3-0.6-2.5-0.8-3.6c-0.3-2.2-0.5-4.1-0.7-5.7c-0.2-1.5-0.4-2.8-0.6-3.6C119.3,110.3,119.2,109.8,119.2,109.8z"/>
</g>
<g>
	<path class="st1" d="M177.5,109.4c-14.7,2.7-22.2,4.2-30.9,8.4c-6,2.9-14.2,6.9-13.6,9.3c1,4,25.8,4.1,45.4-6.6
		c7.1-3.9,15.3-10.2,14.2-12.4C192.4,107.6,191.1,106.9,177.5,109.4z"/>
	<path class="st2" d="M177.6,109.7c0,0-0.5,0.1-1.5,0.3c-0.9,0.2-2.3,0.5-4.1,0.9c-1.7,0.4-3.8,1.1-6.2,1.9c-2.4,0.8-5,1.8-7.8,2.9
		c-2.8,1.1-5.8,2.2-9,3.5c-3.1,1.4-6.7,2.6-10.1,4.2c-0.9,0.4-1.7,0.8-2.5,1.3c-0.8,0.5-1.6,1-2.1,1.6c-0.3,0.3-0.4,0.6-0.4,0.7
		c0.1,0.3,0.2,0.3,0.5,0.6c0.7,0.4,1.7,0.7,2.6,0.9c3.9,0.7,8,0.3,11.9-0.4c4-0.7,7.9-1.8,11.7-2.9c3.8-1.1,7.4-2.5,10.8-4
		c3.4-1.6,6.5-3.2,9.4-5c2.9-1.7,5.6-3.6,7.9-5.3c0.6-0.4,1.1-0.9,1.5-1.3c0.4-0.4,0.8-0.9,0.9-0.9c0,0,0,0.1,0.1,0.2
		c0,0,0,0.1,0.1,0.1c-0.1-0.1,0.1,0.2,0.1,0.1l0,0l0-0.1c0,0,0,0,0,0.1c0,0,0.1,0.1,0.1,0.1c0.1,0.1,0.1,0.1,0.1,0.1
		c0.2,0.1,0-0.1-0.3-0.1c-0.5-0.1-1.1-0.2-1.7-0.2c-2.4-0.2-4.6,0-6.4,0.1c-1.8,0.2-3.2,0.4-4.1,0.5
		C178.1,109.6,177.6,109.7,177.6,109.7z M177.5,109.2c0,0,0.5-0.1,1.5-0.3c0.9-0.2,2.3-0.5,4.1-0.9c1.8-0.4,3.9-1,6.4-1.5
		c0.7-0.1,1.3-0.2,2.1-0.2c0.2,0,0.4,0,0.7,0c0.1,0,0.3,0,0.4,0.1l0.2,0.1c0.1,0,0.2,0.1,0.3,0.2c0.1,0,0.6,0.4,0.7,0.6l0,0.1l0,0
		c0,0,0.2,0.3,0.1,0.2c0.1,0.1,0.1,0.2,0.1,0.3c0.2,0.4,0.2,0.9,0.2,1.2c-0.2,1.4-0.7,2.1-1.2,2.8c-0.5,0.7-1,1.4-1.6,2
		c-2.2,2.5-5,4.6-8,6.7c-3,2-6.5,3.9-10.2,5.3c-3.7,1.5-7.7,2.6-11.7,3.5c-4.1,0.9-8.3,1.3-12.5,1.3c-2.1,0-4.2,0-6.3-0.1
		c-2.1-0.1-4.2-0.3-6.2-0.7c-1-0.2-2.1-0.5-3.1-1c-0.5-0.3-1.2-0.9-1.3-1.6c-0.2-0.9,0.3-1.6,0.6-2.1c0.7-1,1.5-1.6,2.3-2.3
		c0.8-0.7,1.6-1.2,2.4-1.8c1.6-1.2,3.2-2.2,4.8-3.2c1.6-1,3.1-1.9,4.8-2.7c3.3-1.6,6.6-2.7,9.7-3.3c3.1-0.6,6-0.9,8.5-1.1
		c2.5-0.2,4.7-0.4,6.5-0.6c1.8-0.2,3.2-0.4,4.1-0.6C177,109.3,177.5,109.2,177.5,109.2z"/>
</g>
<g>
	<path class="st1" d="M150.3,148.9c-6.2-6.9-16.4-14.3-19.5-12.3c-2.7,1.8-0.1,11.3,5.5,17.7c2.9,3.2,4.3,3.1,11.6,8.5
		c9.8,7.2,12.2,11,13.4,10.4C163.3,171.9,159.5,159.1,150.3,148.9z"/>
	<path class="st2" d="M150.1,149c0,0-0.3-0.3-0.8-0.8c-0.5-0.5-1.3-1.3-2.4-2.2c-1.1-0.9-2.5-1.9-4.2-2.8c-1.7-1-3.6-2-5.7-2.9
		c-1-0.5-2.1-1-3.1-1.3c-0.5-0.2-1-0.3-1.4-0.4c-0.2,0-0.4,0-0.5-0.1c-0.1,0-0.1,0,0-0.1l0,0c0.1-0.1-0.1,0.1,0.2-0.1l0,0l-0.1,0.1
		l-0.1,0.1c0,0,0,0,0.1,0c0.1-0.1,0.1-0.1,0.1-0.1c0,0-0.1,0.2-0.2,0.4c-0.1,0.4-0.2,1-0.3,1.6c-0.1,1.2,0.1,2.6,0.4,4
		c0.6,2.8,1.8,5.7,3.7,8.1c0.9,1.2,2,2.3,3.3,3.2c1.2,0.8,2.7,1.5,4.2,2.2c1.5,0.7,2.9,1.5,4.3,2.3c0.7,0.4,1.4,0.8,2.1,1.3
		c0.7,0.4,1.3,0.9,2,1.3c2.7,1.8,5.2,3.8,7.5,5.8c0.6,0.5,1.1,0.9,1.7,1.4l0.4,0.3c0.1,0.1,0.2,0.2,0.3,0.2l0.1,0.1c0,0,0,0,0.1,0
		c0,0,0.1,0,0,0c-0.1,0-0.1,0-0.2-0.1c-0.2-0.1-0.4-0.1-0.6,0c-0.2,0-0.3,0-0.5,0.1c-0.1,0-0.1,0.1-0.2,0.1l-0.1,0.1
		c-0.8,0.5-0.2,0.1-0.4,0.2l0.1-0.1c0,0,0,0,0,0c-0.1,0-0.1,0.1-0.2,0.1c-0.2,0.2-0.4,0.6-0.4,0.6c-0.1,0.3,0,0.2,0,0
		c0-0.4,0-0.9-0.1-1.5c-0.2-1.2-0.5-2.4-0.8-3.5c-0.3-1.2-0.7-2.3-1-3.4c-0.7-2.2-1.4-4.3-2.1-6.1c-0.7-1.8-1.5-3.3-2.3-4.5
		c-0.7-1.2-1.4-2.1-1.9-2.6C150.3,149.3,150.1,149,150.1,149z M150.4,148.7c0,0,1.1,1.2,3,3.3c1,1.1,2.1,2.3,3.5,3.9
		c1.3,1.5,2.8,3.3,4.1,5.5c1.3,2.2,2.5,4.6,3.2,7.7c0.2,0.8,0.3,1.6,0.3,2.7c0,0.5,0,1.1-0.4,2.1c0,0.1-0.4,0.7-0.7,1
		c-0.1,0.1-0.2,0.2-0.3,0.3l-0.1,0.1l-0.1,0.1c-0.2,0.1,0.4-0.2-0.4,0.3l-0.2,0.1c-0.1,0-0.2,0.1-0.3,0.1c-0.2,0.1-0.5,0.1-0.7,0.2
		c-0.4,0-0.8,0-1.2-0.1c-0.3-0.1-0.5-0.2-0.7-0.3c-0.3-0.1-0.4-0.2-0.5-0.3l-0.4-0.3l-0.3-0.2c-0.2-0.2-0.4-0.3-0.5-0.4l-0.5-0.4
		c-0.6-0.5-1.1-1.1-1.7-1.6c-2.1-2.1-4.4-4.1-6.7-6.1c-2.4-2-4.7-4.2-7.2-6.2l-1.9-1.5c-0.6-0.5-1.3-1-1.9-1.6
		c-0.6-0.6-1.2-1.2-1.8-1.8c-0.5-0.6-1-1.3-1.5-1.9c-1.9-2.6-3.7-5.3-5.1-8.1c-0.7-1.4-1.3-2.9-1.6-4.6c-0.1-0.8-0.2-1.7-0.1-2.7
		c0.1-0.5,0.2-1.1,0.5-1.6c0.2-0.3,0.3-0.6,0.7-0.9l0.2-0.2l0.1-0.1l0.1-0.1l0,0c0.3-0.2,0.1-0.1,0.2-0.1l0.1-0.1
		c0.7-0.4,1.3-0.6,1.9-0.6c0.6,0,1.1,0,1.5,0.1c0.9,0.1,1.7,0.4,2.4,0.7c1.4,0.6,2.5,1.3,3.6,2.1c2,1.5,3.6,3.2,5,4.7
		c1.3,1.5,2.5,2.8,3.4,3.9C149.4,147.5,150.4,148.7,150.4,148.7z"/>
</g>
<g>
	<path class="st1" d="M120.1,151c1.8-6.3,1.2-14-1.5-14.6c-4.2-0.8-13.4,14.6-14.1,15.7c-1.1,1.8-1.1,2.1-3.9,7.4
		c-7.8,14.9-9.2,16.4-8.6,16.9C94.1,178.4,115.5,167.6,120.1,151z"/>
	<path class="st2" d="M119.8,151c0,0,0.1-0.4,0.3-1.1c0.2-0.7,0.4-1.8,0.6-3.2c0.1-1.4,0.2-3.1,0-5.1c-0.1-1-0.4-2-0.8-2.9
		c-0.2-0.5-0.5-0.9-0.8-1.2c-0.1-0.1-0.2-0.1-0.3-0.2c-0.1,0-0.2,0-0.3-0.1l-0.1,0c-0.1,0,0.1,0,0.1,0l0,0l-0.1,0l-0.2,0
		c-0.2,0-0.2,0.1-0.3,0.1c-0.8,0.3-1.8,1.1-2.7,2c-0.9,0.9-1.7,2-2.5,3c-1.6,2.2-3.3,4.6-4.8,7.2c-0.8,1.3-1.6,2.6-2.3,4
		c-0.7,1.3-1.4,2.8-2.1,4.2c-1.4,2.9-2.8,5.8-4.3,8.8c-1.5,2.9-2.9,5.8-4.4,8.7c-0.2,0.3-0.3,0.7-0.5,1c-0.1,0.2-0.1,0.3-0.1,0.4
		c0,0,0,0,0,0c0,0,0-0.1,0-0.2c0-0.1,0-0.1,0-0.2l0-0.3c0-0.3-0.1-0.5-0.2-0.7c-0.1-0.1-0.1-0.2-0.2-0.3c0,0-0.1-0.1-0.1-0.1
		c0.3,0.2-0.6-0.5-0.5-0.4c0.1,0,0.2,0.1,0.2,0.1c-0.2-0.1-0.4-0.2-0.6-0.2c-0.1,0-0.1,0-0.1,0l0,0c0,0,0.1,0,0.2,0
		c0.1,0,0.2-0.1,0.4-0.1c1.1-0.3,2.5-0.9,3.7-1.6c2.5-1.3,4.9-2.8,7.2-4.3c2.2-1.5,4.3-3,6.1-4.5c1.8-1.5,3.4-3,4.7-4.5
		c1.3-1.5,2.2-2.9,2.9-4.1c0.7-1.2,1.1-2.3,1.4-3C119.7,151.3,119.9,150.9,119.8,151L119.8,151z M120.3,151.1c0,0-0.1,0.4-0.3,1.1
		c-0.2,0.7-0.6,1.8-1.1,3.2c-0.5,1.3-1.2,3-2.2,4.8c-1,1.8-2.2,3.8-3.7,5.9c-1.6,2-3.4,4.1-5.7,6c-2.3,1.9-4.8,3.6-7.8,5.1
		c-1.5,0.7-3,1.4-4.9,1.8c-0.3,0-0.5,0.1-0.8,0.1c-0.3,0-0.6,0.1-1,0.1l-0.3,0c-0.1,0-0.1,0-0.4,0c-0.4-0.1-0.8-0.2-1.2-0.4
		c-0.2-0.1-0.2-0.1-0.3-0.2c0.1,0.1-0.8-0.6-0.5-0.4l-0.2-0.2c-0.1-0.1-0.2-0.3-0.3-0.4c-0.2-0.3-0.3-0.6-0.3-1l0-0.3l0-0.2l0-0.3
		c0-0.2,0.1-0.5,0.1-0.5c0.1-0.2,0.1-0.4,0.2-0.6c0.1-0.3,0.2-0.5,0.3-0.7c0.2-0.4,0.4-0.8,0.6-1.1c1.7-2.8,3.3-5.6,5-8.4
		c1.6-2.8,3.2-5.7,4.7-8.5c0.8-1.4,1.5-2.8,2.4-4.2c0.9-1.4,1.7-2.7,2.6-3.9c1.8-2.5,3.6-5,5.5-7.1c1-1.1,2-2.1,3-3
		c0.5-0.4,1.1-0.9,1.7-1.2c0.6-0.4,1.2-0.7,2-0.8c0.2,0,0.5,0,0.6,0l0.2,0l0.2,0l0.1,0.1c0.2,0.1,0.4,0.2,0.6,0.3l0.4,0.4
		c0.5,0.5,0.8,1.1,0.9,1.7c0.4,1.1,0.5,2.2,0.5,3.2c0.1,2-0.1,3.8-0.2,5.2c-0.2,1.4-0.4,2.5-0.5,3.3
		C120.4,150.7,120.3,151.1,120.3,151.1L120.3,151.1z"/>
</g>
<g>
	<path class="st1" d="M90.4,123.2c11.2,7.6,25.5,9,26.8,6.2c1.5-3.1-13.1-12.9-21.4-17.2c-2.4-1.3-1.3-0.5-13.9-6.1
		c-5.2-2.3-6.3-2.9-6.7-2.4C74,105.3,80.5,116.4,90.4,123.2z"/>
	<path class="st2" d="M90.6,122.9c0,0,0.3,0.2,1,0.6c0.6,0.4,1.6,1,2.9,1.5c1.3,0.6,3,1.1,4.9,1.5c1.9,0.4,4.1,0.8,6.4,1.1
		c2.3,0.3,4.8,0.7,7.3,0.7c0.6,0,1.2,0,1.7,0c0.2,0,0.5-0.1,0.6-0.1c0.2,0,0.2-0.1,0.1,0.2l0,0l0,0c0.1-0.2-0.1,0.3-0.1,0.3l0.1-0.1
		c0-0.1,0.1-0.2,0-0.1c0,0.1,0,0.2,0,0.3c0,0,0,0,0,0c0,0,0-0.2,0-0.2c0-0.1-0.1-0.2-0.1-0.4c-0.2-0.5-0.6-1.1-1-1.7
		c-1.7-2.3-4.1-4.5-6.8-6.3c-2.6-1.8-5.5-3.4-8.5-4.7c-1.5-0.7-3-1.3-4.5-1.9c-0.7-0.3-1.4-0.5-2.2-0.8c-0.8-0.3-1.5-0.6-2.3-0.8
		c-3-1.1-6-2.3-8.8-3.5c-1.4-0.6-2.8-1.2-4.1-1.8c-0.6-0.3-1.3-0.6-1.7-0.7c-0.1,0,0,0,0,0c0,0,0,0,0.1,0c0,0,0,0,0.1,0
		c0.1,0,0.2,0,0.3,0c0.2,0,0.3-0.1,0.5-0.1c0.2-0.1,0.4-0.2,0.6-0.3c0.1-0.1,0.2-0.1,0.2-0.2l0.1-0.1c-0.2,0.3,0.3-0.5,0.3-0.4
		l-0.1,0.1c0,0,0,0.1,0,0c0-0.1,0.1-0.1,0.1-0.2c0.1-0.1,0.1-0.3,0.1-0.4l0-0.1c0-0.1,0-0.1,0-0.1c0,0.3,0.2,0.8,0.4,1.3
		c0.2,0.5,0.5,1.1,0.7,1.6c0.5,1.1,1.1,2.2,1.7,3.2c1.1,2.1,2.2,4,3.4,5.6c1.1,1.6,2.2,3,3.2,4c1,1,1.9,1.7,2.5,2.2
		C90.2,122.7,90.6,122.9,90.6,122.9z M90.3,123.4c0,0-1.4-0.9-3.7-2.6c-1.2-0.8-2.6-1.9-4.3-3.1c-1.6-1.3-3.4-2.8-5.2-4.7
		c-0.9-1-1.7-2-2.5-3.2c-0.4-0.6-0.8-1.3-1.1-2c-0.3-0.7-0.7-1.5-0.9-2.6c0-0.3-0.1-0.6-0.1-1.1l0-0.2c0,0,0-0.1,0-0.2
		c0-0.2,0.1-0.5,0.2-0.7c0-0.1,0.1-0.2,0.1-0.3l0-0.1l0.1-0.1c-0.1,0.1,0.5-0.7,0.3-0.5l0.2-0.2c0.1-0.1,0.2-0.2,0.3-0.3
		c0.2-0.2,0.6-0.4,0.8-0.5c0.2-0.1,0.5-0.1,0.7-0.2c0.2,0,0.4,0,0.5,0c0.2,0,0.3,0,0.4,0c0.1,0,0.3,0,0.3,0c0.2,0,0.4,0.1,0.5,0.1
		c1,0.3,1.7,0.6,2.4,0.9c1.4,0.6,2.7,1.3,4.1,1.9c2.7,1.4,5.6,2.8,8.5,4.2c1.4,0.7,2.9,1.4,4.4,2.3c1.4,0.9,2.8,1.9,4.1,2.9
		c2.7,2,5.3,4,8,5.8c1.3,0.9,2.7,1.9,4,2.8c1.3,0.9,2.6,1.8,3.9,2.9c0.6,0.5,1.3,1.1,1.8,1.8c0.1,0.2,0.3,0.4,0.4,0.6
		c0.1,0.3,0.3,0.5,0.4,0.8c0.1,0.2,0.1,0.3,0.1,0.5c0,0.2,0,0.6,0,0.8c0,0.4-0.1,0.4-0.1,0.5l0,0.1c0-0.1-0.2,0.5-0.1,0.3l0,0.1
		l-0.1,0.2c-0.5,0.8-1.2,1.2-1.6,1.5c-0.5,0.3-1,0.4-1.4,0.6c-0.9,0.2-1.7,0.3-2.5,0.4c-3.2,0.2-5.9-0.4-8.4-1.3
		c-2.4-0.9-4.5-2-6.3-3c-1.8-1.1-3.3-2-4.5-2.8c-1.2-0.8-2.2-1.4-2.8-1.8C90.6,123.6,90.3,123.4,90.3,123.4z"/>
</g>
<path class="st3" d="M197.9,122c-5.5,0.3-9.9,1.5-9.9,2.8s4.4,2.1,9.9,1.9c5.5-0.3,9.9-1.5,9.9-2.8S203.4,121.8,197.9,122z"/>
<path class="st3" d="M79.8,185.9c-3.4,2.8-5.1,6-3.9,7.2c1.2,1.2,4.9,0,8.3-2.8s5.1-6,3.9-7.2C86.8,181.8,83.1,183.1,79.8,185.9z"/>
</svg>
