<?xml version="1.0" encoding="utf-8"?>
<!-- Generator: Adobe Illustrator 19.2.1, SVG Export Plug-In . SVG Version: 6.00 Build 0)  -->
<svg version="1.1" id="Layer_1" xmlns="http://www.w3.org/2000/svg" xmlns:xlink="http://www.w3.org/1999/xlink" x="0px" y="0px"
	 viewBox="0 0 250 250" style="enable-background:new 0 0 250 250;" xml:space="preserve">
<style type="text/css">
	.st0{fill:#FFFFFF;stroke:#E5C68E;stroke-width:0.2689;stroke-miterlimit:10;}
	.st1{fill:#F2F2F2;}
	.st2{fill:#E6E6E6;}
	.st3{fill:#FFECCB;stroke:#E5C68E;stroke-width:0.2689;stroke-miterlimit:10;}
</style>
<path class="st0" d="M228.6,129.1c-2.1,13.2-4,25.3-14.3,38.9c-7.8,10.4-16.6,16.6-19,18.2c-10.7,7.3-21.4,11.1-28.3,13
	c-17.9,10.7-33.9,11.5-40.1,11.5c-14.3,0-25.9-4.3-40.5-9.7c-8.7-3.3-15.1-5.6-22.5-10.1c0,0-28.1-17-36.9-49.2
	c-1.8-6.6-1.9-12.7-1.9-12.7s-0.1-4.8,0.9-9.6c3.1-16.5,60-79.2,84.2-69.5c5.2,2.1,8.1,7.2,14.4,6.9c6.6-0.4,7.3-6.1,13.9-8.7
	c6.2-2.4,11.9,0.2,52.6,20.2c9.1,4.5,14.9,7.5,16.1,12.7c1.5,6.7-5.6,12.5-2.6,15.1c2.5,2.1,7.8-1.4,13.7,0.8
	c4.9,1.8,6.8,6.3,8.3,10C230.2,115.5,229.5,123.1,228.6,129.1z"/>
<g>
	<path class="st1" d="M135.9,107c-1.3,6.2-3.3,15.9-6,15.9c-3,0-6.6-12.3-6-23.9c0.8-15.3,8.9-30.2,12.5-29.6
		C140.5,70.1,139,92.1,135.9,107z"/>
	<path class="st2" d="M136.1,107.1c0,0-0.1,0.4-0.3,1.3c-0.2,0.8-0.4,2-0.6,3.6c-0.2,1.6-0.5,3.5-0.8,5.7c-0.2,1.1-0.4,2.3-0.8,3.6
		c-0.2,0.7-0.5,1.3-1.1,2.1c-0.3,0.4-0.6,0.8-1.3,1.2c-0.4,0.2-0.8,0.3-1.2,0.3l-0.6,0c0,0-0.4-0.1-0.6-0.1c-0.1,0-0.3-0.1-0.4-0.1
		l-0.2-0.1c-0.1-0.1-0.3-0.2-0.4-0.3c-0.2-0.2-0.5-0.4-0.7-0.5c-0.4-0.4-0.7-0.7-1-1.1c-0.5-0.7-0.9-1.5-1.3-2.2
		c-0.7-1.5-1.2-3-1.5-4.6c-0.7-3.2-0.8-6.6-0.7-10.1c0.1-3.5,0.5-7,0.9-10.6c0.4-3.6,1-7.2,1.7-10.8c0.8-3.6,1.8-7.2,3.6-10.6
		c0.9-1.7,1.8-3.3,3.3-4.9c0.4-0.4,0.8-0.8,1.3-1.2c0.6-0.4,1.2-0.8,2.4-1c0.3,0,0.6,0,0.9,0l0.1,0l0.5,0.1l0.1,0l0.2,0l0.1,0l0,0
		l0.1,0.1c0.2,0.1,0.4,0.2,0.5,0.3c0.3,0.2,0.7,0.5,0.8,0.6c0.2,0.2,0.3,0.3,0.5,0.5c0.2,0.2,0.2,0.3,0.3,0.5
		c0.1,0.2,0.2,0.3,0.3,0.5l0.2,0.4c0.5,1.1,0.7,2.1,0.9,3c0.2,0.9,0.3,1.8,0.4,2.7c0.1,1.7,0.1,3.4,0.1,5c-0.1,3.2-0.4,6.2-1,8.9
		c-0.5,2.7-1.2,5.1-1.9,7.3c-0.6,2.1-1.2,4-1.5,5.5c-0.4,1.5-0.7,2.7-0.9,3.6C136.2,106.7,136.1,107.1,136.1,107.1z M135.6,107
		c0,0,0.1-0.4,0.2-1.3c0.1-0.8,0.3-2.1,0.5-3.6c0.1-1.6,0.2-3.5,0.2-5.7c0-2.2-0.2-4.7-0.2-7.4c-0.1-2.7,0-5.5-0.1-8.5
		c0-1.5-0.1-3-0.2-4.5c-0.1-0.7-0.1-1.5-0.2-2.2c-0.1-0.7-0.2-1.4-0.4-1.8l-0.1-0.2l0-0.1c0,0,0-0.1,0-0.1c0,0,0,0,0,0
		c0-0.1,0.2,0.2,0.3,0.2c0.1,0,0.2,0.1,0.3,0.1l0.1,0l0,0l-0.1,0l-0.2-0.1l-0.1,0c0.2,0-0.4-0.1,0.4,0.1l0,0c0.1,0,0.2,0,0.3,0
		c0.3-0.1,0.1-0.1,0,0c-0.2,0.1-0.4,0.3-0.6,0.5c-1,0.9-2,2.2-2.9,3.6c-0.9,1.4-1.7,2.9-2.6,4.4c-0.8,1.5-1.6,3.1-2.3,4.7
		c-1.4,3.2-2.5,6.7-2.9,10.1c-0.5,3.4-0.3,6.9,0.4,10.2c0.6,3.3,1.5,6.3,2.4,9.1c0.4,1.4,0.9,2.7,1.4,3.9c0.2,0.6,0.5,1.1,0.7,1.6
		c0.1,0.2,0.2,0.4,0.3,0.5c0.1,0.1,0.1,0.1,0.1,0.1c0,0,0,0,0,0c0,0,0,0,0,0c0,0-0.1,0-0.1,0c-0.1,0-0.3,0-0.1,0l0.1,0l0.1,0
		c0.2,0-0.3,0-0.2,0l0,0c-0.1,0-0.2,0.1-0.3,0.1c-0.1,0.1,0.1,0.1,0.2,0c0.3-0.2,0.6-0.6,0.9-1.1c0.6-0.9,1.2-1.9,1.6-2.9
		c1-1.9,1.6-3.7,2.1-5.2c0.5-1.5,0.8-2.7,0.9-3.5C135.5,107.4,135.6,107,135.6,107z"/>
</g>
<g>
	<path class="st1" d="M73.5,109.4c15.8,2,23.9,3.1,33.1,6.9c6.4,2.6,15.2,6.2,14.6,8.7c-1.1,4-27.8,5.3-48.7-4.4
		c-7.6-3.6-16.5-9.5-15.3-11.7C57.6,108.3,58.9,107.6,73.5,109.4z"/>
	<path class="st2" d="M73.5,109.2c0,0,0.5,0.1,1.5,0.2c1,0.1,2.5,0.3,4.4,0.4c1.9,0.1,4.2,0.2,6.9,0.3c2.7,0.1,5.7,0.2,9,0.6
		c3.3,0.5,6.9,1.4,10.4,2.8c1.8,0.7,3.5,1.6,5.2,2.5c1.8,0.9,3.5,1.9,5.3,3c0.9,0.6,1.8,1.1,2.7,1.8c0.9,0.7,1.8,1.3,2.6,2.3
		c0.2,0.3,0.4,0.6,0.5,0.9c0.1,0.2,0.1,0.4,0.1,0.7c0,0.1,0,0.2,0,0.4l0,0.2c0,0-0.1,0.3-0.1,0.2l0,0c-0.1,0.1-0.1,0.2-0.2,0.4
		c-0.1,0.2-0.3,0.4-0.5,0.5c-0.3,0.2-0.5,0.4-0.8,0.5c-1.1,0.6-2.2,0.8-3.2,1.1c-4.3,0.9-8.7,1.2-13.1,1.4c-4.4,0.2-8.9,0-13.2-0.6
		c-4.3-0.6-8.5-1.6-12.5-2.9c-4-1.2-7.8-2.9-11.1-4.8c-3.3-1.9-6.4-3.9-8.9-6.4c-0.6-0.6-1.2-1.3-1.8-2c-0.3-0.4-0.5-0.8-0.8-1.3
		c-0.2-0.5-0.5-1.1-0.5-2c0-0.5,0.2-1,0.5-1.4c0,0,0.1-0.2,0.3-0.3c0.1-0.1,0.1-0.1,0.2-0.2c0.1-0.1,0.1-0.1,0.2-0.1
		c0.1-0.1,0.2-0.1,0.3-0.2c0.1,0,0.2-0.1,0.2-0.1c0.7-0.2,1.1-0.2,1.5-0.2c0.8,0,1.5,0.1,2.2,0.2c2.7,0.4,5,0.9,6.8,1.2
		c1.9,0.3,3.3,0.6,4.3,0.7C73,109.1,73.5,109.2,73.5,109.2z M73.5,109.7c0,0-0.5-0.1-1.5-0.2c-1-0.1-2.5-0.2-4.4-0.3
		c-1.9-0.1-4.2-0.1-6.8,0.2c-0.6,0.1-1.3,0.2-1.9,0.3c-0.3,0.1-0.6,0.2-0.6,0.2c0,0,0,0,0,0c0,0,0.1,0,0.1,0l0,0
		c0,0,0.1-0.1,0.1-0.1c0.1-0.1,0.1-0.2,0.1-0.1c0.1-0.1,0.2-0.3,0.2-0.4c0-0.2,0.1-0.1,0.2,0.1c0.1,0.2,0.3,0.4,0.6,0.6
		c0.5,0.4,1.1,0.8,1.7,1.2c2.5,1.6,5.5,3.4,8.6,5c3.2,1.6,6.6,3.2,10.3,4.5c3.7,1.4,7.6,2.5,11.6,3.5c2,0.5,4.1,0.9,6.2,1.3
		c2.1,0.4,4.2,0.8,6.3,1c4.2,0.5,8.6,0.7,12.6-0.1c1-0.2,2-0.5,2.8-1c0.2-0.1,0.3-0.2,0.5-0.4c0,0,0-0.1,0.1-0.1
		c0,0,0.1-0.2,0.2-0.3l0,0c0.1-0.1,0,0.1,0,0.1l0,0c0,0,0,0,0,0c0,0,0-0.1,0-0.1c-0.1-0.1-0.1-0.2-0.3-0.4c-0.6-0.6-1.4-1.1-2.3-1.5
		c-0.9-0.4-1.8-0.8-2.7-1.2c-1.9-0.7-3.7-1.3-5.6-1.9c-1.8-0.6-3.7-1.2-5.4-1.8c-3.4-1.2-6.6-2.1-9.7-3.1c-3-0.9-5.9-1.8-8.4-2.5
		c-2.5-0.7-4.8-1.3-6.7-1.6c-1.9-0.4-3.3-0.6-4.3-0.7C74,109.8,73.5,109.7,73.5,109.7z"/>
</g>
<g>
	<path class="st1" d="M102.8,147.5c6.7-7.2,17.7-15.1,21-13.2c2.9,1.7,0.1,11.3-5.9,17.9c-3.1,3.3-4.6,3.3-12.5,9
		c-10.5,7.7-13.1,11.6-14.4,11C88.8,171.2,92.9,158.2,102.8,147.5z"/>
	<path class="st2" d="M102.6,147.4c0,0,1.2-1.2,3.2-3.4c1-1.1,2.2-2.5,3.6-4c1.4-1.6,3.1-3.3,5.2-4.9c1.1-0.8,2.2-1.6,3.6-2.2
		c0.7-0.3,1.4-0.6,2.3-0.8c0.9-0.2,1.9-0.4,3.3,0c0.2,0,0.3,0.1,0.5,0.2l0.3,0.1l0.1,0.1l0.1,0c0.1,0.1-0.1-0.1,0.2,0.1l0.2,0.2
		l0.1,0.1l0.1,0.1c0.1,0.1,0.2,0.2,0.3,0.3c0.6,0.7,0.8,1.3,1,1.9c0.3,1.2,0.2,2.1,0.1,3c-0.3,1.8-1,3.4-1.7,4.9
		c-1.5,3-3.4,5.8-5.5,8.5l-0.8,1l-0.4,0.5l-0.4,0.5c-0.6,0.6-1.2,1.3-1.9,1.9c-0.7,0.6-1.4,1.1-2,1.7l-2,1.6
		c-1.3,1.1-2.6,2.1-3.8,3.2c-1.3,1.1-2.5,2.1-3.8,3.2c-2.5,2.1-4.9,4.2-7.1,6.4c-0.6,0.5-1.1,1.1-1.7,1.6c-0.3,0.3-0.6,0.5-1,0.8
		c-0.4,0.3-0.7,0.6-1.3,0.9c-0.1,0.1-0.3,0.2-0.6,0.3c-0.2,0.1-0.4,0.2-0.8,0.2c-0.7,0.1-1.6,0.1-2.7-0.5l-0.1-0.1
		c-0.1-0.1-0.4-0.3-0.6-0.5c-0.2-0.2-0.4-0.5-0.5-0.6c-0.1-0.1-0.1-0.3-0.2-0.4c-0.1-0.1-0.1-0.3-0.2-0.4l-0.1-0.3
		c0-0.2-0.1-0.4-0.1-0.6c-0.1-1.3,0-2.2,0.2-3.1c0.8-3.3,2-5.9,3.5-8.1c1.4-2.2,3-4.1,4.4-5.7c1.4-1.6,2.7-2.9,3.7-4
		C101.4,148.6,102.6,147.4,102.6,147.4z M103,147.7c0,0-0.3,0.3-0.8,0.9c-0.5,0.6-1.2,1.5-2,2.7c-0.8,1.2-1.7,2.8-2.5,4.7
		c-0.8,1.9-1.6,4-2.4,6.3c-0.4,1.2-0.8,2.3-1.1,3.6c-0.4,1.2-0.7,2.5-0.9,3.6c-0.1,0.6-0.1,1.2-0.1,1.3c0,0,0,0,0,0c0,0,0,0,0,0
		c0,0,0-0.1,0-0.1c0,0,0-0.1-0.1-0.1c0-0.1-0.2-0.3-0.3-0.4c-0.1-0.1-0.3-0.3-0.4-0.3l0.1,0.1c-0.7-0.5-1.3-0.4-1.6-0.4l-0.3,0.1
		c0,0-0.1,0.1-0.1,0c0.1,0,0.3-0.2,0.6-0.4c0.3-0.2,0.5-0.4,0.8-0.7c0.6-0.5,1.2-1,1.8-1.5c2.5-2,5.1-4,7.9-6
		c0.7-0.5,1.4-0.9,2.1-1.4c0.7-0.4,1.5-0.9,2.2-1.3c1.5-0.8,3-1.7,4.5-2.4c1.5-0.8,3.1-1.5,4.4-2.4c1.3-0.9,2.5-2,3.5-3.3
		c2.1-2.5,3.4-5.5,4.1-8.4c0.3-1.5,0.5-2.9,0.4-4.2c0-0.6-0.2-1.2-0.3-1.4c-0.1-0.1-0.2-0.2-0.1-0.1c0,0,0.1,0.1,0.1,0.1l0,0l0,0
		l0,0l-0.2-0.1c0.3,0.2,0.1,0.1,0.2,0.1l0,0l0,0c0,0,0,0,0,0c0,0,0,0,0,0c0,0-0.1,0-0.3,0c-0.2,0-0.4,0.1-0.7,0.1
		c-0.5,0.1-1,0.3-1.6,0.5c-1.1,0.4-2.2,1-3.3,1.5c-2.2,1-4.2,2.1-6,3.1c-1.8,1-3.3,2-4.4,2.9c-1.2,0.9-2,1.7-2.6,2.3
		C103.3,147.4,103,147.7,103,147.7z"/>
</g>
<g>
	<path class="st1" d="M135.2,148.3c-1.9-6.3-1.3-13.9,1.6-14.6c4.5-1,14.4,13.9,15.1,15c1.2,1.8,1.2,2,4.2,7.2
		c8.3,14.5,9.9,15.9,9.2,16.5C163.1,174.4,140.2,164.6,135.2,148.3z"/>
	<path class="st2" d="M134.9,148.3c0,0-0.1-0.4-0.3-1.1c-0.2-0.8-0.4-1.9-0.6-3.3c-0.1-0.7-0.2-1.5-0.2-2.4c-0.1-0.9-0.1-1.8,0-2.9
		c0.1-1,0.2-2.1,0.6-3.3c0.2-0.6,0.5-1.2,1.1-1.7c0.1-0.1,0.3-0.3,0.4-0.4c0.2-0.1,0.4-0.2,0.6-0.3l0.1,0l0,0c-0.1,0,0.1,0,0.1,0
		l0.1,0l0.2,0c0.1,0,0.4,0,0.6,0c1.6,0.2,2.8,1,3.9,1.8c1.1,0.8,2.2,1.8,3.2,2.8c2.1,2.1,4,4.4,5.9,6.9c1,1.2,1.9,2.5,2.9,3.9
		c1,1.4,1.7,2.8,2.6,4.2c1.7,2.8,3.4,5.6,5.2,8.4c1.8,2.8,3.6,5.5,5.4,8.3c0.2,0.4,0.5,0.7,0.7,1.2c0.1,0.3,0.3,0.5,0.4,1.2
		c0,0.2,0,0.4,0,0.7c0,0.3-0.1,0.7-0.2,1.1c-0.1,0.3-0.3,0.6-0.6,0.9l-0.2,0.2c-0.8,0.6-0.2,0.2-0.4,0.3l-0.1,0
		c-0.1,0.1-0.1,0.1-0.5,0.3c-0.3,0.1-0.7,0.2-1.1,0.3c-0.3,0-0.7,0.1-1,0c-0.6,0-1.1-0.1-1.6-0.2c-1.9-0.3-3.5-0.9-5-1.5
		c-3-1.3-5.8-2.9-8.2-4.6c-2.4-1.8-4.4-3.7-6.1-5.7c-1.7-2-3-3.9-4.1-5.7c-1.1-1.8-1.8-3.4-2.5-4.8c-0.6-1.4-1-2.4-1.2-3.2
		C135.1,148.7,134.9,148.3,134.9,148.3L134.9,148.3z M135.4,148.2c0,0,0.1,0.4,0.4,1.1c0.3,0.7,0.8,1.7,1.5,3c0.7,1.2,1.8,2.6,3.2,4
		c1.4,1.4,3.1,2.8,5,4.2c1.9,1.4,4.1,2.8,6.5,4.1c2.3,1.4,4.8,2.7,7.5,3.9c1.3,0.6,2.7,1.1,3.9,1.4c0.3,0.1,0.6,0.1,0.8,0.1
		c0.1,0,0.1,0,0.2,0c-0.2,0-0.3,0.1-0.5,0.2c-0.2,0.2,0,0,0,0l0.1,0c-0.2,0.1,0.4-0.3-0.4,0.3c0,0-0.1,0.1-0.1,0.1
		c-0.2,0.2-0.3,0.4-0.4,0.6c-0.1,0.2-0.2,0.6-0.2,0.8c0,0.1,0,0.2,0,0.4c0.1,0.3,0.1,0.2,0,0.1c-0.1-0.2-0.3-0.6-0.4-0.9
		c-1.5-2.8-3.2-5.7-4.8-8.6c-1.6-2.9-3.2-5.8-4.7-8.7c-0.8-1.4-1.5-2.9-2.3-4.2c-0.8-1.3-1.6-2.6-2.5-3.9c-1.7-2.5-3.5-4.9-5.3-7
		c-0.9-1-1.8-2-2.7-2.9c-0.9-0.8-1.9-1.6-2.8-1.8c-0.1,0-0.1-0.1-0.3-0.1l-0.2,0l-0.1,0c0,0,0.1,0,0.1,0l0,0l0,0
		c-0.1,0-0.2,0.1-0.3,0.1l-0.3,0.2c-0.4,0.3-0.7,0.7-0.9,1.1c-0.5,0.9-0.8,2-0.9,2.9c-0.3,2-0.2,3.7-0.1,5.1
		c0.1,1.4,0.4,2.5,0.6,3.3C135.3,147.8,135.4,148.2,135.4,148.2L135.4,148.2z"/>
</g>
<g>
	<path class="st1" d="M167.1,119c-12,8.1-27.4,10.2-28.8,7.5c-1.6-3.1,14.1-13.5,23-18.2c2.6-1.4,1.4-0.6,14.9-6.8
		c5.6-2.6,6.8-3.2,7.2-2.7C184.7,100.5,177.7,111.8,167.1,119z"/>
	<path class="st2" d="M167.2,119.2c0,0-0.4,0.2-1,0.7c-0.7,0.5-1.7,1.1-3,2c-1.3,0.8-2.9,1.9-4.7,3c-1.9,1.1-4.1,2.3-6.6,3.3
		c-2.6,0.9-5.5,1.7-8.8,1.7c-0.8,0-1.7-0.1-2.6-0.2c-0.5-0.1-0.9-0.2-1.5-0.4c-0.5-0.2-1.1-0.4-1.8-1.1c-0.2-0.1-0.3-0.4-0.5-0.6
		l-0.1-0.1c0.1,0.2-0.2-0.4-0.2-0.4l0-0.1l0-0.1l0-0.3c0-0.2,0-0.3,0-0.5c0-0.2,0-0.3,0-0.5l0.1-0.3c0.2-0.8,0.5-1.2,0.8-1.6
		c0.6-0.8,1.3-1.4,2-2c1.3-1.1,2.8-2.1,4.2-3c1.4-1,2.8-2,4.2-3c2.8-2,5.6-4.1,8.5-6.2c1.4-1,2.9-2.1,4.4-3.1c0.7-0.5,1.6-1,2.4-1.4
		c0.8-0.4,1.5-0.8,2.3-1.2c3.1-1.5,6.1-3.1,9-4.5c1.5-0.7,2.9-1.4,4.4-2.1c0.7-0.3,1.5-0.7,2.3-1c0.2-0.1,0.5-0.2,0.8-0.2
		c0.2,0,0.3-0.1,0.6-0.1l0.4,0c0.2,0,0.3,0,0.5,0c0.4,0,1,0.1,1.6,0.5c0.3,0.2,0.5,0.4,0.8,0.6c0.6,0.8,0.2,0.2,0.3,0.4l0,0l0,0.1
		l0,0.1c0.1,0.1,0.1,0.2,0.2,0.4c0.1,0.3,0.2,0.5,0.2,0.8c0,0.4,0,0.5,0,0.8c-0.1,0.8-0.2,1.3-0.4,1.8c-0.2,0.5-0.4,0.9-0.5,1.3
		c-0.4,0.8-0.8,1.5-1.2,2.1c-0.8,1.3-1.8,2.4-2.7,3.4c-1.9,2-3.8,3.6-5.6,4.9c-1.8,1.3-3.3,2.4-4.6,3.3
		C168.7,118.3,167.2,119.2,167.2,119.2z M166.9,118.8c0,0,0.3-0.3,1-0.7c0.6-0.5,1.6-1.2,2.7-2.3c1.1-1.1,2.3-2.5,3.5-4.2
		c1.2-1.7,2.5-3.7,3.7-5.9c0.6-1.1,1.2-2.2,1.8-3.4c0.3-0.6,0.6-1.1,0.8-1.7c0.1-0.3,0.2-0.5,0.3-0.8c0.1-0.2,0.1-0.4,0.1-0.3
		c0,0.1,0,0.1,0,0.2c0,0.2,0.1,0.4,0.2,0.5c0,0.1,0.1,0.2,0.1,0.2c0,0,0,0,0,0l0-0.1l0,0c0.1,0.2-0.3-0.4,0.3,0.4
		c0.1,0.2,0.3,0.3,0.5,0.5c0.5,0.3,0.8,0.3,1,0.3c0.1,0,0.2,0,0.2,0l0.1,0c0.1,0,0,0,0,0l-0.3,0.1c-0.6,0.2-1.3,0.5-2,0.9
		c-1.4,0.6-2.9,1.3-4.4,1.9c-3,1.3-6.2,2.6-9.4,3.8c-0.8,0.3-1.6,0.6-2.4,0.9c-0.8,0.3-1.5,0.5-2.3,0.9c-1.6,0.6-3.2,1.3-4.7,2
		c-3.2,1.4-6.2,3.1-9.1,5c-2.8,1.9-5.4,4.2-7.3,6.7c-0.5,0.6-0.9,1.2-1.1,1.8c-0.1,0.2-0.2,0.5-0.1,0.6c0,0,0,0,0,0c0,0,0-0.1,0-0.2
		c0-0.1-0.1-0.4,0-0.2l0.1,0.1l0,0.1c0,0.1-0.2-0.6-0.1-0.3l0,0c0-0.1-0.1-0.2-0.1-0.2c-0.1-0.1,0.1-0.1,0.3,0c0.2,0,0.5,0,0.8,0
		c0.6,0,1.3,0,1.9-0.1c2.7-0.2,5.4-0.7,7.9-1.1c1.2-0.2,2.5-0.4,3.6-0.6c1.2-0.2,2.2-0.4,3.3-0.7c2.1-0.5,3.8-1.1,5.2-1.7
		c1.4-0.6,2.4-1.2,3.1-1.6C166.6,119,166.9,118.8,166.9,118.8z"/>
</g>
<ellipse class="st3" cx="45.3" cy="125.3" rx="11.2" ry="2.3"/>
<path class="st3" d="M178.3,181.1c3.8,2.6,5.8,5.7,4.4,7s-5.5,0.2-9.3-2.4c-3.8-2.6-5.8-5.7-4.4-7
	C170.4,177.5,174.5,178.5,178.3,181.1z"/>
</svg>
