<?xml version="1.0" encoding="utf-8"?>
<!-- Generator: Adobe Illustrator 19.2.1, SVG Export Plug-In . SVG Version: 6.00 Build 0)  -->
<svg version="1.1" id="Layer_1" xmlns="http://www.w3.org/2000/svg" xmlns:xlink="http://www.w3.org/1999/xlink" x="0px" y="0px"
	 viewBox="0 0 250 250" style="enable-background:new 0 0 250 250;" xml:space="preserve">
<style type="text/css">
	.st0{fill:#FFFFFF;stroke:#E5C68E;stroke-width:0.3032;stroke-miterlimit:10;}
	.st1{fill:#F2F2F2;}
	.st2{fill:#E6E6E6;}
	.st3{fill:#FFECCB;stroke:#E5C68E;stroke-width:0.3032;stroke-miterlimit:10;}
</style>
<path class="st0" d="M163.6,46.7c17.6,6.2,33.6,11.8,48.8,24.9c11.6,10,16.9,19.3,18.4,21.9c6.3,11.4,7.6,21.5,7.8,27.9
	c8.4,18.5,3.8,32,1.5,37.1c-5.2,11.9-15.3,20-28.1,30.3c-7.7,6.2-13.2,10.6-22.2,15.3c0,0-33.7,17.6-81.5,14.1
	c-9.7-0.7-18.2-2.7-18.2-2.7s-6.6-1.6-13-3.9c-21.7-8.1-88.1-76.4-65.9-93.2c4.8-3.6,12.9-4.3,14.7-9.6c1.9-5.6-5.8-8.1-7-14.5
	c-1.1-6,4.5-9.9,47.1-36.9c9.5-6,15.7-9.9,23.4-9.1c9.8,1,15.3,8.9,20,7.2c3.8-1.3,0.9-6.9,6.1-11.1c4.3-3.5,11.1-3.5,16.9-3.5
	C145.4,40.7,155.7,43.9,163.6,46.7z"/>
<g>
	<path class="st1" d="M104,110.6c7.7,2.7,19.7,6.8,18.7,8.8c-1.1,2.2-18.5,1.3-33.5-2.3c-19.8-4.8-36.5-14.8-34.5-17.3
		C57.2,97,85.5,104.2,104,110.6z"/>
	<path class="st2" d="M104.1,110.4c0,0,0.5,0.2,1.6,0.5c1,0.3,2.5,0.8,4.4,1.4c1.9,0.6,4.3,1.2,7,1.9c1.4,0.4,2.8,0.8,4.4,1.5
		c0.4,0.2,0.8,0.4,1.2,0.6c0.4,0.3,0.9,0.5,1.4,1.1c0.3,0.3,0.6,0.7,0.7,1.7c0,0.2,0,0.5,0,0.7c0,0.1-0.1,0.2-0.1,0.4l-0.1,0.2
		l-0.2,0.3c-0.1,0.1,0,0.1-0.4,0.5c-0.3,0.3-0.7,0.5-0.8,0.6c-0.2,0.1-0.4,0.2-0.5,0.3c-0.3,0.1-0.6,0.2-0.8,0.3
		c-1.1,0.3-2,0.5-3,0.6c-1,0.1-1.9,0.2-2.9,0.2c-1.9,0.1-3.9-0.1-5.9-0.3c-4-0.4-8.1-1.3-12.3-2.4c-4.2-1.1-8.5-2.3-12.8-3.5
		c-4.3-1.2-8.8-2.5-13.2-3.9c-4.4-1.4-8.8-3.1-12.8-5.4c-1-0.6-2-1.2-3-1.9c-1-0.7-2-1.4-3-2.7l-0.4-0.6c-0.1-0.2-0.3-0.5-0.4-0.8
		c-0.1-0.2-0.1-0.4-0.2-0.6c0-0.2-0.1-0.4-0.1-0.7c0-0.6,0.1-1.2,0.5-1.8c0.1-0.1,0.2-0.3,0.3-0.4c0.7-0.7,0.2-0.2,0.4-0.4l0,0
		l0.2-0.1c0,0,0,0,0.1-0.1l0.3-0.2c0.2-0.1,0.4-0.2,0.6-0.3c0.5-0.2,0.6-0.2,0.9-0.3c0.2,0,0.5-0.1,0.6-0.1c1.5-0.2,2.7-0.2,3.8-0.1
		c4.6,0.3,8.7,1.2,12.5,2.1c3.9,1,7.4,2,10.7,3.2c3.2,1.2,6.2,2.5,8.7,3.6c2.6,1.1,4.8,2.1,6.7,2.8c1.9,0.7,3.3,1.3,4.3,1.6
		C103.6,110.2,104.1,110.4,104.1,110.4z M103.9,110.9c0,0-0.5-0.2-1.6-0.5c-1-0.3-2.5-0.8-4.5-1.3c-1.9-0.5-4.3-1-7.1-1.4
		c-2.7-0.4-5.8-0.9-9.2-1.5c-3.4-0.6-6.9-1.3-10.7-2.1c-3.8-0.7-7.8-1.6-11.7-2c-1-0.1-2-0.2-2.6-0.1c-0.1,0-0.1,0-0.2,0l-0.1,0l0,0
		l0.1,0c0,0,0.1,0,0.1,0c0.1,0,0.2-0.1,0.2-0.2c0,0,0.1-0.1,0.1-0.1c0-0.1,0,0,0,0l-0.2,0.1l0,0c0.1-0.1-0.4,0.4,0.3-0.3
		c0.1-0.1,0.1-0.1,0.2-0.2c0.1-0.2,0.2-0.4,0.2-0.5c0-0.2,0.1-0.3,0.1-0.5c0-0.2,0-0.2,0-0.3c0-0.1,0-0.2-0.1-0.2c0,0,0-0.1,0-0.1
		c0,0,0,0.1,0.1,0.1c0.3,0.5,1.1,1.2,1.8,1.8c0.8,0.6,1.6,1.2,2.5,1.8c3.6,2.4,7.5,4.7,11.5,6.7c4,2.1,8.2,3.8,12.5,5
		c4.3,1.3,8.6,1.9,12.9,2.2c4.2,0.3,8.3,0.4,12.2,0.5c1.9,0.1,3.7,0.1,5.5,0.2c0.9,0,1.7,0,2.6,0c0.8,0,1.6-0.1,2.2-0.1
		c0.2,0,0.3,0,0.4-0.1c0.1,0,0,0,0.1,0c0.1,0-0.1,0.1-0.2,0.2c-0.2,0.3,0,0,0.1,0c-0.1,0.1,0.2-0.3-0.2,0.3l0,0.1
		c0,0.1,0,0.1-0.1,0.2c0,0.2,0,0.3,0,0.4c0.1,0.6,0.2,0.5,0.2,0.6c0-0.1-0.2-0.3-0.4-0.5c-0.2-0.2-0.5-0.4-0.8-0.6
		c-1.2-0.9-2.4-1.6-3.6-2.3c-2.4-1.4-4.6-2.4-6.4-3.2c-1.8-0.8-3.3-1.3-4.3-1.7C104.5,111.1,103.9,110.9,103.9,110.9z"/>
</g>
<g>
	<path class="st1" d="M84.8,156.3c8.3-10.8,12.7-16.4,21-22c5.7-3.9,13.6-9.3,16.7-8.1c4.9,1.9-3,21.5-23.3,34
		c-7.4,4.5-18.4,9.3-20.9,7.8C77.5,167.5,77.1,166.4,84.8,156.3z"/>
	<path class="st2" d="M84.6,156.2c0,0,0.3-0.4,0.9-1.2c0.6-0.8,1.4-1.9,2.4-3.4c1-1.5,2.2-3.3,3.5-5.5c1.4-2.1,2.9-4.6,5-7
		c2.1-2.4,4.7-4.7,7.8-6.6c3-1.9,6.3-3.6,9.9-5.2c1.8-0.8,3.7-1.6,5.8-2c0.3-0.1,0.5-0.1,0.8-0.1c0.3,0,0.6,0,0.9,0
		c0.3,0,0.6,0.1,1,0.2l0.2,0.1c0.2,0.1,0.1,0,0.1,0.1l0,0l0.1,0c0.1,0.1,0.2,0.1,0.4,0.2c1.3,1.1,1.3,2.4,1.3,3.4
		c-0.1,2.2-0.7,4.2-1.4,6.2c-0.7,2-1.6,3.9-2.5,5.8c-1.9,3.8-4.3,7.3-7.1,10.4c-2.8,3.1-5.8,5.9-9,8.2c-1.6,1.2-3.2,2.3-4.8,3.3
		c-1.7,1-3.3,1.8-4.9,2.6c-3.3,1.5-6.4,2.8-9.6,3.5c-1.6,0.4-3.1,0.6-4.8,0.6c-0.4,0-0.8,0-1.3-0.1c-0.5-0.1-1-0.2-1.5-0.5l-0.1-0.1
		l-0.2-0.1l-0.1-0.1c-0.1-0.1-0.5-0.5-0.5-0.7c-0.1-0.1-0.1-0.2-0.1-0.4c0-0.1,0-0.2-0.1-0.3c0-0.2,0-0.4,0-0.5
		c0.1-0.6,0.3-0.9,0.4-1.3c0.7-1.3,1.5-2.1,2.2-3c0.7-0.8,1.3-1.6,1.9-2.3C83.3,157.8,84.6,156.2,84.6,156.2z M85,156.5
		c0,0-0.3,0.4-0.9,1.2c-0.6,0.8-1.4,1.9-2.3,3.4c-0.5,0.8-0.9,1.6-1.4,2.6c-0.5,0.9-1,2-1.2,3.1c0,0.2-0.1,0.5,0,0.5c0,0,0,0,0-0.1
		c0,0,0-0.1,0-0.1c0,0,0-0.1,0-0.1c0,0-0.1-0.1-0.1-0.2c0,0-0.1-0.1-0.1-0.1c0,0-0.1-0.1,0,0l0.1,0.1c-0.2-0.1-0.1,0-0.1-0.1l0,0
		l0,0c0,0,0.2,0,0.4-0.1c0.2,0,0.5-0.1,0.8-0.2c1.1-0.3,2.4-0.9,3.7-1.5c2.6-1.2,5.5-2.6,8.5-4.3c1.5-0.8,3-1.7,4.5-2.5
		c1.5-0.9,3-1.9,4.6-2.9c3-2,6-4.4,8.9-7c2.8-2.7,5.6-5.5,8-8.6c1.2-1.6,2.3-3.2,3.2-5c0.9-1.7,1.5-3.6,1.6-5.5c0-0.4,0-0.9-0.1-1.3
		c-0.1-0.2-0.1-0.4-0.2-0.5c0-0.1-0.1-0.1-0.1-0.2c0,0-0.1-0.1-0.1-0.1c0,0-0.2-0.1-0.3-0.2l-0.1,0l0,0c0,0-0.1-0.1,0.1,0l-0.1,0
		c-0.2,0-0.3-0.1-0.5,0c-0.2,0-0.4,0-0.6,0.1c-0.2,0.1-0.4,0.1-0.6,0.2c-1.7,0.6-3.3,1.6-4.8,2.7c-3,2.2-5.8,4.6-8.6,6.6
		c-2.7,2-5.2,3.9-7.5,5.8c-2.3,1.9-4.4,3.7-6.2,5.3c-1.8,1.7-3.4,3.2-4.5,4.6c-1.2,1.3-2.1,2.4-2.7,3.2
		C85.3,156.1,85,156.5,85,156.5z"/>
</g>
<g>
	<path class="st1" d="M145.3,145.8c-7.1-6.9-13.5-17-9.8-18.8c3.3-1.7,14.9,3.1,21.4,9.3c3.3,3.2,2.7,4.2,7.4,11.5
		c6.3,9.7,10.5,12.7,9.3,13.5C171.4,162.6,155.8,156,145.3,145.8z"/>
	<path class="st2" d="M145.2,146c0,0-1.2-1.2-3.4-3.3c-1.1-1.1-2.4-2.3-4-3.9c-1.5-1.6-3.2-3.4-4.6-5.9c-0.3-0.7-0.6-1.4-0.9-2.2
		c-0.2-0.8-0.4-1.8-0.1-3.2c0.2-0.7,0.6-1.5,1.2-2c0.2-0.1,0.3-0.3,0.5-0.4l0.3-0.2l0.1-0.1l0.1,0c0,0,0.6-0.3,0.3-0.1l0.5-0.2
		c0.1-0.1,0.5-0.1,0.8-0.2c0.3,0,0.7-0.1,1-0.1c0.5,0,0.9,0,1.4,0.1c1.8,0.2,3.3,0.8,4.8,1.5c1.5,0.7,2.9,1.5,4.4,2.4
		c2.8,1.8,5.6,3.8,8.3,6c1.3,1.1,2.7,2.2,3.9,3.7c0.6,0.7,1.1,1.5,1.6,2.2c0.5,0.7,1,1.4,1.4,2.1c1,1.4,2,2.7,3.1,4
		c1,1.3,2.1,2.6,3.1,3.9c1,1.3,2.1,2.5,3.1,3.8c1.1,1.2,2.1,2.4,3.3,3.8c0.3,0.4,0.6,0.7,1,1.6c0.1,0.3,0.2,0.6,0.3,1.1
		c0,0.1,0,0.3,0,0.4c0,0.2,0,0.3-0.1,0.5c-0.1,0.4-0.2,0.8-0.5,1.1c-0.2,0.3-0.5,0.6-0.7,0.8l-0.2,0.1c-0.2,0.1,0.2-0.1-0.5,0.3
		l-0.1,0l-0.1,0.1l0,0l-0.1,0l-0.3,0.1c-0.2,0.1-0.4,0.1-0.6,0.1l-0.3,0l-0.1,0l-0.6,0c-0.3,0-0.6,0-0.9-0.1c-0.5-0.1-1-0.2-1.5-0.3
		c-1.8-0.4-3.3-1-4.7-1.7c-2.9-1.3-5.4-2.7-7.5-4.3c-2.1-1.6-4-3.3-5.5-4.8c-1.5-1.5-2.9-2.8-3.9-3.9
		C146.4,147.2,145.2,146,145.2,146z M145.5,145.6c0,0,0.3,0.3,0.9,0.8c0.6,0.5,1.5,1.3,2.7,2.1c1.2,0.8,2.8,1.8,4.7,2.7
		c1.9,0.9,4.1,1.8,6.4,2.8c2.3,0.9,4.8,2.1,7.4,3.1c1.3,0.5,2.7,1,3.9,1.3c0.3,0.1,0.6,0.1,0.8,0.2c0.1,0,0.2,0,0.3,0c0,0,0,0,0,0
		l0,0l-0.1,0c-0.1,0-0.2,0-0.3,0.1c0,0-0.1,0-0.1,0.1l-0.1,0l0,0l0.1-0.1l0.1,0c-0.7,0.4-0.3,0.1-0.5,0.3l-0.1,0.1
		c-0.1,0.1-0.4,0.3-0.5,0.6c-0.2,0.2-0.3,0.6-0.3,0.8c0,0.1,0,0.2,0,0.4c0,0.1,0,0.2,0,0.3c0,0.3,0.1,0.5,0.1,0.5
		c0.1,0.2-0.1-0.2-0.2-0.4c-0.8-1.1-1.9-2.5-2.9-3.9c-1-1.4-2-2.8-2.9-4.3c-1.9-2.9-3.5-6.1-4.9-9.3c-0.7-1.6-1.3-3.3-2.1-4.6
		c-0.8-1.4-2-2.5-3.3-3.6c-1.3-1.1-2.6-2-4.1-2.8c-1.4-0.7-2.9-1.4-4.4-1.9c-1.5-0.5-3-0.9-4.4-1.2c-1.4-0.3-2.8-0.5-4-0.6
		c-0.3,0-0.5,0-0.8,0c0,0-0.1,0-0.1,0c0,0,0-0.1-0.2,0l-0.5,0.2c-0.3,0.1,0.3-0.1,0.3-0.1l0,0l0,0l0,0c0,0,0,0,0.1-0.1
		c0.1-0.1,0.2-0.2,0.1-0.2c0,0-0.1,0.4,0,0.9c0.1,0.5,0.2,1,0.3,1.5c0.3,1.1,0.7,2.2,1.1,3.2c0.4,1.1,0.9,2.1,1.3,3
		c0.9,1.9,1.9,3.4,2.8,4.6c0.9,1.2,1.7,2.1,2.2,2.7C145.2,145.3,145.5,145.6,145.5,145.6z"/>
</g>
<g>
	<path class="st1" d="M157.9,122.6c-8.9-0.4-18.8-2.9-18.6-5.3c0.2-3.5,23.5-6.5,25.2-6.8c2.8-0.3,3.1-0.3,11-1
		c22.1-2,24.4-2.7,25-2.1C202.2,109.8,181.1,123.6,157.9,122.6z"/>
	<path class="st2" d="M157.9,122.9c0,0-0.5,0-1.5-0.1c-1-0.1-2.3-0.2-4.1-0.4c-1.8-0.2-3.9-0.5-6.3-1c-1.2-0.3-2.5-0.6-3.9-1
		c-0.7-0.2-1.4-0.5-2.1-0.9c-0.3-0.2-0.7-0.4-1-0.8c-0.2-0.2-0.3-0.4-0.4-0.7c-0.1-0.1-0.1-0.3-0.1-0.5l0-0.1l0-0.2l0-0.1l0-0.1
		c0-0.2,0.3-0.7,0.5-0.8c0.2-0.2,0.4-0.4,0.5-0.5c0.4-0.3,0.7-0.5,1.1-0.7c0.7-0.4,1.5-0.8,2.3-1.1c1.6-0.6,3.2-1.1,4.9-1.6
		c3.4-0.9,7-1.7,10.8-2.4c1.9-0.3,3.8-0.7,5.8-1c2-0.3,4-0.5,5.9-0.7c4-0.4,8-0.9,12-1.4c4-0.5,8-1,12-1.6c1-0.1,2-0.3,3-0.4
		c0.5-0.1,1-0.1,1.6-0.2l0.5,0l0.6,0c0.1,0,0.3,0,0.5,0.1c0.2,0,0.3,0,0.6,0.1c0.1,0,0.3,0.1,0.4,0.2c0.1,0.1,0.2,0.1,0.4,0.2
		c0.2,0.1,0.3,0.2,0.5,0.4c0.2,0.2-0.1-0.2,0.4,0.5l0,0l0.1,0.1c0.1,0.2,0.2,0.5,0.3,0.8c0.1,0.3,0.1,0.5,0.1,0.6c0,0.2,0,0.3,0,0.5
		c0,0.2-0.1,0.5-0.1,0.7c-0.1,0.2-0.1,0.4-0.2,0.5c-0.2,0.6-0.5,0.9-0.7,1.2c-0.4,0.6-0.9,1-1.3,1.4c-0.8,0.8-1.7,1.4-2.5,2
		c-3.4,2.3-6.8,4-10.2,5.3c-3.4,1.3-6.7,2.1-9.8,2.7c-6.2,1.1-11.3,1.1-14.9,1.1c-1.8,0-3.2-0.1-4.1-0.1
		C158.4,122.9,157.9,122.9,157.9,122.9z M157.9,122.4c0,0,0.5,0,1.4,0c0.9,0,2.3-0.1,4.1-0.3c1.7-0.2,3.9-0.6,6.2-1.2
		c2.4-0.6,5-1.5,7.7-2.6c2.8-1.1,5.7-2.4,8.7-3.8c3-1.5,6.2-3.1,9-5.1c0.7-0.5,1.4-1,2-1.5c0.3-0.2,0.5-0.5,0.7-0.7
		c0.1-0.1,0.1-0.2,0.1,0c0,0,0,0.1-0.1,0.2c0,0.1-0.1,0.2-0.1,0.3c0,0.1,0,0.2,0,0.3c0,0.1,0,0.2,0.1,0.4c0.1,0.2,0.1,0.4,0.3,0.6
		c0,0.1,0,0,0,0l0,0c0.5,0.7,0.2,0.3,0.4,0.5c0.1,0.1,0.2,0.2,0.3,0.3l0.3,0.2c0.1,0,0.1,0.1,0.2,0.1l0.2,0.1c0,0,0.1,0,0.1,0
		c-0.1,0-0.1,0-0.2,0l-0.3,0c-0.4,0-0.9,0-1.3,0.1c-1,0.1-2,0.1-2.9,0.2c-4,0.3-8,0.6-12.1,0.8c-4,0.3-8.1,0.5-12.1,0.8
		c-2,0.1-3.9,0.2-5.8,0.4c-1.9,0.2-3.8,0.4-5.7,0.6c-3.7,0.5-7.3,1-10.7,1.7c-1.7,0.3-3.3,0.7-4.8,1.1c-0.8,0.2-1.5,0.5-2.2,0.7
		c-0.3,0.1-0.7,0.3-0.9,0.5c-0.2,0.1-0.2,0.2-0.3,0.2c-0.1,0.1,0,0-0.1,0c0,0-0.1,0-0.1,0.1l0,0.1l0,0.1c0-0.1,0,0.2,0-0.1l0,0
		c0,0,0,0,0,0c0,0,0,0.1,0.1,0.2c0.1,0.2,0.4,0.4,0.6,0.6c0.5,0.4,1.1,0.7,1.7,1c1.2,0.6,2.5,1,3.6,1.3c2.4,0.7,4.5,1.1,6.2,1.3
		c1.7,0.3,3.1,0.3,4.1,0.4C157.4,122.3,157.9,122.4,157.9,122.4z"/>
</g>
<g>
	<path class="st1" d="M131,91.4c6.4,10.9,3.6,22.6-0.5,22.9c-4.6,0.3-12.7-13.9-15.6-21.7c-0.9-2.3-0.2-1.2-3.6-12.6
		c-1.4-4.8-1.8-5.8-0.9-6C112.9,73.5,125.3,81.8,131,91.4z"/>
	<path class="st2" d="M131.2,91.3c0,0,0.2,0.3,0.6,1c0.3,0.7,0.9,1.6,1.5,2.8c0.6,1.2,1.4,2.8,2.1,4.7c0.7,1.9,1.4,4.1,1.5,6.7
		c0,1.3-0.1,2.7-0.4,4.1c-0.4,1.4-1,2.9-2.4,4.4c-0.7,0.7-1.8,1.4-3.2,1.5l-0.1,0c-0.4,0-0.1,0-0.2,0l0,0l-0.1,0l-0.3,0
		c-0.4-0.1-0.8-0.2-1.1-0.3c-0.5-0.2-0.9-0.5-1.3-0.7c-1.5-1.1-2.4-2.4-3.3-3.6c-1.7-2.6-3.2-5.3-4.8-7.9c-1.6-2.7-3.3-5.4-4.9-8.1
		c-0.4-0.7-0.8-1.4-1.2-2.1l-0.3-0.6c-0.1-0.2-0.2-0.3-0.3-0.6c-0.2-0.4-0.4-0.8-0.5-1.2c-0.5-1.5-1-2.9-1.5-4.4
		c-1-2.9-1.9-5.8-2.9-8.5c-0.2-0.7-0.5-1.4-0.7-2.3c-0.1-0.2-0.1-0.4-0.1-0.7c0-0.1,0-0.3-0.1-0.5c0-0.1,0-0.4,0-0.7
		c0-0.1,0-0.3,0.1-0.5l0.1-0.3c0-0.1,0.1-0.3,0.1-0.4c0.2-0.5,0.7-1.2,1.2-1.5c0.3-0.2,0.6-0.3,0.7-0.4c0.1,0,0.2-0.1,0.3-0.1
		c0.2,0-0.2,0,0.4-0.1l0,0l0.1,0l0.1,0l0.1,0c0.3,0,0.6,0,0.8,0c0.2,0,0.3,0.1,0.5,0.1c0.3,0.1,0.5,0.1,0.8,0.2
		c0.5,0.1,0.9,0.3,1.3,0.5c0.8,0.3,1.4,0.7,2.1,1.1c2.5,1.5,4.6,3.2,6.3,5c1.7,1.8,3,3.6,4.1,5.3c1.1,1.6,2,3.1,2.7,4.3
		C130.4,89.9,131.2,91.3,131.2,91.3L131.2,91.3z M130.7,91.6c0,0-0.2-0.3-0.6-0.9c-0.4-0.6-1-1.5-2-2.4c-0.9-1-2.2-2.1-3.7-3.2
		c-1.5-1.1-3.3-2.2-5.3-3.4c-1.9-1.2-4-2.5-6.1-3.6c-0.5-0.3-1.1-0.5-1.6-0.7c-0.3-0.1-0.5-0.2-0.7-0.3c-0.1,0-0.2-0.1-0.2-0.1
		c0,0-0.1,0,0,0c0.1,0,0.2,0,0.3,0c0,0,0,0,0,0l-0.1,0l-0.1,0l0,0c0.6-0.1,0.2,0,0.4-0.1c0.1,0,0.1,0,0.2-0.1c0.1,0,0.3-0.1,0.5-0.3
		c0.2-0.1,0.4-0.3,0.6-0.5c0.2-0.2,0.3-0.4,0.3-0.6c0-0.1,0.1-0.2,0.1-0.3c0,0,0-0.1,0-0.2c0-0.1,0-0.2,0-0.3c0-0.1,0-0.2,0-0.1
		c0,0,0,0,0,0.1c0,0.1,0,0.2,0.1,0.3c0.1,0.6,0.3,1.3,0.5,1.9c0.7,2.8,1.4,5.8,2.1,8.8c0.2,0.8,0.3,1.5,0.5,2.3
		c0.1,0.8,0.2,1.5,0.4,2.3c0.1,1.3,0.6,2.8,1,4.3c0.9,2.9,2.1,5.8,3.6,8.5c1.5,2.6,3.4,5,5.5,6.9c1,0.9,2.2,1.7,3.1,2
		c0.2,0.1,0.4,0.1,0.6,0.1c0.1,0,0-0.1,0,0l0.3,0l0.1,0l0,0c-0.1,0,0.2,0-0.2,0l0,0c0-0.1,0.1-0.1,0.3-0.4c0.4-0.5,0.9-1.5,1.2-2.5
		c0.3-1,0.6-2,0.8-3.1c0.2-1,0.4-2.1,0.4-3.1c0.1-1,0.2-2,0.1-2.9c0-1.9-0.3-3.5-0.7-4.8c-0.4-1.3-0.8-2.3-1.2-2.9
		C130.9,91.9,130.7,91.6,130.7,91.6L130.7,91.6z"/>
</g>
<path class="st3" d="M88.9,196.7c2.2-5.1,5.5-8.9,7.3-8.5c1.8,0.4,1.4,4.9-0.8,10.1c-2.2,5.1-5.5,8.9-7.3,8.5
	C86.3,206.3,86.7,201.8,88.9,196.7z"/>
<path class="st3" d="M217.6,105.9c5-2.3,10-2.9,11.3-1.3s-1.7,4.6-6.7,6.9c-5,2.3-10,2.9-11.3,1.3S212.6,108.1,217.6,105.9z"/>
</svg>
