<?xml version="1.0" encoding="utf-8"?>
<!-- Generator: Adobe Illustrator 20.1.0, SVG Export Plug-In . SVG Version: 6.00 Build 0)  -->
<svg version="1.1" xmlns="http://www.w3.org/2000/svg" xmlns:xlink="http://www.w3.org/1999/xlink" x="0px" y="0px"
	 viewBox="0 0 50.3 58.5" style="enable-background:new 0 0 50.3 58.5;" xml:space="preserve">
<style type="text/css">
	.st0{display:none;}
	.st1{display:inline;stroke:#FFFFFF;stroke-miterlimit:10;}
	.st2{fill:#FFFFFF;stroke:#FFFFFF;stroke-width:2;stroke-miterlimit:10;}
	.st3{fill:#53C8E9;stroke:#53C8E9;stroke-miterlimit:10;}
</style>
<g id="Layer_2" class="st0">
	<rect x="-1.7" y="-1.2" class="st1" width="53.5" height="61.5"/>
</g>
<g id="profilesOFF">
	<g id="star">
		<path id="_Path_" class="st2" d="M45.1,24.3L41,23.6c-3.8-0.7-7.9-3.9-9.1-7L27.4,4.5c-1.2-3.3-3-3.6-4.1-0.5l-3.9,11.2
			c-1.1,3.3-5.1,6.3-9,6.6l-4.8,0.5c-3.9,0.4-5.1,3.3-2.8,6.4l3.6,4.5c2.4,3.4,3.1,7.7,1.8,11.7l-3,8.4c-1.3,3.8,0.3,4.7,3.6,2.1
			l9.8-7.3c3.3-2.3,8.7-2.9,12-1.6l8.8,3.3c3.3,1.1,5.2-0.2,4.1-2.9l-1.7-4.4c-1.1-2.8,0-7.2,2.5-9.7l3.5-3.3
			C50,27.3,48.9,25,45.1,24.3z"/>
	</g>
	<g id="dots">
		<g id="L1">
			<ellipse id="_Path_2" class="st3" cx="27.1" cy="30.7" rx="1.5" ry="1.1"/>
			<ellipse id="_Path_3" class="st3" cx="22.1" cy="32" rx="1" ry="1.2"/>
			<ellipse id="_Path_4" class="st3" cx="24.1" cy="26.3" rx="1.2" ry="1"/>
		</g>
		<g id="L2">
			<circle id="_Path_5" class="st3" cx="33.1" cy="29.6" r="1"/>
			
				<ellipse id="_Path_6" transform="matrix(0.7214 -0.6925 0.6925 0.7214 -17.4366 30.2642)" class="st3" cx="28.9" cy="36.8" rx="1.1" ry="1.4"/>
			<circle id="_Path_7" class="st3" cx="20" cy="37.9" r="1.3"/>
			<circle id="_Path_8" class="st3" cx="16.8" cy="31.5" r="1"/>
		</g>
		<g id="L3">
			<ellipse id="_Path_9" class="st3" cx="37.6" cy="29.1" rx="1.1" ry="0.7"/>
			<ellipse id="_Path_10" class="st3" cx="24.9" cy="20.7" rx="1.1" ry="1"/>
			
				<ellipse id="_Path_11" transform="matrix(0.5426 -0.84 0.84 0.5426 -27.8226 33.3377)" class="st3" cx="16.7" cy="42.2" rx="1.1" ry="0.8"/>
			<ellipse id="_Path_12" class="st3" cx="12.1" cy="29.4" rx="1" ry="0.7"/>
			
				<ellipse id="_Path_13" transform="matrix(0.7148 -0.6993 0.6993 0.7148 -19.192 33.5623)" class="st3" cx="31.6" cy="40.3" rx="1" ry="1.2"/>
		</g>
		<g id="L4">
			
				<ellipse id="_Path_14" transform="matrix(0.9647 -0.2632 0.2632 0.9647 -5.9243 11.9995)" class="st3" cx="41.8" cy="28.1" rx="1.1" ry="0.6"/>
			
				<ellipse id="_Path_15" transform="matrix(0.5408 -0.8411 0.8411 0.5408 -32.8821 32.1126)" class="st3" cx="13" cy="46.2" rx="1" ry="0.8"/>
			
				<ellipse id="_Path_16" transform="matrix(0.2054 -0.9787 0.9787 0.2054 -20.7718 29.8201)" class="st3" cx="8" cy="27.7" rx="0.7" ry="1.1"/>
			<circle id="_Path_17" class="st3" cx="24.9" cy="16" r="0.9"/>
			
				<ellipse id="_Path_18" transform="matrix(0.6471 -0.7624 0.7624 0.6471 -21.1416 41.9807)" class="st3" cx="34.8" cy="43.8" rx="0.6" ry="0.8"/>
		</g>
		<g id="L5">
			
				<ellipse id="_Path_19" transform="matrix(0.6601 -0.7511 0.7511 0.6601 -21.93 44.1173)" class="st3" cx="37.8" cy="46.3" rx="0.6" ry="0.7"/>
			<ellipse id="_Path_20" class="st3" cx="45.5" cy="27.4" rx="0.5" ry="0.6"/>
			
				<ellipse id="_Path_21" transform="matrix(0.6601 -0.7511 0.7511 0.6601 -21.93 44.1173)" class="st3" cx="37.8" cy="46.3" rx="0.6" ry="0.7"/>
			<ellipse id="_Path_22" class="st3" cx="10.1" cy="49.6" rx="0.9" ry="0.8"/>
			
				<ellipse id="_Path_23" transform="matrix(0.7825 -0.6227 0.6227 0.7825 -15.1923 8.4978)" class="st3" cx="4.6" cy="26" rx="0.5" ry="0.7"/>
			<circle id="_Path_24" class="st3" cx="24.9" cy="12" r="0.8"/>
		</g>
		<g id="L6">
			
				<ellipse id="_Path_25" transform="matrix(0.4781 -0.8783 0.8783 0.4781 -42.855 34.2132)" class="st3" cx="7.4" cy="53.2" rx="0.9" ry="0.7"/>
			
				<ellipse id="_Path_26" transform="matrix(0.6097 -0.7926 0.7926 0.6097 -22.2767 50.9143)" class="st3" cx="40.6" cy="48.1" rx="0.7" ry="0.6"/>
			
				<ellipse id="_Path_27" transform="matrix(3.472503e-02 -0.9994 0.9994 3.472503e-02 16.0019 32.5695)" class="st3" cx="24.9" cy="8" rx="0.9" ry="0.7"/>
			
				<ellipse id="_Path_28" transform="matrix(0.4781 -0.8783 0.8783 0.4781 -42.855 34.2132)" class="st3" cx="7.4" cy="53.2" rx="0.9" ry="0.7"/>
			
				<ellipse id="_Path_29" transform="matrix(0.6097 -0.7926 0.7926 0.6097 -22.2767 50.9143)" class="st3" cx="40.6" cy="48.1" rx="0.7" ry="0.6"/>
			
				<ellipse id="_Path_30" transform="matrix(3.472503e-02 -0.9994 0.9994 3.472503e-02 16.0019 32.5695)" class="st3" cx="24.9" cy="8" rx="0.9" ry="0.7"/>
		</g>
	</g>
</g>
</svg>
