<?xml version="1.0" encoding="utf-8"?>
<svg version="1.1" id="resourcesSVG" xmlns="http://www.w3.org/2000/svg" xmlns:xlink="http://www.w3.org/1999/xlink" x="0px"
	 y="0px" viewBox="0 0 640 480" style="enable-background:new 0 0 640 480;" xml:space="preserve">
<path fill="white" d="M413.4,125.5c-11.6-8.9-13.6-25.9-4.1-37.5c8.9-11.6,25.9-13.6,36.8-4.8c11.6,8.9,13.6,25.9,4.8,37.5
	S425,134.3,413.4,125.5z M439.3,441.1l43-78.4c4.1-7.5,2-17-4.8-22.5c-4.1-3.4-8.9-4.1-13.6-3.4l-88.6,8.2c-1.4,0-2.7,0-4.1,0.7
	c-10.2,2.7-15.7,13-13,23.2c0.7,2,1.4,3.4,2,5.5l9.5,14.3c-39.5,25.2-91.4,28.6-134.3,6.8L414.1,167c24.5,6.8,51.1-2,67.5-23.2
	c21.1-28,16.4-68.9-11.6-90.7s-68.9-17-90.7,10.9c-16.4,21.1-17.7,49.1-5.5,71.6L195.2,364.8c-32.7-36.8-43-88-28-134.3l16.4,6.1
	c2,0.7,3.4,0.7,5.5,1.4c10.2,0,19.1-8.2,19.1-18.4c0-1.4,0-2.7-0.7-4.8l-13.6-88.6c-0.7-4.8-2.7-9.5-6.8-13
	c-6.8-5.5-16.4-4.8-22.5,0.7l-65.5,60.7c-1.4,0.7-2,2-3.4,3.4c-6.1,8.2-4.8,20.5,3.4,26.6c1.4,1.4,3.4,2,4.8,2.7l15,5.5
	c-25.2,74.3-3.4,159.5,61.4,210s152.7,51.1,217.5,7.5l8.9,13.6c0.7,1.4,2,2.7,4.1,4.1c8.2,6.1,19.8,4.8,26.6-3.4
	C438,443.2,438.6,441.8,439.3,441.1z"/>
</svg>
