<?xml version="1.0" encoding="utf-8"?>
<svg version="1.1" id="Layer_1" xmlns="http://www.w3.org/2000/svg" xmlns:xlink="http://www.w3.org/1999/xlink" x="0px" y="0px"
	 viewBox="0 0 75.2 76.8" style="enable-background:new 0 0 75.2 76.8;" xml:space="preserve">
<g>
	<path fill="#53c8e9" d="M42.5,35.2c-1,0-1.8,0.4-2.5,1.1c-0.7,0.7-1,1.7-1,2.7s0.3,2,1,2.7s1.5,1.1,2.5,1.1c1,0,1.9-0.4,2.5-1.1
		s1-1.6,1-2.7c0-1.1-0.3-2-1-2.7S43.5,35.2,42.5,35.2z"/>
	<path fill="#53c8e9" d="M67.2,53.4c3.5-5,5.5-11,5.5-17.4c0-5.7-1.6-11-4.3-15.6C65,14.6,60,9.8,53.9,6.6C49,3.9,43.4,2.4,37.5,2.4
		c-6.5,0-12.6,1.8-17.8,5c-5.4,3.2-9.9,7.7-13,13c-2.8,4.6-4.3,10-4.3,15.6c0,7,2.4,13.4,6.4,18.7c2.9,3.9,6.6,7.3,10.9,9.8
		c5.2,3.2,11.3,5,17.8,5c6,0,11.6-1.5,16.4-4.2c0.3-0.2,0.6-0.3,0.9-0.5c12.3,8.9,15.2,8.8,16.1,8c1.2-1.2-0.7-4.6-3.5-18
		C67.3,54.2,67.2,53.7,67.2,53.4z M21.5,44.7c-1,0.7-2.2,1.1-3.5,1.1c-1.7,0-3.2-0.6-4.8-1.8c-0.3-0.2-0.5-0.5-0.5-1
		c0-0.4,0.1-0.7,0.3-1c0.2-0.3,0.6-0.5,1-0.5c0.4,0,0.8,0.1,1,0.3c1,0.8,1.9,1.2,2.9,1.2c0.7,0,1.3-0.2,1.8-0.5
		c0.3-0.3,0.5-0.5,0.5-0.7s0-0.3-0.1-0.4c0-0.1-0.2-0.3-0.3-0.5c-0.4-0.3-1.1-0.9-2.1-0.9h0c-0.9,0-1.8-0.3-2.5-0.6
		c-0.7-0.3-1.3-0.8-1.7-1.4c-0.3-0.5-0.5-1-0.5-1.7c0-1.2,0.5-2.1,1.6-2.9c1-0.7,2.1-1,3.3-1c1.2,0,2.6,0.5,4,1.5
		c0.3,0.2,0.5,0.5,0.6,0.9c0.1,0.4,0,0.7-0.2,1.1c-0.2,0.3-0.5,0.5-0.9,0.6c-0.4,0.1-0.7,0-1.1-0.2c-1-0.7-1.8-1-2.5-1
		c-0.7,0-1.2,0.2-1.6,0.5c-0.3,0.2-0.4,0.4-0.4,0.5s0,0.3,0.1,0.3c0,0.1,0.1,0.2,0.3,0.2c0.4,0.3,1,0.2,2,0.4c0,0,1.9,0.5,2.6,0.8
		c0.8,0.4,1.4,1,1.7,1.6c0.4,0.6,0.6,1.3,0.6,1.9C23.2,42.8,22.7,43.9,21.5,44.7z M32.5,34.7C32.2,35,31.8,35,31.4,35H31v7.8
		c0,0,0.6,0.1,0.9,0.4c0.3,0.3,0.4,0.6,0.4,1.1c0,0.4-0.2,0.8-0.5,1c-0.3,0.3-0.6,0.4-1.1,0.4c-0.8,0-1.4-0.3-2-0.9
		c-0.6-0.6-0.8-1.3-0.8-2.1V35h-1c-0.4,0-0.8,0-1-0.3c-0.3-0.3-0.4-0.6-0.4-1c0-0.4,0.1-0.9,0.4-1.2c0.3-0.3,0.6-0.6,1-0.6h1v-3.5
		c0-0.4,0-0.8,0.3-1c0.3-0.3,0.6-0.4,1-0.4c0.4,0,0.9,0.1,1.1,0.4c0.3,0.3,0.5,0.6,0.5,1V32h0.4c0.4,0,0.8,0.3,1.1,0.6
		c0.3,0.3,0.4,0.6,0.4,1C32.9,34.1,32.8,34.4,32.5,34.7z M49,44.4c0,0.4-0.2,0.7-0.5,1c-0.3,0.3-0.6,0.4-1,0.4
		c-0.4,0-0.7-0.1-0.9-0.3c-0.2-0.2-0.4-0.5-0.5-0.8c-1.1,0.8-2.3,1.2-3.6,1.2c-1.8,0-3.3-0.7-4.5-2s-1.8-2.9-1.8-4.7
		c0-1.8,0.6-3.4,1.8-4.7s2.7-2,4.5-2c1.3,0,2.5,0.4,3.6,1.2c0.1-0.3,0.3-0.6,0.5-0.8c0.2-0.2,0.6-0.3,0.9-0.3c0.4,0,0.7,0.1,1,0.4
		c0.3,0.3,0.5,0.6,0.5,1V44.4z M62,34.8c-0.3,0.3-0.6,0.4-1,0.4c-1.7,0-2.9,1.3-3.9,4v5.1c0,0.4-0.1,0.7-0.4,1
		c-0.3,0.3-0.6,0.4-1,0.4c-0.4,0-0.8-0.1-1.1-0.4c-0.3-0.3-0.5-0.6-0.5-1V33.8c0-0.4,0.2-0.7,0.5-1s0.7-0.4,1.1-0.4
		c0.4,0,0.7,0.1,1,0.4s0.4,0.6,0.4,1V34c0-0.5,1-0.9,1.7-1.2c0.7-0.3,1.4-0.4,2-0.4c0.6,0,1,0.1,1.3,0.4c0.3,0.3,0.4,0.6,0.4,1
		S62.2,34.5,62,34.8z"/>
</g>
</svg>
