<?xml version="1.0" encoding="utf-8"?>
<svg version="1.1" xmlns="http://www.w3.org/2000/svg" xmlns:xlink="http://www.w3.org/1999/xlink" x="0px" y="0px"
	 viewBox="0 0 64 64" style="enable-background:new 0 0 64 64;" xml:space="preserve">

<path d="M32,1c17.1,0,31,13.9,31,31S49.1,63,32,63S1,49.1,1,32S14.9,1,32,1 M32,0C14.3,0,0,14.3,0,32s14.3,32,32,32s32-14.3,32-32
	S49.7,0,32,0z"/>

<g id="wave">
	<g>
		<path d="M53.1,45.9c-1.3,0-2.5-0.1-3.8-0.3c-3.2-0.6-9.8-1.8-11.7-7.2c-1.4-3.9,0.2-8.8,4-12.3c-2.9-1.4-7-2.6-11.5-1.5
			c-4.7,1.1-8,4.3-10.3,7c-1.4,1.7-2.3,2.8-3,3.8c-0.9,1.3-1.6,2.4-3.2,3.7c-3.4,2.7-7.4,4.2-11.7,4.4l0-1c4.1-0.2,7.9-1.6,11.1-4.2
			c1.5-1.3,2.1-2.2,3.1-3.5c0.7-1,1.6-2.2,3-3.9c2.4-2.8,5.9-6.1,10.8-7.3c5.1-1.3,9.8,0.4,12.8,1.9l0.7,0.3L43,26.3
			c-3.9,3.3-5.6,8-4.3,11.7c1.7,4.9,7.9,6,10.9,6.5c3.9,0.7,8,0.2,11.6-1.3l0.4,0.9C58.9,45.3,56,45.9,53.1,45.9z"/>
	</g>
	<g>
		<path d="M2,40.9c-0.3,0-0.5-0.2-0.5-0.5c0-0.3,0.2-0.5,0.5-0.5C3,39.9,4,39.7,5,39.5c1.6-0.4,3.1-0.9,4.5-1.6
			c0.2-0.1,0.5,0,0.7,0.2c0.1,0.2,0,0.5-0.2,0.7c-1.5,0.7-3.1,1.3-4.7,1.7C4.2,40.7,3.1,40.9,2,40.9C2,40.9,2,40.9,2,40.9z"/>
	</g>
	<g>
		<path d="M23,31.9c-0.1,0-0.2,0-0.3-0.1c-0.2-0.2-0.2-0.5-0.1-0.7c2.1-2.5,4.8-4.3,8-5.1c1.9-0.5,3.9-0.7,5.9-0.6
			c0.3,0,0.5,0.3,0.5,0.5c0,0.3-0.3,0.5-0.5,0.5c-1.9-0.1-3.8,0.1-5.6,0.5c-2.9,0.8-5.5,2.4-7.5,4.7C23.3,31.8,23.1,31.9,23,31.9z"
			/>
	</g>

</g>
</svg>
