<?xml version="1.0" encoding="utf-8"?>
<!-- Generator: Adobe Illustrator 23.0.1, SVG Export Plug-In . SVG Version: 6.00 Build 0)  -->
<svg version="1.1" id="Layer_1" xmlns="http://www.w3.org/2000/svg" xmlns:xlink="http://www.w3.org/1999/xlink" x="0px" y="0px"
	 viewBox="0 0 64 64" style="enable-background:new 0 0 64 64;" xml:space="preserve">
<path id="ellipse" d="M32,1.5c16.8,0,30.5,13.7,30.5,30.5S48.8,62.5,32,62.5S1.5,48.8,1.5,32C1.5,15.2,15.2,1.5,32,1.5 M32,0.5
	C14.6,0.5,0.5,14.6,0.5,32S14.6,63.5,32,63.5S63.5,49.4,63.5,32S49.4,0.5,32,0.5z"/>
<g id="birdBod">
	<path d="M15.1,53.2c-0.1,0-0.2,0-0.3-0.1c-0.2-0.1-0.3-0.4-0.2-0.7c0,0,0,0,0,0c0.8-1.3,1.4-2.6,1.9-4.1c1.5-4.9,0.9-10.5,0.7-12.4
		c0-0.3-0.1-0.5-0.1-0.6c-0.1-1-0.1-1.7-0.2-2.2s-0.1-0.9-0.1-1.3c0-0.2,0-0.4,0-0.6s0-0.2,0-0.2c0-0.3,0.2-0.5,0.5-0.5
		s0.5,0.2,0.5,0.5c0,0.1,0,0.2,0,0.3s0,0.3,0,0.5c0,0.4,0,0.8,0.1,1.2c0,0.5,0.1,1.2,0.2,2.2c0,0.1,0,0.3,0.1,0.6
		c0.2,1.9,0.9,7.7-0.7,12.8c-0.5,1.5-1.2,3-2,4.3C15.5,53.2,15.3,53.2,15.1,53.2z"/>
	<path d="M52.4,37.5c-0.1,0-0.3-0.1-0.3-0.1c-1.6-1.5-3.5-2.6-5.6-3.3c-1-0.3-2-0.5-3.1-0.5c-1.2-0.1-2.5-0.3-3.7-0.6
		c-0.6-0.2-1.1-0.3-1.7-0.5l0,0c0.8,0.5,1.6,1,2.5,1.3c0.2,0.1,0.3,0.4,0.2,0.7c-0.1,0.2-0.4,0.3-0.6,0.2c-0.9-0.4-1.8-0.9-2.7-1.4
		c-1.1-0.8-2.2-1.6-3.1-2.6c-0.2-0.2-0.2-0.5,0-0.7c0.2-0.2,0.4-0.2,0.7-0.1c2.5,1.6,5.4,2.5,8.4,2.7c1.1,0.1,2.2,0.3,3.3,0.6
		c2.2,0.7,4.3,1.9,6,3.5c0.2,0.2,0.2,0.5,0,0.7C52.6,37.4,52.5,37.5,52.4,37.5L52.4,37.5z"/>
	<path d="M34.8,30.8c-0.3,0-0.5-0.2-0.5-0.5s0.2-0.5,0.5-0.5c5.7,0,6.6-0.6,6.8-0.8c-0.1-0.2-0.2-0.3-0.4-0.5
		c-0.2-0.2-0.3-0.5-0.1-0.7c0.2-0.2,0.5-0.3,0.7-0.1c0,0,0,0,0,0c0.5,0.3,0.8,0.8,0.8,1.3C42.4,30,41.4,30.8,34.8,30.8z"/>
	<path d="M51.3,52.1c-0.1,0-0.2,0-0.3-0.1c-1.6-1.3-3.5-2.1-5.5-2.5c-2.3-0.4-4.5-1.4-6.3-2.9c-1.3-1.2-4.5-3.9-4.1-7.4
		c0.3-2.3,1.8-4.3,4-5.1c1-0.2,2.1-0.1,3.1,0.1c1.3,0.2,2.6,0.6,3.8,1.2c0.7,0.4,1.6,0.6,2.4,0.6c1-0.1,2-0.1,2.9,0.1
		c0.2,0,0.4,0.1,0.7,0.2c0.1-1.2-0.2-2.3-0.9-3.3c-0.7-0.9-1.6-1.2-3.5-1.8c-1-0.3-2.2-0.7-3.7-1.4c-1.2-0.5-2.2-1-2.8-1.3
		c-0.1,0-0.1-0.1-0.2-0.2l-3.3-4.6c-0.2-0.2-0.1-0.5,0.1-0.7c0.2-0.2,0.5-0.1,0.7,0.1l0,0l3.2,4.5c0.6,0.3,1.5,0.7,2.7,1.2
		c1.5,0.6,2.7,1,3.6,1.3c1.9,0.6,3.1,1,4,2.2c0.9,1.3,1.3,3,1,4.6c0,0.1-0.1,0.3-0.2,0.3c-0.1,0.1-0.3,0.1-0.4,0
		c-0.4-0.1-0.7-0.2-1.1-0.3c-0.9-0.2-1.8-0.2-2.8-0.1c-1,0-2-0.2-2.9-0.7c-1.1-0.5-2.3-0.9-3.5-1.1c-0.9-0.3-1.8-0.3-2.6-0.2
		c-1.8,0.7-3,2.4-3.2,4.3c-0.4,2.9,2.4,5.3,3.7,6.5c1.7,1.4,3.7,2.4,5.9,2.7c2.2,0.4,4.2,1.3,5.9,2.7c0.2,0.2,0.2,0.5,0.1,0.7
		C51.6,52,51.4,52.1,51.3,52.1z"/>
</g>
<g id="hat">
	<path d="M16.2,30.6c-0.1,0-0.2,0-0.2-0.1c-3.3-1.7-5.1-4.1-4.8-6.1c0.3-1.5,1.7-2.5,3.6-3.7c1.5-0.9,3-1.6,4.6-2.3
		c1.6-1,2.9-2.4,3.7-4.2c0.9-2,2.3-3.6,4.1-4.8c2.7-1.7,4.8-2.1,6.2-1.1c1.7,1.2,1.4,3.9,1.3,4.7c0,0.1,0,0.1,0,0.2
		c0,0.1,0,0.2-0.1,0.3c-1,1.2-2.2,2.4-3.5,3.4c-1.9,1.6-4,2.9-6.3,4c-1.3,0.7-2.6,1.4-3.9,2.2l0.7-0.3c1.4-0.6,2.9-1.1,4.4-1.6
		c2.7-0.8,5.3-1.6,7.8-4c0.5-0.5,0.9-0.9,1.1-1.1c0.1-0.1,0.2-0.1,0.3-0.2c1.2-0.1,2.3-0.1,3.5,0c1.7,0.1,3.4,0.4,3.8,1.5
		s-0.7,2.3-1.2,2.8c-2.4,2.4-5.8,3.1-9.8,4c-3.3,0.6-6.5,1.6-9.6,2.9c-2,0.9-3.8,2-5.5,3.3C16.4,30.6,16.3,30.6,16.2,30.6z
		 M31.6,8.8c-1.4,0.1-2.7,0.6-3.9,1.5c-1.7,1.1-3,2.6-3.8,4.4c-0.8,1.9-2.3,3.5-4.1,4.6c-1.5,0.6-3,1.4-4.5,2.2
		c-1.7,1.1-2.9,1.9-3.1,3c-0.3,1.5,1.3,3.5,4,4.9c1.7-1.3,3.5-2.4,5.5-3.2c3.1-1.3,6.4-2.3,9.8-2.9c3.8-0.8,7.1-1.5,9.3-3.7
		c1-1.1,1.1-1.5,1-1.7c-0.2-0.6-2.2-0.8-2.9-0.8c-1-0.1-2.1-0.1-3.1,0c-0.2,0.3-0.6,0.6-1,1c-2.8,2.5-5.4,3.3-8.2,4.2
		c-1.5,0.4-2.9,0.9-4.3,1.5c-2.5,1.1-4.7,2.6-6.7,4.4c-0.2,0.2-0.5,0.2-0.7,0c-0.2-0.2-0.2-0.5,0-0.7c1-1.2,2.2-2.4,3.4-3.4
		c1.9-1.6,4-2.9,6.3-4c2.2-1,4.2-2.3,6.1-3.9c1.2-1,2.2-2,3.2-3.2v0c0.1-0.7,0.3-3-0.9-3.8C32.5,8.9,32,8.8,31.6,8.8z"/>
	<path d="M35.3,17.1c-0.1,0-0.1,0-0.2,0c-0.2-0.1-0.4-0.4-0.2-0.6c0,0,0,0,0,0c0.3-0.6,0.3-1.2,0-1.8c-0.2-0.4-0.5-0.7-0.9-0.9
		c-0.2-0.1-0.3-0.4-0.2-0.7c0,0,0,0,0,0c0.1-0.2,0.4-0.3,0.7-0.2c0,0,0,0,0,0c0.6,0.3,1,0.8,1.3,1.3c0.4,0.9,0.4,1.8,0,2.7
		C35.7,17,35.5,17.1,35.3,17.1z"/>
</g>
<g id="eye">
	<path d="M31.8,27.5c0.6,0,1,0.4,1,1s-0.4,1-1,1s-1-0.4-1-1c0-0.3,0.1-0.5,0.3-0.7C31.2,27.6,31.5,27.5,31.8,27.5z"/>
	<path d="M31.3,30.8c-1.2,0.1-2.3-0.9-2.3-2.1c0.2-1.3,1.4-2.2,2.6-2c1.1,0.1,1.9,1,2,2C33.5,29.9,32.5,30.8,31.3,30.8z M31.3,27.8
		c-0.6-0.1-1.2,0.4-1.2,1c0,0,0,0,0,0c0.2,0.7,0.8,1.1,1.5,0.9c0.5-0.1,0.8-0.5,0.9-0.9C32.5,28.1,31.9,27.7,31.3,27.8
		C31.3,27.7,31.3,27.7,31.3,27.8L31.3,27.8z"/>
</g>
</svg>
