<?xml version="1.0" encoding="utf-8"?>
<svg version="1.1" xmlns="http://www.w3.org/2000/svg" xmlns:xlink="http://www.w3.org/1999/xlink" x="0px" y="0px"
	 viewBox="0 0 64 64" style="enable-background:new 0 0 64 64;" xml:space="preserve">

<path id="ellipse" d="M32,1c17.1,0,31,13.9,31,31S49.1,63,32,63S1,49.1,1,32S14.9,1,32,1 M32,0C14.3,0,0,14.3,0,32s14.3,32,32,32
	s32-14.3,32-32S49.7,0,32,0z"/>

<g id="ground">
	<path d="M58.9,45.5H47.1c-0.3,0-0.5-0.2-0.5-0.5s0.2-0.5,0.5-0.5h11.7c0.3,0,0.5,0.2,0.5,0.5S59.1,45.5,58.9,45.5z"/>
	<path d="M17.8,45.3H5.1c-0.3,0-0.5-0.2-0.5-0.5s0.2-0.5,0.5-0.5h12.6c0.3,0,0.5,0.2,0.5,0.5S18,45.3,17.8,45.3z"/>
</g>
<g id="star">

	<g id="dots">
		<ellipse cx="32.3" cy="29.4" rx="0.8" ry="0.6"/>
		<ellipse cx="35" cy="39.8" rx="0.8" ry="0.8"/>
		<ellipse cx="29.1" cy="40.7" rx="0.8" ry="0.8"/>
		<ellipse cx="30.8" cy="37.3" rx="0.8" ry="0.8"/>
		<ellipse cx="34.1" cy="36.5" rx="0.8" ry="0.8"/>
		<ellipse cx="32.3" cy="33.7" rx="0.8" ry="0.8"/>
		<ellipse cx="32.3" cy="24" rx="0.5" ry="0.6"/>
		<path d="M31.8,26.7c0,0.3,0.2,0.6,0.5,0.7c0.3,0,0.6-0.2,0.7-0.5c0-0.1,0-0.1,0-0.2c0-0.2-0.1-0.3-0.2-0.4
			c-0.1-0.1-0.3-0.2-0.4-0.2c-0.1,0-0.3,0.1-0.4,0.2C31.8,26.4,31.8,26.5,31.8,26.7z"/>
		<ellipse cx="32.3" cy="21.4" rx="0.5" ry="0.6"/>
		<ellipse transform="matrix(0.2589 -0.9659 0.9659 0.2589 -5.733 62.807)" cx="38.1" cy="35.1" rx="0.7" ry="0.7"/>
		<ellipse transform="matrix(0.9927 -0.1205 0.1205 0.9927 -3.8962 5.1797)" cx="40.9" cy="34.8" rx="0.6" ry="0.5"/>
		<ellipse transform="matrix(0.9416 -0.3368 0.3368 0.9416 -8.7221 17.4919)" cx="46.1" cy="33.9" rx="0.3" ry="0.4"/>
		<ellipse transform="matrix(0.9895 -0.1449 0.1449 0.9895 -4.5083 6.6969)" cx="43.7" cy="34.3" rx="0.7" ry="0.4"/>
		<path d="M26.3,43c0.3-0.3,0.7-0.3,1-0.2c0.3,0.1,0.4,0.5,0.3,0.8c0,0,0,0.1,0,0.1c-0.1,0.1-0.3,0.2-0.4,0.3c-0.1,0-0.2,0-0.3,0
			c-0.1,0-0.2-0.1-0.3-0.1C26.3,43.7,26.1,43.4,26.3,43C26.3,43.1,26.3,43,26.3,43z"/>
		<ellipse transform="matrix(0.7921 -0.6104 0.6104 0.7921 -24.5821 24.1579)" cx="23.2" cy="48.2" rx="0.6" ry="0.5"/>
		<ellipse transform="matrix(0.8649 -0.502 0.502 0.8649 -19.6394 18.8783)" cx="25.2" cy="45.9" rx="0.6" ry="0.5"/>
		<ellipse transform="matrix(0.3898 -0.9209 0.9209 0.3898 -35.1617 49.9609)" cx="20.1" cy="51.5" rx="0.3" ry="0.5"/>
		<ellipse transform="matrix(0.6901 -0.7237 0.7237 0.6901 -29.3881 30.9073)" cx="21.4" cy="49.8" rx="0.6" ry="0.5"/>
		<ellipse transform="matrix(0.957 -0.29 0.29 0.957 -10.7504 12.614)" cx="37.2" cy="42.6" rx="0.7" ry="0.6"/>
		<path d="M39.2,43.8c-0.2-0.2-0.6-0.2-0.8,0c-0.1,0.1-0.1,0.2-0.1,0.3c0,0.2,0.1,0.4,0.2,0.5c0.2,0.2,0.6,0.2,0.8,0
			c0.1-0.1,0.2-0.3,0.1-0.5C39.4,43.9,39.3,43.9,39.2,43.8z"/>
		<ellipse transform="matrix(0.8174 -0.576 0.576 0.8174 -19.3835 33.2785)" cx="42.8" cy="47.2" rx="0.4" ry="0.3"/>
		<ellipse transform="matrix(0.5302 -0.8479 0.8479 0.5302 -19.7398 56.2517)" cx="40.9" cy="45.9" rx="0.4" ry="0.6"/>
		<ellipse transform="matrix(0.9441 -0.3295 0.3295 0.9441 -10.5258 10.9388)" cx="27" cy="36.5" rx="0.7" ry="0.7"/>
		<path d="M23.8,35.6c0.2,0.1,0.5,0.1,0.7-0.1c0.1,0,0.1-0.1,0.1-0.2c0.1-0.2,0-0.4-0.1-0.5c-0.1-0.1-0.2-0.1-0.3-0.2
			c-0.3-0.1-0.6,0-0.8,0.2C23.2,35.2,23.4,35.4,23.8,35.6z"/>
		<ellipse transform="matrix(0.5655 -0.8247 0.8247 0.5655 -18.968 29.9085)" cx="18.9" cy="33" rx="0.4" ry="0.3"/>
		<ellipse transform="matrix(0.2797 -0.9601 0.9601 0.2797 -17.4836 44.7867)" cx="21.1" cy="34" rx="0.4" ry="0.7"/>
		<ellipse cx="32.3" cy="19.6" rx="0.5" ry="0.4"/>
	</g>

	<g>
		<path d="M18,55.5c-0.3,0-0.6-0.1-0.8-0.2c-0.5-0.3-0.8-1.1-0.1-3l2.3-6.1c0.1-0.4,0.2-0.8,0.3-1.2c0.4-2.4-0.2-4.9-1.6-6.8
			l-2.7-3.3c-1-1.2-1.2-2.5-0.8-3.5c0.5-1.1,1.6-1.8,3.2-1.9l3.7-0.3c0.7-0.1,1.4-0.2,2.1-0.5c1.8-0.7,3.3-2,4.2-3.7
			c0-0.1,0.1-0.2,0.1-0.3l2.9-8.2c0,0,0,0,0,0c0.6-1.5,1.3-1.9,1.9-1.9c0.9,0,1.6,0.8,2.2,2.3l3.4,8.8c0.8,1.6,2,2.9,3.6,3.7
			c0.9,0.5,1.9,0.9,2.9,1.1l3.1,0.5c1.8,0.3,2.9,1,3.2,2.1c0.1,0.5,0.2,1.5-1.1,2.6l-2.6,2.4c-1.7,1.6-2.5,4.6-1.8,6.5l1.3,3.2
			c0.6,1.4,0.1,2.1-0.2,2.5c-0.7,0.7-1.9,0.8-3.5,0.3L36.4,48c-2.9-0.9-6-0.5-8.6,1.1l-7.4,5.3C19.3,55.2,18.5,55.5,18,55.5z
			 M28.6,25c0,0,0,0.1,0,0.1c-1,2-2.7,3.5-4.7,4.2c-0.7,0.3-1.5,0.5-2.3,0.6l-3.7,0.3c-1.2,0.1-2.1,0.6-2.4,1.3
			c-0.3,0.7-0.1,1.6,0.6,2.5l2.7,3.3c1.6,2.2,2.3,4.9,1.8,7.6c-0.1,0.5-0.2,0.9-0.3,1.4L18,52.6c-0.5,1.3-0.3,1.8-0.2,1.9
			c0.1,0.1,0.8,0.1,2.1-0.9l7.4-5.3c2.8-1.8,6.3-2.2,9.4-1.2l6.6,2.4c1.4,0.4,2.2,0.3,2.5-0.1c0.3-0.4,0.1-1,0-1.4l-1.3-3.2
			c-0.9-2.3,0-5.7,2-7.6l2.6-2.4c0.6-0.6,0.9-1.1,0.8-1.6c-0.2-0.6-1.1-1.1-2.4-1.4l-3.1-0.5c-1.1-0.2-2.2-0.6-3.2-1.2
			c-1.8-0.9-3.2-2.4-4-4.2L33.8,17c-0.4-1.1-0.9-1.6-1.2-1.6c-0.2,0-0.6,0.3-0.9,1.2l-2.9,8.2C28.7,24.9,28.6,25,28.6,25
			C28.6,25,28.6,25,28.6,25z M28.6,25C28.6,25,28.6,25,28.6,25C28.6,25,28.6,25,28.6,25z M28.1,25L28.1,25L28.1,25z"/>
	</g>
</g>

<g id="birds">
	<path d="M46.9,18.8c-0.2,0-0.4-0.1-0.4-0.3c-0.4-0.8-1.1-1.4-1.9-1.8c-0.7-0.3-1.4-0.4-2.2-0.3c-0.3,0-0.5-0.2-0.6-0.4
		c0-0.3,0.2-0.5,0.4-0.6c0.9-0.1,1.9,0,2.7,0.4c0.8,0.3,1.4,0.9,1.9,1.5c0.5-0.7,1.2-1.2,1.9-1.5c0.9-0.4,1.8-0.5,2.7-0.4
		c0.3,0,0.5,0.3,0.4,0.6c0,0.3-0.3,0.5-0.6,0.4c-0.7-0.1-1.5,0-2.2,0.3c-0.8,0.3-1.5,1-1.9,1.8C47.2,18.7,47.1,18.8,46.9,18.8z"/>
	<path d="M11.2,25.6c-0.2,0-0.3-0.1-0.4-0.1c-0.4-0.4-1-0.7-1.6-0.7c-0.6-0.1-1.1,0-1.6,0.1C7.3,25,7,24.8,6.9,24.5
		C6.9,24.3,7,24,7.3,23.9c0.6-0.1,1.3-0.2,1.9-0.1c0.7,0,1.4,0.2,2,0.6c0.6-0.4,1.3-0.7,2-0.6c0.6-0.1,1.2,0,1.9,0.1
		c0.3,0.1,0.4,0.3,0.4,0.6c-0.1,0.3-0.3,0.4-0.6,0.4c-0.5-0.1-1.1-0.2-1.6-0.1c-0.7,0-1.3,0.2-1.7,0.7
		C11.4,25.6,11.3,25.6,11.2,25.6z"/>
</g>
</svg>
