<?xml version="1.0" encoding="utf-8"?>
<svg version="1.1" id="Layer_1" xmlns="http://www.w3.org/2000/svg" xmlns:xlink="http://www.w3.org/1999/xlink" x="0px" y="0px"
	 viewBox="0 0 64 64" style="enable-background:new 0 0 64 64;" xml:space="preserve">

<path d="M32,1c17.1,0,31,13.9,31,31S49.1,63,32,63S1,49.1,1,32S14.9,1,32,1 M32,0C14.3,0,0,14.3,0,32s14.3,32,32,32s32-14.3,32-32
	S49.7,0,32,0z"/>

<g id="rightFlag">
	<path d="M52.7,46.9l-0.4-1.3c-1-3.4-4.1-4.7-7.1-6c-3.1-1.3-6.4-2.7-6.7-6.5l0-0.2l6.3-10h0.8l0,0.5c0.1,2.6,1.9,5.5,3.8,8.5
		c2.9,4.5,5.8,9.1,3.7,13.7L52.7,46.9z M39.5,33.2c0.3,3.1,3,4.2,6.1,5.5c2.7,1.1,5.7,2.4,7.1,5.3c0.9-3.7-1.6-7.7-4.1-11.5
		c-1.7-2.7-3.3-5.2-3.8-7.6L39.5,33.2z"/>
	<path d="M28.1,47.1c-0.1,0-0.2,0-0.3-0.1c-0.2-0.2-0.3-0.5-0.1-0.7L44.8,20c0.2-0.2,0.5-0.3,0.7-0.1c0.2,0.2,0.3,0.5,0.1,0.7
		L28.5,46.9C28.4,47,28.2,47.1,28.1,47.1z"/>
	<path d="M46,21c-1,0-1.9-0.8-1.9-1.9s0.8-1.9,1.9-1.9s1.9,0.8,1.9,1.9S47,21,46,21z M46,18.2c-0.5,0-0.9,0.4-0.9,0.9S45.5,20,46,20
		s0.9-0.4,0.9-0.9S46.4,18.2,46,18.2z"/>
</g>

<g id="leftFlag">
	<path d="M39,47.1c-0.2,0-0.3-0.1-0.4-0.2L21.5,20.5c-0.2-0.2-0.1-0.5,0.1-0.7c0.2-0.1,0.5-0.1,0.7,0.1l17.1,26.4
		c0.2,0.2,0.1,0.5-0.1,0.7C39.2,47.1,39.1,47.1,39,47.1z"/>
	<path d="M21.1,21c-1,0-1.9-0.8-1.9-1.9s0.8-1.9,1.9-1.9s1.9,0.8,1.9,1.9S22.2,21,21.1,21z M21.1,18.2c-0.5,0-0.9,0.4-0.9,0.9
		s0.4,0.9,0.9,0.9s0.9-0.4,0.9-0.9S21.6,18.2,21.1,18.2z"/>
	<path d="M21.5,38.9l-6.7-10.3c-0.3-0.5-0.4-1-0.3-1.5c0.1-0.5,0.4-1,0.9-1.3l0.3,0.4l-0.3-0.4l4.3-2.8c0.5-0.3,1-0.4,1.5-0.3
		c0.5,0.1,1,0.4,1.3,0.9l5.6,8.6c0.6,0.9,0.3,2.2-0.6,2.8L21.5,38.9z M15.9,26.6L15.9,26.6c-0.2,0.2-0.4,0.4-0.5,0.7
		c-0.1,0.3,0,0.6,0.1,0.8l6.2,9.5l5.2-3.4c0.5-0.3,0.6-1,0.3-1.5l-5.6-8.6c-0.2-0.2-0.4-0.4-0.7-0.5c-0.3-0.1-0.6,0-0.8,0.1
		L15.9,26.6z"/>
	<path d="M15.7,44.2c-0.1,0-0.3,0-0.4-0.1c-0.4-0.1-0.6-0.3-0.8-0.6c-0.6-0.9-0.9-4.3-1.1-6c-1.8-1-3.5-2.1-5-3.4L8.3,34
		c-0.3-0.6-0.3-1-0.2-1.2c0.1-0.4,0.3-0.7,0.7-0.9l6.5-4.2l7,10.7c0.5,0.7,0.3,1.6-0.4,2.1l-0.1,0L16.6,44
		C16.3,44.1,16,44.2,15.7,44.2z M9.1,33.4c1.5,1.3,3.2,2.4,5,3.4l0.2,0.1l0,0.3c0.3,3.7,0.7,5.4,0.9,5.7c0.1,0.1,0.2,0.2,0.3,0.2
		c0.1,0,0.3,0,0.5-0.1l5.2-3.4c0.2-0.2,0.3-0.5,0.1-0.7l-6.4-9.9l-5.7,3.7C9.2,32.8,9.1,33,9,33.1l0,0.1C9,33.2,9,33.3,9.1,33.4z"/>
</g>

</svg>
