<?xml version="1.0" encoding="utf-8"?>
<svg version="1.1" id="Layer_1" xmlns="http://www.w3.org/2000/svg" xmlns:xlink="http://www.w3.org/1999/xlink" x="0px" y="0px"
	 viewBox="0 0 64 64" style="enable-background:new 0 0 64 64;" xml:space="preserve">

<path id="ellipse" d="M32,1c17.1,0,31,13.9,31,31S49.1,63,32,63S1,49.1,1,32S14.9,1,32,1 M32,0C14.3,0,0,14.3,0,32s14.3,32,32,32
	s32-14.3,32-32S49.7,0,32,0z"/>

<g id="ground">
	<path d="M53.7,52.3c-0.1,0-0.2,0-0.3-0.1c-3.3-2-6.9-3.5-10.7-4.4c-1.3-0.3-2.6-0.5-3.9-0.7c-0.3,0-0.5-0.3-0.4-0.5
		c0-0.3,0.3-0.5,0.5-0.4c1.4,0.1,2.7,0.4,4.1,0.7c3.9,0.9,7.6,2.5,11,4.5c0.2,0.1,0.3,0.5,0.2,0.7C54,52.2,53.9,52.3,53.7,52.3z"/>
	<path d="M23.3,45.5c-3.7,0-7.5-0.2-11.2-0.6c-2.6-0.2-5.1-0.6-7.5-1c-0.3,0-0.5-0.3-0.4-0.6c0-0.3,0.3-0.5,0.6-0.4
		c2.4,0.4,4.9,0.8,7.5,1c4.3,0.5,8.7,0.6,13,0.6c0.3,0,0.5,0.2,0.5,0.5s-0.2,0.5-0.5,0.5C24.5,45.5,23.9,45.5,23.3,45.5z"/>
</g>

<g id="rays">
	<path d="M25.5,18.2c-0.1,0-0.3,0-0.4-0.1l-3.6-3.6c-0.2-0.2-0.2-0.5,0-0.7s0.5-0.2,0.7,0l3.6,3.6c0.2,0.2,0.2,0.5,0,0.7
		C25.8,18.2,25.6,18.2,25.5,18.2z"/>
	<path d="M41.3,24.5c-0.3,0-0.5-0.2-0.5-0.5s0.2-0.5,0.5-0.5h7.2l0,0c0.3,0,0.5,0.2,0.5,0.5s-0.2,0.5-0.5,0.5H41.3L41.3,24.5z"/>
	<path d="M15.4,24.7c-0.3,0-0.5-0.2-0.5-0.5s0.2-0.5,0.5-0.5H23l0,0c0.3,0,0.5,0.2,0.5,0.5s-0.2,0.5-0.5,0.5H15.4L15.4,24.7z"/>
	<path d="M38.6,18c-0.1,0-0.3,0-0.4-0.1c-0.2-0.2-0.2-0.5,0-0.7l3.4-3.4c0.2-0.2,0.5-0.2,0.7,0s0.2,0.5,0,0.7L39,17.9
		C38.9,18,38.7,18,38.6,18z"/>
	<path d="M31.9,15.4c-0.3,0-0.5-0.2-0.5-0.5v-4.6c0-0.3,0.2-0.5,0.5-0.5c0.3,0,0.5,0.2,0.5,0.5v4.6C32.4,15.2,32.1,15.4,31.9,15.4z"
		/>
	<path d="M28.4,16.2c-0.2,0-0.4-0.1-0.5-0.3L27,13.7c-0.1-0.3,0-0.5,0.3-0.7c0.3-0.1,0.5,0,0.7,0.3l0.9,2.2c0.1,0.3,0,0.5-0.3,0.7
		C28.6,16.2,28.5,16.2,28.4,16.2z"/>
	<path d="M23.6,21.2c-0.1,0-0.1,0-0.2,0l-2.4-1c-0.3-0.1-0.4-0.4-0.3-0.7s0.4-0.4,0.7-0.3l2.4,1c0.3,0.1,0.4,0.4,0.3,0.7
		C24,21.1,23.8,21.2,23.6,21.2z"/>
	<path d="M42.6,29c-0.1,0-0.1,0-0.2,0l-2.1-0.9C40,28,39.9,27.7,40,27.4c0.1-0.3,0.4-0.4,0.7-0.3l2.1,0.9c0.3,0.1,0.4,0.4,0.3,0.7
		C43,28.8,42.8,29,42.6,29z"/>
	<path d="M21.3,29c-0.2,0-0.4-0.1-0.5-0.3c-0.1-0.3,0-0.5,0.3-0.7l2.4-1c0.3-0.1,0.5,0,0.7,0.3c0.1,0.3,0,0.5-0.3,0.7l-2.4,1
		C21.4,29,21.4,29,21.3,29z"/>
	<path d="M40.6,21c-0.2,0-0.4-0.1-0.5-0.3c-0.1-0.3,0-0.5,0.3-0.7l2-0.8c0.3-0.1,0.5,0,0.7,0.3c0.1,0.3,0,0.5-0.3,0.7l-2,0.8
		C40.7,21,40.7,21,40.6,21z"/>
	<path d="M35.5,16c-0.1,0-0.1,0-0.2,0c-0.3-0.1-0.4-0.4-0.3-0.7l0.8-2c0.1-0.3,0.4-0.4,0.7-0.3c0.3,0.1,0.4,0.4,0.3,0.7l-0.8,2
		C35.9,15.9,35.7,16,35.5,16z"/>
</g>

<g id="lighthouse">
	<path d="M35.9,29.2h-7.7c-0.2,0-0.3-0.1-0.4-0.2l-1.2-1.9c-0.1-0.2-0.1-0.3,0-0.5c0.1-0.2,0.3-0.3,0.4-0.3h10
		c0.2,0,0.3,0.1,0.4,0.2c0.1,0.2,0.1,0.3,0,0.5L36.3,29C36.2,29.1,36.1,29.2,35.9,29.2z M28.5,28.2h7.1l0.5-0.9h-8.2L28.5,28.2z"/>
	<path d="M34.9,50.8H29c0,0-0.1,0-0.1,0l-2.3-0.5c-0.2-0.1-0.4-0.3-0.4-0.5l1.4-21.1c0-0.3,0.2-0.5,0.5-0.5h7.7
		c0.3,0,0.5,0.2,0.5,0.5l1.4,21.1c0,0.2-0.2,0.5-0.4,0.5L35,50.8C35,50.8,34.9,50.8,34.9,50.8z M29.1,49.8h5.8l1.8-0.4l-1.3-20.2
		h-6.8l-1.3,20.2L29.1,49.8z"/>
	<path d="M35.3,27.3h-6.6c-0.3,0-0.5-0.2-0.5-0.5v-5.4c0-0.3,0.2-0.5,0.5-0.5h6.6c0.3,0,0.5,0.2,0.5,0.5v5.4
		C35.8,27.1,35.6,27.3,35.3,27.3z M29.2,26.3h5.6v-4.4h-5.6V26.3z"/>
	<path d="M32.9,20.5h-2c-0.3,0-0.5-0.2-0.5-0.5v-1.2c0-0.3,0.2-0.5,0.5-0.5h2c0.3,0,0.5,0.2,0.5,0.5V20
		C33.4,20.3,33.2,20.5,32.9,20.5z M31.4,19.5h1v-0.2h-1V19.5z"/>
	<path d="M35.8,21.9h-7.7c-0.2,0-0.4-0.2-0.5-0.4s0.1-0.5,0.3-0.6l2.8-1.4c0.1,0,0.1-0.1,0.2-0.1h2c0.1,0,0.1,0,0.2,0l2.9,1.4
		c0.2,0.1,0.3,0.3,0.3,0.6C36.2,21.7,36,21.9,35.8,21.9z M30.2,20.9h3.4l-0.8-0.4H31L30.2,20.9z"/>
</g>

</svg>
