<?xml version="1.0" encoding="utf-8"?>

<svg version="1.1" id="Layer_1" xmlns="http://www.w3.org/2000/svg" xmlns:xlink="http://www.w3.org/1999/xlink" x="0px" y="0px"
	 viewBox="0 0 64 64" style="enable-background:new 0 0 64 64;" xml:space="preserve">

<g id="notebook">
	<path d="M44,25.3c0,0-0.1,0-0.1,0c-0.8-0.2-1.4-0.7-1.8-1.4c-0.7,0.4-1.6,0.5-2.3,0.2c-0.8-0.2-1.4-0.8-1.8-1.5
		c-0.8,0.4-1.6,0.5-2.3,0.3c-0.8-0.2-1.5-0.7-1.9-1.4c-0.7,0.4-1.5,0.4-2.3,0.2c-0.3-0.1-0.4-0.4-0.3-0.6c0.1-0.3,0.4-0.4,0.6-0.3
		c0.5,0.2,1.1,0.1,1.6-0.1c0.2-0.1,0.4-0.2,0.7-0.1c0.2,0,0.5,0.2,0.6,0.4c0,0,0.1,0.1,0.1,0.2c0.2,0.4,0.7,0.8,1.2,0.9
		c0.6,0.2,1.2,0.1,1.6-0.2c0.1-0.1,0.3-0.2,0.6-0.2c0.2,0,0.4,0.1,0.6,0.3c0.1,0.1,0.1,0.2,0.2,0.3c0.2,0.4,0.7,0.8,1.2,1
		c0.5,0.2,1.1,0.1,1.6-0.1c0.4-0.3,1-0.2,1.3,0.2c0,0,0.1,0.1,0.1,0.2c0.3,0.4,0.7,0.7,1.2,0.9c0.3,0.1,0.4,0.4,0.3,0.6
		C44.4,25.1,44.2,25.3,44,25.3z M38.1,22.5C38.1,22.5,38,22.5,38.1,22.5C38,22.5,38.1,22.5,38.1,22.5z"/>
	<path d="M43.5,27.9c0,0-0.1,0-0.1,0c-0.8-0.2-1.4-0.7-1.8-1.4c-0.7,0.4-1.6,0.5-2.3,0.2c-0.8-0.2-1.4-0.8-1.8-1.5
		c-0.7,0.4-1.6,0.5-2.3,0.3c-0.8-0.1-1.5-0.7-1.9-1.4c-0.7,0.4-1.5,0.4-2.3,0.2c-0.3-0.1-0.4-0.4-0.3-0.6c0.1-0.3,0.4-0.4,0.6-0.3
		c0.5,0.2,1.1,0.1,1.5-0.1c0.2-0.1,0.4-0.2,0.7-0.1c0.2,0,0.5,0.2,0.6,0.4c0,0,0.1,0.1,0.1,0.2c0.2,0.4,0.7,0.8,1.2,0.9
		c0.6,0.2,1.2,0.1,1.6-0.2c0.3-0.3,0.9-0.2,1.2,0.1c0.1,0.1,0.1,0.2,0.2,0.3c0.2,0.4,0.7,0.8,1.2,1c0.5,0.2,1.1,0.2,1.6-0.1
		c0.4-0.3,1-0.2,1.3,0.3c0,0,0.1,0.1,0.1,0.1c0.3,0.4,0.7,0.8,1.2,0.9c0.3,0.1,0.4,0.4,0.3,0.6C44,27.8,43.8,27.9,43.5,27.9z
		 M37.6,25.1C37.6,25.1,37.6,25.1,37.6,25.1C37.6,25.1,37.6,25.1,37.6,25.1z"/>
	<path d="M41.8,47.8c-0.2,0-0.4,0-0.6-0.1l-11.9-3.5c-0.3-0.1-0.4-0.4-0.3-0.6c0.1-0.3,0.4-0.4,0.6-0.3l11.9,3.5
		c0.6,0.2,1.3-0.2,1.5-0.8l7.8-26.6c0.2-0.6-0.2-1.3-0.8-1.5L30,12l-3.4,11.5c-0.1,0.3-0.4,0.4-0.6,0.3c-0.3-0.1-0.4-0.4-0.3-0.6
		l3.5-12c0-0.1,0.1-0.2,0.2-0.3c0.1-0.1,0.3-0.1,0.4,0l20.4,6c1.2,0.3,1.8,1.5,1.5,2.7l-7.8,26.6C43.6,47.2,42.7,47.8,41.8,47.8z"/>
</g>

<g id="binoculars">
	<g id="left">
		<path d="M9.9,35.1c-0.1,0-0.3-0.1-0.4-0.2l-0.7-0.7c-0.2-0.2-0.3-0.5-0.3-0.8c0-0.3,0.1-0.6,0.3-0.8l3-2.9
			c0.2-0.2,0.5-0.3,0.8-0.3c0,0,0,0,0,0c0.3,0,0.6,0.1,0.8,0.3l0.7,0.7c0.2,0.2,0.2,0.5,0,0.7l-3.9,3.8C10.1,35,10,35.1,9.9,35.1z
			 M12.7,30.4c0,0-0.2,0-0.2,0l-3,2.9c0,0,0,0.2,0,0.2l0.3,0.3l3.2-3.1L12.7,30.4z"/>
		<path d="M18.3,45c-0.1,0-0.3-0.1-0.4-0.2L10,36.7c-0.3-0.3-0.5-0.8-0.5-1.2c0-0.5,0.2-0.9,0.5-1.2l3.5-3.4c0.6-0.5,1.5-0.5,2,0
			l8.2,8.3c0.1,0.1,0.1,0.2,0.1,0.4s-0.1,0.3-0.1,0.4l-5.1,5C18.6,44.9,18.5,45,18.3,45z M14.6,31.4c-0.1,0-0.2,0-0.3,0.1l-3.5,3.4
			c-0.2,0.2-0.2,0.3-0.2,0.5c0,0.2,0.1,0.4,0.2,0.5l7.6,7.8l4.4-4.3l-7.8-7.9C14.8,31.4,14.7,31.4,14.6,31.4z"/>
		<path d="M23.4,52.2C23.4,52.2,23.3,52.2,23.4,52.2c-0.2,0-0.3-0.1-0.4-0.2l-5.2-7.4c-0.1-0.2-0.1-0.5,0.1-0.6l5.1-5
			c0.2-0.2,0.4-0.2,0.6,0l7.2,5.3c0.1,0.1,0.2,0.2,0.2,0.4c0,0.1,0,0.3-0.1,0.4l-7.1,7C23.6,52.1,23.5,52.2,23.4,52.2z M18.9,44.4
			l4.6,6.5l6.3-6.2L23.3,40L18.9,44.4z"/>
		<path d="M25.6,54.6c-0.4,0-0.7-0.1-1-0.4l-1.5-1.6c-0.3-0.3-0.3-0.9,0-1.2l7.3-7.1c0.2-0.2,0.4-0.2,0.6-0.2h0
			c0.2,0,0.4,0.1,0.6,0.2L33,46c0.5,0.6,0.5,1.4,0,2c0,0,0,0,0,0l-6.4,6.3C26.4,54.5,26,54.6,25.6,54.6
			C25.6,54.6,25.6,54.6,25.6,54.6z M23.9,52.1l1.4,1.4c0.1,0.1,0.2,0.1,0.3,0.1c0.1,0,0.2,0,0.3-0.1l6.4-6.3c0.2-0.2,0.2-0.4,0-0.6
			l-1.4-1.4L23.9,52.1z M23.8,51.9L23.8,51.9C23.8,51.9,23.8,51.9,23.8,51.9z M32.7,47.6L32.7,47.6L32.7,47.6z M31,45.1L31,45.1
			C31,45.1,31,45.1,31,45.1z"/>
	</g>

	<g id="right">
		<path d="M19.3,25.9c-0.1,0-0.3,0-0.4-0.1L18.3,25c-0.4-0.4-0.4-1.1,0-1.6l3-2.9c0.4-0.4,1.2-0.4,1.6,0l0.7,0.7
			c0.2,0.2,0.2,0.5,0,0.7l-3.9,3.8C19.5,25.8,19.4,25.9,19.3,25.9z M22.1,21.2c0,0-0.1,0-0.1,0l-3,2.9c0,0.1,0,0.1,0,0.2l0.3,0.3
			l3.2-3.1L22.1,21.2C22.1,21.2,22.1,21.2,22.1,21.2z"/>
		<path d="M27.8,35.7c-0.1,0-0.3,0-0.4-0.2l-7.9-8.1c-0.3-0.3-0.5-0.8-0.5-1.2s0.2-0.9,0.5-1.3l3.5-3.4c0.6-0.5,1.5-0.5,2,0l8.2,8.4
			c0.1,0.1,0.1,0.2,0.1,0.4c0,0.1-0.1,0.3-0.2,0.4l-5.1,5C28,35.7,27.9,35.7,27.8,35.7z M20.2,25.7C20.2,25.7,20.2,25.7,20.2,25.7
			c-0.3,0.3-0.3,0.8,0,1.1l7.6,7.7l4.4-4.3l-7.8-8c-0.2-0.2-0.5-0.2-0.7,0L20.2,25.7z"/>
		<path d="M32.9,43C32.8,43,32.8,43,32.9,43c-0.2,0-0.3-0.1-0.4-0.2l-5.2-7.4c-0.1-0.2-0.1-0.5,0.1-0.6l5.1-5c0.2-0.2,0.5-0.2,0.6,0
			l7.3,5.4c0.1,0.1,0.2,0.2,0.2,0.4c0,0.1,0,0.3-0.1,0.4l-7.1,7C33.1,42.9,33,43,32.9,43z M28.3,35.2l4.6,6.5l6.3-6.2l-6.5-4.8
			L28.3,35.2z"/>
		<path d="M35,45.4c-0.4,0-0.7-0.1-1-0.4l-1.5-1.6c-0.2-0.1-0.2-0.4-0.2-0.6c0-0.2,0.1-0.4,0.2-0.6c0,0,0.1,0,0.1-0.1l7.2-7
			c0.3-0.3,0.9-0.3,1.2,0l1.5,1.6c0.5,0.6,0.5,1.4,0,2c0,0,0,0,0,0L36,45C35.8,45.3,35.4,45.4,35,45.4z M33.3,42.9l1.4,1.4
			c0.2,0.2,0.4,0.2,0.6,0l6.4-6.3c0.2-0.2,0.2-0.4,0-0.6L40.4,36L33.3,42.9z M33.2,42.7L33.2,42.7C33.2,42.7,33.2,42.7,33.2,42.7z
			 M42.1,38.4L42.1,38.4L42.1,38.4z M40.5,35.9L40.5,35.9C40.5,35.9,40.5,35.9,40.5,35.9z"/>
	</g>

	<path d="M22.4,38.9c-0.1,0-0.3,0-0.4-0.2l-4.8-4.9c-0.1-0.1-0.1-0.2-0.1-0.4c0-0.1,0.1-0.3,0.2-0.4l4.4-4.2c0.2-0.2,0.5-0.2,0.7,0
		l4.8,4.9c0.1,0.1,0.1,0.2,0.1,0.4c0,0.1-0.1,0.3-0.2,0.4l-4.4,4.2C22.6,38.9,22.5,38.9,22.4,38.9z M18.3,33.6l4.1,4.2l3.6-3.5
		L22,30L18.3,33.6z"/>
</g>

<path id="ellipse" d="M32,1c17.1,0,31,13.9,31,31S49.1,63,32,63S1,49.1,1,32S14.9,1,32,1 M32,0C14.3,0,0,14.3,0,32s14.3,32,32,32
	s32-14.3,32-32S49.7,0,32,0z"/>

</svg>
