<?xml version="1.0" encoding="utf-8"?>
<svg version="1.1"
	xmlns="http://www.w3.org/2000/svg"
	xmlns:xlink="http://www.w3.org/1999/xlink"
	x="0px" y="0px"
	viewBox="0 0 64 64">
	
<path d="M8.6,63.5c-0.5,0-1-0.1-1.3-0.4c-1.1-0.8-1.2-2.5-0.3-4.9l3.5-9.3c0.2-0.6,0.4-1.2,0.5-1.8c0.6-3.6-0.3-7.2-2.4-10.1
	l-4.1-5.1C2.8,30,2.4,28,3.1,26.3s2.6-2.9,5.1-3.1l5.6-0.5c1.1-0.1,2.2-0.4,3.2-0.8c2.7-1,4.9-3,6.2-5.6c0-0.1,0.1-0.2,0.1-0.3
	l4.4-12.5c0.9-2.5,2.2-3,3.1-3l0,0c0.8,0,2.3,0.5,3.5,3.6l5.2,13.4c1.2,2.3,3.1,4.3,5.4,5.5c1.3,0.8,2.8,1.3,4.3,1.6l4.7,0.8
	c2.8,0.5,4.6,1.6,5,3.3c0.2,0.8,0.3,2.4-1.7,4.2l-4,3.7c-2.5,2.4-3.7,6.8-2.6,9.6l2,4.8c0.9,2.2,0.2,3.5-0.3,4
	c-1.1,1.2-3.1,1.4-5.6,0.6l-10-3.7c-3.6-1.4-9.5-0.7-12.9,1.6l-11.3,8.1C11.5,62.7,10.1,63.3,8.6,63.5z M29.6,4.2l-4.4,12.5
	c0,0.1-0.1,0.3-0.2,0.4c-1.5,3.1-4.1,5.5-7.4,6.7c-1.2,0.5-2.4,0.8-3.7,0.9l-5.6,0.5c-1.8,0.2-3.1,0.9-3.5,1.9s-0.1,2.2,0.9,3.6
	l4.1,5c2.5,3.4,3.5,7.6,2.9,11.8c-0.1,0.7-0.3,1.5-0.6,2.2l-3.5,9.3c-0.7,1.8-0.5,2.5-0.4,2.6s1,0.1,3-1.4L22.7,52
	c4-2.7,10.6-3.5,14.8-1.8l10.1,3.6c2,0.6,3.1,0.4,3.5,0s0.3-1-0.1-1.9l-2-4.8c-1.4-3.5,0-8.8,3.1-11.8l4-3.7
	c0.5-0.5,1.4-1.4,1.1-2.2c-0.2-0.7-1.2-1.5-3.5-1.9L49,26.6c-1.8-0.3-3.4-1-5-1.9c-2.7-1.4-5-3.7-6.3-6.5L32.5,4.8
	c-0.6-1.7-1.3-2.3-1.6-2.3l0,0C30.7,2.5,30.1,2.9,29.6,4.2z"/>

<g id="dots">
	<ellipse cx="31.2" cy="22.7" rx="1.2" ry="1"/>
	<ellipse cx="35.2" cy="38.9" rx="1.3" ry="1.3"/>
	<ellipse cx="26.1" cy="40.2" rx="1.3" ry="1.3"/>
	<ellipse cx="28.7" cy="35" rx="1.3" ry="1.3"/>
	<ellipse cx="33.9" cy="33.8" rx="1.3" ry="1.3"/>
	<ellipse cx="31.2" cy="29.4" rx="1.3" ry="1.3"/>
	<ellipse cx="31.2" cy="14.2" rx="0.8" ry="0.9"/>
	<path d="M30.3,18.4c-0.1,0.5,0.3,1,0.8,1c0.5,0.1,1-0.3,1-0.8c0-0.1,0-0.1,0-0.2c0-0.3-0.1-0.5-0.3-0.7c-0.2-0.2-0.4-0.2-0.6-0.2
		c-0.2,0-0.5,0.1-0.6,0.2C30.4,17.9,30.3,18.2,30.3,18.4z"/>
	<ellipse transform="matrix(0.2472 -0.969 0.969 0.2472 -0.8286 62.5505)" cx="39.8" cy="31.8" rx="1" ry="1.1"/>
	<ellipse transform="matrix(0.9927 -0.1203 0.1203 0.9927 -3.4023 5.5694)" cx="44.4" cy="31" rx="1" ry="0.7"/>
	<path d="M21.8,43.9c0.4-0.5,1.1-0.6,1.6-0.2c0.5,0.2,0.7,0.8,0.5,1.2c0,0,0,0.1-0.1,0.1c-0.2,0.2-0.4,0.4-0.7,0.4
		c-0.2,0-0.3,0-0.5,0c-0.1,0-0.3-0.1-0.4-0.2c-0.5-0.2-0.7-0.8-0.5-1.2C21.8,44,21.8,43.9,21.8,43.9z"/>
	<ellipse transform="matrix(0.7972 -0.6038 0.6038 0.7972 -27.8968 20.6933)" cx="16.8" cy="51.9" rx="0.9" ry="0.8"/>
	<ellipse transform="matrix(0.8697 -0.4936 0.4936 0.8697 -21.2598 16.2328)" cx="20.1" cy="48.4" rx="1" ry="0.8"/>
	<ellipse transform="matrix(0.9588 -0.284 0.284 0.9588 -10.6683 12.7804)" cx="38.7" cy="43.2" rx="1.2" ry="1"/>
	<path d="M41.9,45.1c-0.4-0.3-0.9-0.4-1.3-0.1c-0.1,0.1-0.2,0.2-0.2,0.4c0,0.3,0.1,0.6,0.4,0.7c0.4,0.3,0.9,0.3,1.3,0
		c0.2-0.2,0.2-0.5,0.1-0.8C42.1,45.2,42,45.1,41.9,45.1z"/>
	<ellipse transform="matrix(0.9477 -0.3191 0.3191 0.9477 -9.5765 9.0587)" cx="22.9" cy="33.8" rx="1.1" ry="1"/>
	<path d="M17.8,32.2c0.3,0.1,0.7,0.1,1-0.1c0.1-0.1,0.2-0.1,0.2-0.2c0.1-0.3,0-0.6-0.2-0.8c-0.1-0.1-0.3-0.2-0.4-0.2
		c-0.4-0.2-1-0.1-1.2,0.3C17,31.6,17.2,32.1,17.8,32.2z"/>
	<ellipse transform="matrix(0.2777 -0.9607 0.9607 0.2777 -18.8702 34.6991)" cx="13.6" cy="29.9" rx="0.6" ry="1"/>
	<ellipse transform="matrix(0.9925 -0.1219 0.1219 0.9925 -3.3442 6.3213)" cx="50" cy="30.5" rx="1.5" ry="0.8"/>
</g>
</svg>
