<?xml version="1.0" encoding="utf-8"?>
<svg version="1.1"
	xmlns="http://www.w3.org/2000/svg"
	xmlns:xlink="http://www.w3.org/1999/xlink"
	x="0px" y="0px"
	viewBox="0 0 64 64">

<g>
	<ellipse cx="31.6" cy="23.4" rx="1.2" ry="1"/>
	<ellipse cx="35.6" cy="39.6" rx="1.3" ry="1.3"/>
	<ellipse cx="26.5" cy="40.9" rx="1.3" ry="1.3"/>
	<ellipse cx="29.1" cy="35.7" rx="1.3" ry="1.3"/>
	<ellipse cx="34.3" cy="34.4" rx="1.3" ry="1.3"/>
	<ellipse cx="31.6" cy="30.1" rx="1.3" ry="1.3"/>
	<ellipse cx="31.6" cy="14.9" rx="0.8" ry="0.9"/>
	<path d="M30.7,19.1c0,0.5,0.4,0.9,0.9,0.9c0.5,0,0.9-0.4,0.9-0.9c0-0.3-0.1-0.5-0.3-0.7c-0.2-0.2-0.4-0.3-0.6-0.2
		c-0.2,0-0.5,0.1-0.6,0.2C30.8,18.6,30.7,18.9,30.7,19.1z"/>
	<ellipse cx="31.6" cy="10.9" rx="0.7" ry="0.9"/>
	<ellipse transform="matrix(0.2472 -0.969 0.969 0.2472 -1.2191 63.4327)" cx="40.2" cy="32.5" rx="1" ry="1.1"/>
	<ellipse transform="matrix(0.9929 -0.1193 0.1193 0.9929 -3.4697 5.5821)" cx="44.9" cy="31.8" rx="1" ry="0.7"/>
	<ellipse transform="matrix(0.9396 -0.3423 0.3423 0.9396 -7.1871 19.9663)" cx="53" cy="30.3" rx="0.5" ry="0.6"/>
	<ellipse transform="matrix(0.9896 -0.1438 0.1438 0.9896 -3.9445 7.4199)" cx="49.3" cy="31" rx="1" ry="0.6"/>
	<path d="M22.2,44.6c0.4-0.5,1.1-0.6,1.6-0.2c0.5,0.2,0.7,0.8,0.5,1.2c0,0,0,0.1-0.1,0.1c-0.2,0.2-0.4,0.4-0.7,0.4
		c-0.2,0-0.3,0-0.5,0c-0.1,0-0.3-0.1-0.4-0.2c-0.5-0.2-0.7-0.8-0.5-1.2C22.1,44.7,22.2,44.6,22.2,44.6z"/>
	<ellipse transform="matrix(0.7972 -0.6038 0.6038 0.7972 -28.2368 21.0626)" cx="17.2" cy="52.6" rx="0.9" ry="0.8"/>
	<ellipse transform="matrix(0.8697 -0.4936 0.4936 0.8697 -21.5605 16.5062)" cx="20.5" cy="49.1" rx="1" ry="0.8"/>
	<ellipse transform="matrix(0.3867 -0.9222 0.9222 0.3867 -45.6469 46.9373)" cx="12.5" cy="57.8" rx="0.5" ry="0.7"/>
	<ellipse transform="matrix(0.6938 -0.7202 0.7202 0.6938 -35.2205 27.2888)" cx="14.5" cy="55.1" rx="1" ry="0.7"/>
	<ellipse transform="matrix(0.9588 -0.284 0.284 0.9588 -10.8522 12.9182)" cx="39.1" cy="43.9" rx="1.2" ry="1"/>
	<path d="M42.3,45.8c-0.4-0.3-0.9-0.3-1.3,0c-0.1,0.1-0.2,0.2-0.2,0.4c0,0.3,0.1,0.6,0.4,0.7c0.4,0.3,0.9,0.4,1.3,0
		c0.2-0.2,0.2-0.5,0.1-0.8C42.5,46,42.4,45.9,42.3,45.8z"/>
	<ellipse transform="matrix(0.8211 -0.5708 0.5708 0.8211 -20.6554 36.4309)" cx="47.8" cy="51.2" rx="0.7" ry="0.5"/>
	<ellipse transform="matrix(0.527 -0.8499 0.8499 0.527 -20.4929 61.3883)" cx="44.9" cy="49.1" rx="0.7" ry="1"/>
	<ellipse transform="matrix(0.9477 -0.3191 0.3191 0.9477 -9.7749 9.2126)" cx="23.2" cy="34.4" rx="1.1" ry="1"/>
	<path d="M18.1,32.9c0.3,0.1,0.7,0.1,1-0.1c0.1-0.1,0.2-0.1,0.2-0.2c0.1-0.3,0-0.6-0.2-0.7c-0.1-0.1-0.3-0.2-0.4-0.3
		c-0.4-0.2-1-0.1-1.2,0.3C17.4,32.3,17.6,32.8,18.1,32.9z"/>
	<ellipse transform="matrix(0.5714 -0.8207 0.8207 0.5714 -19.1736 21.0576)" cx="10.6" cy="28.9" rx="0.7" ry="0.5"/>
	<ellipse transform="matrix(0.2777 -0.9607 0.9607 0.2777 -19.2732 35.5561)" cx="14" cy="30.6" rx="0.6" ry="1"/>
	<ellipse cx="31.6" cy="8.1" rx="0.7" ry="0.6"/>
</g>

<path d="M9.1,63.7c-0.4,0-0.8-0.1-1.1-0.3c-0.6-0.5-1.2-1.6-0.1-4.4l3.6-9.5c0.3-0.6,0.5-1.3,0.6-1.9c0.6-3.8-0.3-7.7-2.7-10.8
	l-4.2-5.2c-1.4-1.8-1.8-3.6-1.2-5.2s2.4-2.6,4.8-2.9l5.7-0.5c1.1-0.1,2.3-0.4,3.3-0.8c2.9-1.1,5.3-3.2,6.7-6c0-0.1,0.1-0.2,0.1-0.4
	l4.5-12.8c0.8-2.3,1.9-2.8,2.7-2.8l0,0c1.2,0,2.3,1.2,3.1,3.3l5.3,13.8c1.3,2.5,3.3,4.6,5.8,5.9c1.4,0.8,3,1.4,4.6,1.7l4.8,0.9
	c2.6,0.4,4.3,1.5,4.8,3c0.3,1.2-0.2,2.6-1.6,3.8l-4.1,3.8c-2.7,2.6-4,7.4-2.8,10.4l2,4.9c0.6,1.5,0.5,2.7-0.2,3.5
	c-1,1-2.8,1.2-5.2,0.4L38.1,52c-3.9-1.5-10-0.8-13.7,1.7L12.9,62C11.8,62.9,10.5,63.5,9.1,63.7z M30.1,3.4l-4.5,12.8
	c0,0.1-0.1,0.3-0.1,0.4c-1.5,3-4.1,5.4-7.2,6.5c-1.2,0.5-2.4,0.8-3.6,0.9l-5.7,0.5c-2,0.2-3.5,1-4,2.2s-0.1,2.7,1,4.2l4.2,5.2
	c2.5,3.3,3.5,7.5,2.8,11.6c-0.1,0.7-0.3,1.4-0.6,2.1l-3.5,9.5c-0.7,2-0.6,3-0.2,3.2s1.6,0.1,3.7-1.4l11.6-8.3
	c3.9-2.7,10.5-3.5,14.6-1.8l10.3,3.7c1.9,0.6,3.5,0.5,4.1-0.2c0.5-0.5,0.5-1.4,0-2.5l-2-5c-1.4-3.4,0-8.6,3-11.5l4.1-3.7
	c1-0.9,1.5-1.9,1.3-2.8c-0.3-1.1-1.8-1.9-4-2.3L50.5,26c-1.7-0.3-3.4-1-4.9-1.9c-3-1.7-5.3-4.1-6.2-6.4L34,4
	c-0.6-1.7-1.5-2.7-2.2-2.7S30.6,2.1,30.1,3.4z"/>

</svg>
