<svg xmlns="http://www.w3.org/2000/svg">
  <path fill="#3a676d" d="M0 0h86a4 4 0 0 1 4 4v115a4 4 0 0 1-4 4H0V0z"/>
  <path fill="#3d6d84" d="M9.9 2H78a10 10 0 0 1 10 10v99a10 10 0 0 1-10 10H9.9a5.9 5.9 0 0 1-5.9-5.9V7.9A5.9 5.9 0 0 1 9.9 2z"/>
  <path fill="#407387" d="M43.57 5h25.65A15.78 15.78 0 0 1 85 20.78v81.44A15.78 15.78 0 0 1 69.22 118H43.57a8.57 8.57 0 0 1-8.57-8.57V13.57A8.57 8.57 0 0 1 43.57 5z"/>
  <path fill="#427889" d="M53.75 7H64a16.16 16.16 0 0 1 16.13 16.16v64.71A16.16 16.16 0 0 1 64 104H53.75a13.8 13.8 0 0 1-13.8-13.8V20.8A13.8 13.8 0 0 1 53.75 7z"/>
  <path fill="#447e8c" d="M60.62 9.17h4.74a11.37 11.37 0 0 1 11.36 11.37v44.82a11.37 11.37 0 0 1-11.36 11.37h-4.74a9.84 9.84 0 0 1-9.84-9.84V19a9.84 9.84 0 0 1 9.84-9.84z"/>
  <rect width="10.35" height="41" x="63.27" y="14" fill="#468691" rx="5.09"/>
  <path fill="#447e8c" d="M63.27 14h.14a8.14 8.14 0 0 1 8.14 8.14V60h-8.28V14z"/>
</svg>
