<svg id="foamLong" xmlns="http://www.w3.org/2000/svg" viewBox="0 0 631.03 33.89">
  <title>export-backfoamBase</title>
  <path id="foamWhite" d="M629.91,17.84A3.75,3.75,0,0,0,631,15.35C631,10.2,617.22,6,600.18,6c-10.53,0-19.83,1.61-25.4,4a98.64,98.64,0,0,0-18.94-1.71,108.74,108.74,0,0,0-12.5.71A75.69,75.69,0,0,0,521.1,6C510,6,500,8,493.69,11.05c-4.76-.26-9.79-.4-15-.4-7.69,0-15,.3-21.62.87-5-3.91-17.62-6.69-32.37-6.69-12.53,0-23.51,2-29.61,5a192.78,192.78,0,0,0-29.88-2.12c-19.46,0-36.08,2.32-42.71,5.58-8.74-.43-18.38-.72-28.5-.72-6.88,0-13.51.11-19.8.34-8.4-2.58-21.48-4.23-36.2-4.23a153.89,153.89,0,0,0-29.29,2.57c-5.12-.37-10.68-.58-16.49-.58a204.86,204.86,0,0,0-25,1.42c-7.35-2.09-19.61-3.4-33.52-3.4a154.56,154.56,0,0,0-30.21,2.57,86.82,86.82,0,0,0-13.77,2.4A200.2,200.2,0,0,0,65,12.24c-5.74,0-11.23.21-16.29.58a152.45,152.45,0,0,0-28.92-2.53A172.2,172.2,0,0,0,0,11.38V31a172.73,172.73,0,0,0,19.82,1.1,148,148,0,0,0,30.64-2.88c4.57.29,9.47.47,14.57.47,17.39,0,32.48-1.9,40-4.69,5.35.5,11.37.79,17.74.79a155,155,0,0,0,28.93-2.38c7.68,2.77,22.92,4.67,40.48,4.67,5.16,0,10.12-.18,14.75-.47A151.47,151.47,0,0,0,238,30.56a171.79,171.79,0,0,0,23-1.46c9.86.63,21.07,1,33,1,28.29,0,52.73-2,64.23-5,2.28,0,4.62.1,7,.1A174.65,174.65,0,0,0,399,22.34a85.56,85.56,0,0,0,25.7,3.4c1.81,0,3.58,0,5.31-.12,8.71,3.51,27.23,5.94,48.68,5.94,9,0,17.51-.44,25-1.19a82.79,82.79,0,0,0,17.41,1.8,73.9,73.9,0,0,0,23.53-3.47,107,107,0,0,0,11.18.56A99.59,99.59,0,0,0,575,27.51c5.58,1.91,14.51,3.21,24.59,3.21a110.77,110.77,0,0,0,13.5-.79c3.64,1.76,9.56,3.17,16.76,4" style="fill: #f0f9fc;opacity: 0.800000011920929;isolation: isolate"/>
  <path id="foamBlue" d="M629.91,13A3.74,3.74,0,0,0,631,10.52c0-5.15-13.81-9.31-30.85-9.31-10.53,0-19.83,1.6-25.4,4a99.44,99.44,0,0,0-18.94-1.7,108.74,108.74,0,0,0-12.5.71A75.54,75.54,0,0,0,521.1,1.16c-11.1,0-21.1,2.06-27.41,5.06-4.76-.25-9.79-.4-15-.4-7.69,0-15,.31-21.62.87C452.05,2.78,439.45,0,424.7,0c-12.53,0-23.51,2-29.61,5a191.53,191.53,0,0,0-29.88-2.1c-19.46,0-36.08,2.31-42.71,5.58-8.74-.44-18.38-.73-28.5-.73-6.88,0-13.51.12-19.8.34-8.4-2.57-21.48-4.23-36.2-4.23a155.54,155.54,0,0,0-29.29,2.57c-5.12-.37-10.68-.57-16.49-.57a204.85,204.85,0,0,0-25,1.41c-7.35-2.07-19.61-3.41-33.52-3.41a155.34,155.34,0,0,0-30.21,2.57,86.82,86.82,0,0,0-13.77,2.4A200.19,200.19,0,0,0,65,7.42c-5.74,0-11.23.2-16.29.57A151.31,151.31,0,0,0,19.82,5.47,172.72,172.72,0,0,0,0,6.56V26.22a172.72,172.72,0,0,0,19.82,1.09,146.55,146.55,0,0,0,30.64-2.88c4.57.29,9.47.47,14.57.47,17.39,0,32.48-1.9,40-4.68,5.35.5,11.37.79,17.74.79a155.84,155.84,0,0,0,28.93-2.38c7.68,2.76,22.92,4.66,40.48,4.66,5.16,0,10.12-.18,14.75-.47A151.44,151.44,0,0,0,238,25.74a170.06,170.06,0,0,0,23-1.47c9.86.63,21.07,1,33,1,28.29,0,52.73-2,64.23-4.95,2.28,0,4.62.1,7,.1A176.28,176.28,0,0,0,399,17.52a85.92,85.92,0,0,0,25.7,3.39c1.81,0,3.58,0,5.31-.11,8.71,3.5,27.23,5.93,48.68,5.93,9,0,17.51-.43,25-1.19a81.49,81.49,0,0,0,17.41,1.8,73.35,73.35,0,0,0,23.53-3.47,107,107,0,0,0,11.18.56A98.8,98.8,0,0,0,575,22.68c5.58,1.91,14.51,3.22,24.59,3.22a110.77,110.77,0,0,0,13.5-.79c3.64,1.76,9.56,3.16,16.76,4" style="fill: #aeedeb;opacity: 0.6000000238418579;isolation: isolate"/>
</svg>
