<svg id="Layer_1" data-name="Layer 1" xmlns="http://www.w3.org/2000/svg" viewBox="0 0 170.17 249">
  <title>export-backArtboard 1</title>
  <rect id="sky" x="1.17" width="168" height="202" style="fill: #c2f2f2"/>
  <g id="birds-2">
    <path d="M55.37,124h.8a8.75,8.75,0,0,1,1.6.2,3.09,3.09,0,0,1,.8.2l.8.2.8.3.8.4a2.51,2.51,0,0,1,.7.4,1.79,1.79,0,0,1,.7.5c.2.2.5.3.7.5s.5.4.7.6l.6.6.6.6.5.6.5-.6.6-.6.6-.6a4.35,4.35,0,0,1,.7-.6,4.23,4.23,0,0,0,.7-.5c.2-.2.5-.3.7-.5s.5-.3.7-.4l.8-.4.8-.3.8-.2a3.09,3.09,0,0,0,.8-.2,8.75,8.75,0,0,1,1.6-.2h1.6l-.8.2-.8.2-.7.3-.9.3-.7.3-.7.3-.7.4a4.35,4.35,0,0,1-.7.4,2.09,2.09,0,0,1-.6.4,2.65,2.65,0,0,0-.6.5c-.2.2-.4.3-.6.5s-.4.3-.6.5a2.65,2.65,0,0,0-.5.6c-.1.2-.4.4-.6.6l-.5.6-.5.6-.5.6v.1h0v-.1l-.5-.6-.5-.6-.5-.6-.6-.6a2.65,2.65,0,0,1-.5-.6,2.65,2.65,0,0,0-.6-.5c-.2-.2-.4-.3-.6-.5s-.4-.3-.6-.5a2.09,2.09,0,0,0-.6-.4,1.61,1.61,0,0,0-.7-.4l-.7-.4-.7-.3-.7-.3-.7-.3-.7-.3-.8-.2-.8-.2Z" style="fill: #93c9c7"/>
    <path d="M49.67,133.9H50a1.27,1.27,0,0,1,.6.1l.3.1.3.1.3.1.3.1.3.1.3.2c.1.1.2.1.2.2s.2.1.2.2.2.1.2.2l.2.2.2.2.2-.2.2-.2.2-.2.2-.2.2-.2c.1-.1.2-.1.3-.2a.37.37,0,0,1,.3-.1l.3-.1.3-.1.3-.1.3-.1c.2,0,.4-.1.6-.1h.6l-.3.1-.3.1-.3.1-.3.1-.3.1-.3.1-.2.1-.2.2-.2.2c-.1.1-.2.1-.2.2s-.2.1-.2.2l-.2.2-.2.2-.2.2-.2.2-.2.2-.2.2h0l-.2-.2-.2-.2-.2-.2-.2-.2-.2-.2-.2-.2-.2-.2-.2-.2-.2-.2-.2-.2-.2-.1-.3-.1-.3-.1-.3-.1-.3-.1-.3-.1-.3-.1Z" style="fill: #93c9c7"/>
    <path d="M40.47,130.7h.3a1.27,1.27,0,0,1,.6.1l.3.1.3.1.3.1.3.1.3.1.3.2.2.2c.1.1.2.1.2.2l.2.2.2.2.2.2.2-.2c.1-.1.1-.2.2-.2l.2-.2c.1-.1.2-.1.2-.2s.2-.1.2-.2l.3-.2.3-.1.3-.1.3-.1.3-.1.3-.1c.2,0,.4-.1.6-.1h.6l-.3.1-.3.1-.3.1-.3.1-.3.1-.3.1-.2.1-.2.2c-.1.1-.2.1-.2.2s-.2.1-.2.2-.2.1-.2.2l-.2.2-.2.2-.2.2-.2.2-.2.2-.2.2h0l-.2-.2-.2-.2-.2-.2-.2-.2-.2-.2-.2-.2-.2-.2-.2-.2c-.1-.1-.2-.1-.2-.2l-.2-.2-.2-.1-.3-.1-.3-.1-.3-.1-.3-.1-.3-.2h0Z" style="fill: #93c9c7"/>
  </g>
  <g id="lowtide">
    <rect x="0.17" y="163" width="170" height="5" style="fill: #487c85"/>
    <rect x="0.17" y="165.9" width="170" height="12.1" style="fill: #408ba2"/>
  </g>
  <g id="lerp">
    <rect x="0.17" y="167.6" width="170" height="11.2" style="fill: #3894bb"/>
    <rect x="0.17" y="175.4" width="170" height="11.2" style="fill: #3999ba"/>
    <rect x="0.17" y="183.2" width="170" height="11.2" style="fill: #3a9eb9"/>
    <rect x="0.17" y="191" width="170" height="11.2" style="fill: #3ba3b8"/>
    <rect x="0.17" y="198.8" width="170" height="11.2" style="fill: #3ca8b7"/>
    <rect x="0.17" y="206.6" width="170" height="11.2" style="fill: #3dadb6"/>
    <rect x="0.17" y="214.4" width="170" height="11.2" style="fill: #3eb2b5"/>
  </g>
  <g id="highlights">
    <line x1="65.87" y1="178" x2="160.17" y2="178" style="fill: none;stroke: #fff;stroke-linecap: round;stroke-miterlimit: 10;stroke-width: 0.269800007343292px;opacity: 0.5;isolation: isolate"/>
    <line x1="61.17" y1="179.5" x2="150.87" y2="179.5" style="fill: none;stroke: #fff;stroke-linecap: round;stroke-miterlimit: 10;stroke-width: 0.526099979877472px;opacity: 0.5;isolation: isolate"/>
    <line x1="89.17" y1="182.5" x2="154.37" y2="182.5" style="fill: none;stroke: #fff;stroke-linecap: round;stroke-miterlimit: 10;stroke-width: 0.904299974441528px;opacity: 0.5;isolation: isolate"/>
  </g>
  <path id="right_tail" data-name="right tail" d="M.17,227h170V210.48c-4.32-1.15-10.83-2.73-18.83-4-14-2.31-17.92-1.43-23.71-2.3-.56-.08-2.55-.44-5.15-1.13-11.59-3.08-15.13-7.68-23.88-9.31-6.54-1.21-6.53,1-24.53.45a42.42,42.42,0,0,1-5.32-.28c-10.64-2.18-9.8-10.17-20.9-13.72-10.92-3.49-15.55,3-33,1.64A69,69,0,0,1,.17,179Z" style="fill: #57d3d5"/>
  <path id="FoamWhite" d="M0,241.89a124.42,124.42,0,0,0,13.72.73c3.88,0,7.61-.18,11.09-.47A86.62,86.62,0,0,0,48.15,245a96.89,96.89,0,0,0,17.29-1.47c7.41.63,15.83,1,24.78,1,22.14,0,41.14-2.18,49.29-5.32,2.28.27,3.87.43,4.24.47a169.31,169.31,0,0,0,26.42.54l-.08-14.92a97.32,97.32,0,0,0-26.36-3.13c-11.64.25-25.21,2.67-31.24,5.65-6.79-.51-14.33-.79-22.29-.79-5.17,0-10.16.12-14.88.34-6.3-2.57-16.17-4.23-27.17-4.23a88.84,88.84,0,0,0-22,2.57c-3.85-.37-8-.58-12.4-.58a123.86,123.86,0,0,0-13.69.73" style="fill: #f0f9fc;opacity: 0.6;isolation: isolate"/>
  <path id="foamBlue" d="M0,237.07a127,127,0,0,0,13.72.72c3.88,0,7.61-.18,11.09-.47a86.22,86.22,0,0,0,23.34,2.85,97.81,97.81,0,0,0,17.29-1.46c7.41.62,15.83,1,24.78,1,22.14,0,41.14-2.19,49.29-5.33,2.28.28,3.87.44,4.24.47a170.8,170.8,0,0,0,26.42.55l-.08-14.93a96.91,96.91,0,0,0-26.36-3.12c-11.64.24-25.21,2.67-31.24,5.65-6.79-.5-14.34-.79-22.29-.79-5.17,0-10.16.11-14.88.33-6.3-2.57-16.17-4.23-27.17-4.23a88.38,88.38,0,0,0-22,2.58c-3.85-.37-8-.58-12.4-.58A126.47,126.47,0,0,0,.06,221" style="fill: #aeedeb;opacity: 0.8"/>
</svg>
