<svg
  xmlns="http://www.w3.org/2000/svg"
  viewBox="0 0 90.1 56.01">

  <title>signWood</title>

  <path d="M2,0H85.1a5,5,0,0,1,5,5V54a2,2,0,0,1-2,2H4a4,4,0,0,1-4-4V2A2,2,0,0,1,2,0Z" style="fill: #87786e"/>
  <rect width="87.85" height="54.23" rx="2" style="fill: #ad9984"/>
  <path d="M85.85,54.23H2a2,2,0,0,1-2-2v-23H87.85v23A2,2,0,0,1,85.85,54.23Z" style="fill: #a3907e"/>
  <rect x="30.44" y="8.04" width="52.36" height="13.88" rx="2" style="fill: #b5a08c"/>
  <path d="M83.42,49.2H5.2V6.47H83.42ZM6.37,48H82.25V7.64H6.37Z" style="fill: #d8c2a4"/>

  <g id="text">
    <path d="M29.62,18.71A2.75,2.75,0,0,1,30.7,21a4,4,0,0,0,.07.94.85.85,0,0,1,.56.55.83.83,0,0,1-.13.79.9.9,0,0,1-.78.37h0A1.27,1.27,0,0,1,29.26,23,4.6,4.6,0,0,1,28.93,21a1.41,1.41,0,0,0-.67-1.16,2.74,2.74,0,0,0-.9-.38H25.47V23a.86.86,0,0,1-.26.63.88.88,0,0,1-.63.25A.85.85,0,0,1,23.7,23V13.52A.84.84,0,0,1,24,12.9a.86.86,0,0,1,.63-.26h2.86a3.28,3.28,0,0,1,2.42,1,3.41,3.41,0,0,1,1,2.51A3.22,3.22,0,0,1,29.62,18.71Zm-2.18-1a1.59,1.59,0,0,0,1.17-.48,1.57,1.57,0,0,0,.48-1.16,1.59,1.59,0,0,0-.48-1.16,1.56,1.56,0,0,0-1.17-.49h-2v3.29Z" style="fill: #f8f3dc"/>
    <path d="M40.94,19.63a.71.71,0,0,1-.23.57.83.83,0,0,1-.61.22H35a1.82,1.82,0,0,0,.54,1,2.23,2.23,0,0,0,1.5.72,2.31,2.31,0,0,0,1.7-.4.83.83,0,0,1,.64-.25.66.66,0,0,1,.56.21.71.71,0,0,1,0,1,4,4,0,0,1-2.82,1,3.72,3.72,0,0,1-2.8-1.17,4,4,0,0,1,0-5.64,3.62,3.62,0,0,1,2.73-1.18,3.74,3.74,0,0,1,2.69,1.05,3.85,3.85,0,0,1,1.19,2.66Zm-3.85-2.27a2.26,2.26,0,0,0-1.49.58,2.05,2.05,0,0,0-.67,1.12h4.53A2.19,2.19,0,0,0,38.68,18,2.83,2.83,0,0,0,37.09,17.36Z" style="fill: #f8f3dc"/>
    <path d="M48.43,16.72a.85.85,0,0,1,.36.54.87.87,0,0,1-.1.65.84.84,0,0,1-1.19.22A2.92,2.92,0,0,0,46,17.54a1.46,1.46,0,0,0-1,.29c-.17.11-.25.22-.25.31a.35.35,0,0,0,0,.2.46.46,0,0,0,.16.14,3.28,3.28,0,0,0,1.17.39h0a7.12,7.12,0,0,1,1.56.48,2.4,2.4,0,0,1,1,.88,2.14,2.14,0,0,1-.68,3,3.53,3.53,0,0,1-2.08.64,4.57,4.57,0,0,1-2.84-1.1.8.8,0,0,1-.3-.57.76.76,0,0,1,.18-.62.79.79,0,0,1,.58-.32.81.81,0,0,1,.62.2,2.68,2.68,0,0,0,1.76.7,2,2,0,0,0,1.09-.3c.19-.16.29-.3.29-.41a.41.41,0,0,0,0-.23c0-.06-.09-.12-.21-.2a3.33,3.33,0,0,0-1.28-.44h0a6.13,6.13,0,0,1-1.48-.47,2.48,2.48,0,0,1-1-.88,1.91,1.91,0,0,1-.27-1,2.15,2.15,0,0,1,.94-1.76,3.47,3.47,0,0,1,2-.59A4.33,4.33,0,0,1,48.43,16.72Z" style="fill: #f8f3dc"/>
    <path d="M58.56,19.63a.75.75,0,0,1-.23.57.86.86,0,0,1-.62.22H52.62a1.89,1.89,0,0,0,.55,1,2.23,2.23,0,0,0,1.49.72,2.32,2.32,0,0,0,1.71-.4.83.83,0,0,1,.64-.25.68.68,0,0,1,.56.21.73.73,0,0,1,0,1,4,4,0,0,1-2.83,1,3.74,3.74,0,0,1-2.8-1.17,4.06,4.06,0,0,1,0-5.64,3.62,3.62,0,0,1,2.73-1.18,3.75,3.75,0,0,1,2.7,1.05,3.9,3.9,0,0,1,1.19,2.66ZM54.7,17.36a2.28,2.28,0,0,0-1.49.58,2.11,2.11,0,0,0-.67,1.12h4.53A2.13,2.13,0,0,0,56.29,18,2.83,2.83,0,0,0,54.7,17.36Z" style="fill: #f8f3dc"/>
    <path d="M63.81,15.84a.89.89,0,0,1,.63.26.83.83,0,0,1,.26.61.89.89,0,0,1-.89.89h-.4v4.47a.82.82,0,0,1,.62.26.89.89,0,0,1,.26.63.86.86,0,0,1-.26.63.84.84,0,0,1-.62.25,1.71,1.71,0,0,1-1.26-.52,1.68,1.68,0,0,1-.52-1.25V17.6h-.46a.88.88,0,1,1,0-1.76h.46V13.52a.83.83,0,0,1,.27-.62.89.89,0,0,1,1.51.62v2.32Z" style="fill: #f8f3dc"/>
    <path d="M26.27,30.9a.85.85,0,0,1,.26.62.83.83,0,0,1-.27.63.82.82,0,0,1-.61.27H23.1V41a.88.88,0,1,1-1.76,0V32.42H18.82a.83.83,0,0,1-.63-.27.89.89,0,0,1,.63-1.51h6.83A.85.85,0,0,1,26.27,30.9Z" style="fill: #f8f3dc"/>
    <path d="M29.24,40.67a4,4,0,0,1-1.1-2.82A4,4,0,0,1,29.24,35,3.53,3.53,0,0,1,32,33.84a3.61,3.61,0,0,1,2.13.71,1,1,0,0,1,.3-.51.83.83,0,0,1,.56-.2.78.78,0,0,1,.57.26.82.82,0,0,1,.25.61V41a.79.79,0,0,1-.25.6.77.77,0,0,1-.57.25.83.83,0,0,1-.56-.19.92.92,0,0,1-.3-.5,3.61,3.61,0,0,1-2.13.69A3.56,3.56,0,0,1,29.24,40.67Zm.62-2.82a2.32,2.32,0,0,0,.58,1.62,1.91,1.91,0,0,0,1.5.66,2,2,0,0,0,1.52-.66,2.28,2.28,0,0,0,.6-1.61,2.34,2.34,0,0,0-.6-1.63,2,2,0,0,0-1.52-.68,1.92,1.92,0,0,0-1.49.67A2.32,2.32,0,0,0,29.86,37.85Z" style="fill: #f8f3dc"/>
    <path d="M40.62,34.8a2.52,2.52,0,0,1,1-.69,2.86,2.86,0,0,1,1.17-.26,1.11,1.11,0,0,1,.77.25.76.76,0,0,1,.25.58.82.82,0,0,1-.25.6.79.79,0,0,1-.59.26c-1,0-1.78.8-2.36,2.41v3a.79.79,0,0,1-.25.6.84.84,0,0,1-.62.25.82.82,0,0,1-.61-.25.81.81,0,0,1-.24-.6v-6.3a.81.81,0,0,1,.24-.59.85.85,0,0,1,.61-.24.88.88,0,0,1,.62.24.78.78,0,0,1,.25.59Z" style="fill: #f8f3dc"/>
    <path d="M46.51,40.69a3.86,3.86,0,0,1-1.12-2.81A4,4,0,0,1,46.51,35a3.74,3.74,0,0,1,4.87-.52.82.82,0,0,1,.3-.48.93.93,0,0,1,.57-.19.79.79,0,0,1,.57.25.82.82,0,0,1,.25.6v6.18a3.86,3.86,0,0,1-3.84,3.84,3.65,3.65,0,0,1-1.68-.4.78.78,0,0,1-.43-.49.83.83,0,0,1,.05-.67.85.85,0,0,1,.48-.43,1,1,0,0,1,.67,0,2.2,2.2,0,0,0,1,.23,1.85,1.85,0,0,0,1.21-.49,2.18,2.18,0,0,0,.75-1.22,3.67,3.67,0,0,1-2.1.64A3.57,3.57,0,0,1,46.51,40.69Zm.61-2.8a2.32,2.32,0,0,0,.61,1.62,2,2,0,0,0,3,0,2.27,2.27,0,0,0,.61-1.63,2.41,2.41,0,0,0-.62-1.66,2,2,0,0,0-1.49-.68,2,2,0,0,0-1.51.7A2.39,2.39,0,0,0,47.12,37.89Z" style="fill: #f8f3dc"/>
    <path d="M63.68,37.63a.75.75,0,0,1-.23.57.86.86,0,0,1-.62.22H57.74a1.89,1.89,0,0,0,.55,1,2.23,2.23,0,0,0,1.49.72,2.32,2.32,0,0,0,1.71-.4.83.83,0,0,1,.64-.25.68.68,0,0,1,.56.21.71.71,0,0,1,0,1,4,4,0,0,1-2.83,1,3.75,3.75,0,0,1-2.8-1.17,4.06,4.06,0,0,1,0-5.64,3.64,3.64,0,0,1,2.73-1.18,3.75,3.75,0,0,1,2.7,1,3.9,3.9,0,0,1,1.19,2.66Zm-3.86-2.27a2.28,2.28,0,0,0-1.49.58,2.11,2.11,0,0,0-.67,1.12h4.53A2.13,2.13,0,0,0,61.41,36,2.83,2.83,0,0,0,59.82,35.36Z" style="fill: #f8f3dc"/>
    <path d="M68.93,33.84a.89.89,0,0,1,.63.26.8.8,0,0,1,.26.61.85.85,0,0,1-.26.63.89.89,0,0,1-.63.26h-.4v4.47a.82.82,0,0,1,.62.26.89.89,0,0,1,.26.63.86.86,0,0,1-.26.63.84.84,0,0,1-.62.25,1.71,1.71,0,0,1-1.26-.52,1.68,1.68,0,0,1-.52-1.25V35.6h-.46a.88.88,0,1,1,0-1.76h.46V31.52A.83.83,0,0,1,67,30.9a.89.89,0,0,1,1.51.62v2.32Z" style="fill: #f8f3dc"/>
  </g>

</svg>
