<svg id="autoSVG" xmlns="http://www.w3.org/2000/svg" viewBox="0 0 62 61">
  <path d="M31,3.6A26.9,26.9,0,1,0,58,30.5,26.93,26.93,0,0,0,31,3.6Z" fill="#fff"/>
  <path d="M30.9,55A24.5,24.5,0,1,1,55.4,30.5,24.47,24.47,0,0,1,30.9,55Z" fill="#53c8e9"/>
  <path d="M30.9,8A22.5,22.5,0,1,0,53.4,30.5,22.53,22.53,0,0,0,30.9,8Z" fill="#fff"/>
  <path d="M30.8,9.5l3.6,11.7a19.73,19.73,0,0,0-3.5-.4,15,15,0,0,0-3.7.4Z" fill="#53c8e9"/>
  <path d="M24.8,23a10.61,10.61,0,0,0-1.5,1.5l-2.7-4.2Z" fill="#53c8e9"/>
  <path d="M9.9,30.6,21.6,27a19.73,19.73,0,0,0-.4,3.5,15,15,0,0,0,.4,3.7Z" fill="#53c8e9"/>
  <path d="M19.5,40.7l7.6-10.9a3.69,3.69,0,0,0,1,3.3,3.51,3.51,0,0,0,3.3,1L20.5,41.7C18.6,43.2,18.1,42.7,19.5,40.7Z" fill="#53c8e9"/>
  <path d="M31,51.5,27.4,39.8a19.73,19.73,0,0,0,3.5.4,15,15,0,0,0,3.7-.4Z" fill="#53c8e9"/>
  <path d="M33.6,27.7a3.44,3.44,0,0,0-3.3-1l10.9-7.6c2.1-1.5,2.6-1,1.1,1.1L34.7,31.1A3.76,3.76,0,0,0,33.6,27.7Z" fill="#53c8e9"/>
  <path d="M37,38a10.61,10.61,0,0,0,1.5-1.5l2.7,4.2Z" fill="#53c8e9"/>
  <path d="M40.2,34a19.73,19.73,0,0,0,.4-3.5,15,15,0,0,0-.4-3.7l11.7,3.6Z" fill="#53c8e9"/>
</svg>
