<?xml version="1.0" encoding="utf-8"?>
<!-- Generator: Adobe Illustrator 20.1.0, SVG Export Plug-In . SVG Version: 6.00 Build 0)  -->
<svg version="1.1" xmlns="http://www.w3.org/2000/svg" xmlns:xlink="http://www.w3.org/1999/xlink" x="0px" y="0px"
	 viewBox="0 0 56.8 57" style="enable-background:new 0 0 56.8 57;" xml:space="preserve">
<style type="text/css">
	.st0{display:none;}
	.st1{display:inline;fill:#C5F3FF;}
	.st2{fill:#FFFFFF;stroke:#FFFFFF;stroke-miterlimit:10;}
	.st3{fill:#53C8E9;}
</style>
<g id="Layer_2" class="st0">
	<rect x="0.5" y="0.3" class="st1" width="56.2" height="56.3"/>
</g>
<g id="freeSVG">
	<path class="st2" d="M28.5,2.4C14.1,2.4,2.3,14.1,2.3,28.5S14,54.6,28.4,54.6s26.1-11.7,26.1-26.1C54.6,14.1,42.9,2.4,28.5,2.4z"/>
	<path class="st3" d="M38.4,16.6c0.4-0.3,0.7-0.6,0.9-1c0.6-1,0.7-2.2,0.4-3.4c0.3-0.1,0.4-0.2,0.4-0.2c4.8-0.6,7.8,1.1,9.8,3.3
		c2.4,3.9,3.8,8.4,3.8,13.3c0,4-0.9,7.7-2.6,11.1C52.4,27.3,40.7,18.2,38.4,16.6z"/>
	<path class="st3" d="M34.1,7.8c-1.7-0.1-3.4,0.6-4.2,2c-0.1,0.1-0.1,0.3-0.2,0.4c-3.2-3.7-13-2.4-16.3-1.9c4.2-3.1,9.4-5,15-5
		c0.4,0,0.8,0,1.2,0C32.9,4.3,33.9,6.6,34.1,7.8z"/>
	<path class="st3" d="M3.7,33.3c4-9.7,23.2-17.8,26.1-19.1c0.5,1,1.3,1.8,2.3,2.5c0.8,0.5,1.6,0.8,2.4,0.9
		c-1.2,20.9-7.6,33.1-9.2,35.9C14.4,52.2,5.7,43.9,3.7,33.3z"/>
</g>
</svg>
