<?xml version="1.0" encoding="utf-8"?>
<!-- Generator: Adobe Illustrator 20.1.0, SVG Export Plug-In . SVG Version: 6.00 Build 0)  -->
<svg version="1.1" id="profileON" xmlns="http://www.w3.org/2000/svg" xmlns:xlink="http://www.w3.org/1999/xlink" x="0px" y="0px"
	 viewBox="0 0 50 59" style="enable-background:new 0 0 50 59;" xml:space="preserve">
<style type="text/css">
	.st0{fill:#53C8E9;stroke:#53C8E9;stroke-width:2;stroke-miterlimit:10;}
	.st1{fill:#FFFFFF;stroke:#FFFFFF;stroke-miterlimit:10;}
</style>
<g id="star">
	<path id="_Path_" class="st0" d="M44.9,24.8l-4.1-0.7c-3.8-0.7-7.9-3.9-9.1-7L27.2,5c-1.2-3.3-3-3.6-4.1-0.5l-3.9,11.2
		c-1.1,3.3-5.1,6.3-9,6.6l-4.8,0.5c-3.9,0.4-5.1,3.3-2.8,6.4l3.6,4.5c2.4,3.4,3.1,7.7,1.8,11.7l-3,8.4c-1.3,3.8,0.3,4.7,3.6,2.1
		l9.8-7.3c3.3-2.3,8.7-2.9,12-1.6l8.8,3.3c3.3,1.1,5.2-0.2,4.1-2.9L41.6,43c-1.1-2.8,0-7.2,2.5-9.7l3.5-3.3
		C49.8,27.8,48.7,25.5,44.9,24.8z"/>
</g>
<g id="dots">
	<g id="L1">
		<ellipse id="_Path_2" class="st1" cx="26.9" cy="31.2" rx="1.5" ry="1.1"/>
		<ellipse id="_Path_3" class="st1" cx="21.9" cy="32.5" rx="1" ry="1.2"/>
		<ellipse id="_Path_4" class="st1" cx="23.9" cy="26.8" rx="1.2" ry="1"/>
	</g>
	<g id="L2">
		<circle id="_Path_5" class="st1" cx="32.9" cy="30.1" r="1"/>
		
			<ellipse id="_Path_6" transform="matrix(0.7214 -0.6925 0.6925 0.7214 -17.8293 30.2881)" class="st1" cx="28.7" cy="37.3" rx="1.1" ry="1.4"/>
		<circle id="_Path_7" class="st1" cx="19.8" cy="38.4" r="1.3"/>
		<circle id="_Path_8" class="st1" cx="16.6" cy="32" r="1"/>
	</g>
	<g id="L3">
		<ellipse id="_Path_9" class="st1" cx="37.4" cy="29.6" rx="1.1" ry="0.7"/>
		<ellipse id="_Path_10" class="st1" cx="24.7" cy="21.2" rx="1.1" ry="1"/>
		
			<ellipse id="_Path_11" transform="matrix(0.5426 -0.84 0.84 0.5426 -28.3188 33.4264)" class="st1" cx="16.5" cy="42.7" rx="1.1" ry="0.8"/>
		<ellipse id="_Path_12" class="st1" cx="11.9" cy="29.9" rx="1" ry="0.7"/>
		
			<ellipse id="_Path_13" transform="matrix(0.7148 -0.6993 0.6993 0.7148 -19.5891 33.5883)" class="st1" cx="31.4" cy="40.8" rx="1" ry="1.2"/>
	</g>
	<g id="L4">
		
			<ellipse id="_Path_14" transform="matrix(0.9647 -0.2632 0.2632 0.9647 -6.0617 11.9733)" class="st1" cx="41.7" cy="28.6" rx="1.1" ry="0.6"/>
		
			<ellipse id="_Path_15" transform="matrix(0.5408 -0.8411 0.8411 0.5408 -33.3792 32.202)" class="st1" cx="12.8" cy="46.7" rx="1" ry="0.8"/>
		
			<ellipse id="_Path_16" transform="matrix(0.2054 -0.9787 0.9787 0.2054 -21.3936 30.0543)" class="st1" cx="7.8" cy="28.2" rx="0.7" ry="1.1"/>
		<circle id="_Path_17" class="st1" cx="24.7" cy="16.5" r="0.9"/>
		
			<ellipse id="_Path_18" transform="matrix(0.6471 -0.7624 0.7624 0.6471 -21.5816 42.0301)" class="st1" cx="34.6" cy="44.3" rx="0.6" ry="0.8"/>
	</g>
	<g id="L5">
		
			<ellipse id="_Path_19" transform="matrix(0.6601 -0.7511 0.7511 0.6601 -22.3622 44.162)" class="st1" cx="37.6" cy="46.8" rx="0.6" ry="0.7"/>
		<ellipse id="_Path_20" class="st1" cx="45.3" cy="27.9" rx="0.5" ry="0.6"/>
		
			<ellipse id="_Path_21" transform="matrix(0.6601 -0.7511 0.7511 0.6601 -22.3622 44.162)" class="st1" cx="37.6" cy="46.8" rx="0.6" ry="0.7"/>
		<ellipse id="_Path_22" class="st1" cx="9.9" cy="50.1" rx="0.9" ry="0.8"/>
		
			<ellipse id="_Path_23" transform="matrix(0.7825 -0.6227 0.6227 0.7825 -15.5398 8.5028)" class="st1" cx="4.4" cy="26.5" rx="0.5" ry="0.7"/>
		<circle id="_Path_24" class="st1" cx="24.7" cy="12.5" r="0.8"/>
	</g>
	<g id="L6">
		
			<ellipse id="_Path_25" transform="matrix(0.4781 -0.8783 0.8783 0.4781 -43.3811 34.3278)" class="st1" cx="7.2" cy="53.7" rx="0.9" ry="0.7"/>
		
			<ellipse id="_Path_26" transform="matrix(0.6097 -0.7926 0.7926 0.6097 -22.7381 50.9773)" class="st1" cx="40.4" cy="48.6" rx="0.7" ry="0.6"/>
		
			<ellipse id="_Path_27" transform="matrix(3.472503e-02 -0.9994 0.9994 3.472503e-02 15.3413 32.8855)" class="st1" cx="24.7" cy="8.5" rx="0.9" ry="0.7"/>
		
			<ellipse id="_Path_28" transform="matrix(0.4781 -0.8783 0.8783 0.4781 -43.3811 34.3278)" class="st1" cx="7.2" cy="53.7" rx="0.9" ry="0.7"/>
		
			<ellipse id="_Path_29" transform="matrix(0.6097 -0.7926 0.7926 0.6097 -22.7381 50.9773)" class="st1" cx="40.4" cy="48.6" rx="0.7" ry="0.6"/>
		
			<ellipse id="_Path_30" transform="matrix(3.472503e-02 -0.9994 0.9994 3.472503e-02 15.3413 32.8855)" class="st1" cx="24.7" cy="8.5" rx="0.9" ry="0.7"/>
	</g>
</g>
</svg>
