<?xml version="1.0" encoding="utf-8"?>
<svg version="1.1" id="Layer_4" xmlns="http://www.w3.org/2000/svg" xmlns:xlink="http://www.w3.org/1999/xlink" x="0px" y="0px"
	 viewBox="0 0 75.2 76.8" style="enable-background:new 0 0 75.2 76.8;" xml:space="preserve">
<path fill="white" d="M68.3,20.4c-3-5.4-7.5-9.9-13-13c-5.2-3.2-11.3-5-17.8-5c-6,0-11.6,1.5-16.4,4.2C15,9.8,10,14.6,6.7,20.4
	c-2.8,4.6-4.3,10-4.3,15.6c0,6.4,2,12.3,5.5,17.4c-0.1,0.3-0.2,0.8-0.3,1.3c-2.8,13.5-4.7,16.9-3.5,18c0.9,0.8,3.8,0.9,16.1-8
	c0.3,0.2,0.6,0.3,0.9,0.5c4.9,2.7,10.5,4.2,16.4,4.2c6.5,0,12.6-1.8,17.8-5c4.3-2.5,8-5.8,10.9-9.8c4.1-5.3,6.4-11.8,6.4-18.7
	C72.7,30.4,71.1,25.1,68.3,20.4z M22.8,30l-6.5,15.6c-0.2,0.6-0.7,0.9-1.3,0.9s-1-0.2-1.3-0.7c-0.3-0.4-0.3-0.9-0.1-1.4l6.5-15.6
	c0.2-0.4,0.4-0.6,0.8-0.8c0.4-0.2,0.7-0.2,1.1,0c0.4,0.2,0.6,0.4,0.8,0.8C23,29.2,23,29.6,22.8,30z M37,39.4c0,0.4-0.1,0.8-0.4,1.1
	c-0.3,0.2-0.6,0.5-1,0.5h-8.5c0.2,1,0.5,1.2,0.9,1.6c0.6,0.7,1.4,1,2.5,1.1s2-0.1,2.8-0.7c0.3-0.3,0.6-0.4,1.1-0.4
	c0.4,0,0.8,0.1,0.9,0.3c0.5,0.6,0.5,1.1,0,1.7c-1.3,1.2-2.9,1.8-4.7,1.8c-1.9,0-3.4-0.7-4.7-2c-1.3-1.3-1.9-2.9-1.9-4.7
	c0-1.8,0.7-3.4,1.9-4.7s2.8-2,4.6-2c1.8,0,3.3,0.6,4.5,1.8c1.2,1.2,2,2.7,2,4.5V39.4z M49.1,35.5c-0.3,0.3-0.7,0.4-1.1,0.4
	c-1.7,0-3,1.3-4,4v5.1c0,0.4,0,0.7-0.3,1c-0.3,0.3-0.6,0.4-1,0.4c-0.4,0-0.9-0.1-1.1-0.4c-0.3-0.3-0.5-0.6-0.5-1V34.5
	c0-0.4,0.3-0.7,0.6-1s0.7-0.4,1.1-0.4c0.4,0,0.7,0.1,1,0.4s0.4,0.6,0.4,1v0.2c1-0.5,1.1-0.9,1.8-1.2c0.7-0.3,1.4-0.4,2-0.4
	c0.6,0,1,0.1,1.3,0.4c0.3,0.3,0.4,0.6,0.4,1S49.4,35.2,49.1,35.5z M62.1,30l-6.5,15.6c-0.2,0.6-0.7,0.9-1.3,0.9s-1-0.2-1.3-0.7
	c-0.3-0.4-0.3-0.9-0.1-1.4l6.5-15.6c0.2-0.4,0.4-0.6,0.8-0.8c0.4-0.2,0.7-0.2,1.1,0c0.4,0.2,0.6,0.4,0.8,0.8
	C62.3,29.2,62.2,29.6,62.1,30z"/>
<path fill="white" d="M33.3,36.4c-0.7-0.6-1.6-0.8-2.7-0.9c-1,0.1-1.9,0.2-2.5,0.8S27.1,38,27,38h7.6C34.4,38,34,37,33.3,36.4z"/>
</svg>
